Heavy.ufo
<glyph name="ampersand" format="1">
  <advance width="775"/>
  <unicode hex="0026"/>
  <outline>
    <contour>
      <point x="40" y="189" type="curve"/>
      <point x="220" y="205" type="line"/>
      <point x="220" y="165"/>
      <point x="250" y="130"/>
      <point x="314" y="130" type="curve" smooth="yes"/>
      <point x="424" y="130"/>
      <point x="534" y="226"/>
      <point x="610" y="348" type="curve"/>
      <point x="722" y="260" type="line"/>
      <point x="640" y="136"/>
      <point x="494" y="-14"/>
      <point x="290" y="-14" type="curve" smooth="yes"/>
      <point x="150" y="-14"/>
      <point x="40" y="61"/>
    </contour>
    <contour>
      <point x="129" y="540" type="line"/>
      <point x="129" y="626"/>
      <point x="214" y="720"/>
      <point x="358" y="720" type="curve" smooth="yes"/>
      <point x="496" y="720"/>
      <point x="570" y="630"/>
      <point x="570" y="546" type="curve"/>
      <point x="416" y="528" type="line"/>
      <point x="416" y="554"/>
      <point x="392" y="583"/>
      <point x="356" y="583" type="curve" smooth="yes"/>
      <point x="313" y="583"/>
      <point x="294" y="554"/>
      <point x="294" y="528" type="curve"/>
    </contour>
    <contour>
      <point x="223" y="368" type="line" smooth="yes"/>
      <point x="175" y="426"/>
      <point x="129" y="472"/>
      <point x="129" y="540" type="curve"/>
      <point x="294" y="528" type="line"/>
      <point x="294" y="490"/>
      <point x="336" y="458"/>
      <point x="390" y="392" type="curve" smooth="yes"/>
      <point x="760" y="0" type="line"/>
      <point x="563" y="0" type="line"/>
    </contour>
    <contour>
      <point x="570" y="546" type="line"/>
      <point x="570" y="446"/>
      <point x="508" y="416"/>
      <point x="390" y="336" type="curve" smooth="yes"/>
      <point x="320" y="289"/>
      <point x="220" y="281"/>
      <point x="220" y="205" type="curve"/>
      <point x="40" y="189" type="line"/>
      <point x="40" y="353"/>
      <point x="232" y="389"/>
      <point x="303" y="421" type="curve" smooth="yes"/>
      <point x="378" y="455"/>
      <point x="416" y="494"/>
      <point x="416" y="528" type="curve"/>
    </contour>
  </outline>
</glyph>
<glyph name="plus" format="1">
  <advance width="692"/>
  <unicode hex="002B"/>
  <outline>
    <contour>
      <point x="65" y="190" type="line"/>
      <point x="65" y="356" type="line"/>
      <point x="628" y="356" type="line"/>
      <point x="628" y="190" type="line"/>
    </contour>
    <contour>
      <point x="256" y="552" type="line"/>
      <point x="436" y="552" type="line"/>
      <point x="436" y="-6" type="line"/>
      <point x="256" y="-6" type="line"/>
    </contour>
  </outline>
</glyph>
<glyph name="two" format="1">
  <advance width="682"/>
  <unicode hex="0032"/>
  <outline>
    <contour>
      <point x="20" y="0" type="line"/>
      <point x="326" y="314" type="line" smooth="yes"/>
      <point x="385" y="378"/>
      <point x="422" y="416"/>
      <point x="422" y="472" type="curve" smooth="yes"/>
      <point x="422" y="512"/>
      <point x="398" y="550"/>
      <point x="340" y="550" type="curve" smooth="yes"/>
      <point x="282" y="550"/>
      <point x="242" y="502"/>
      <point x="242" y="436" type="curve"/>
      <point x="52" y="436" type="line"/>
      <point x="52" y="585"/>
      <point x="152" y="715"/>
      <point x="346" y="715" type="curve" smooth="yes"/>
      <point x="526" y="715"/>
      <point x="624" y="598"/>
      <point x="624" y="484" type="curve" smooth="yes"/>
      <point x="624" y="408"/>
      <point x="582" y="348"/>
      <point x="520" y="298" type="curve" smooth="yes"/>
      <point x="376" y="178" type="line"/>
      <point x="644" y="178" type="line"/>
      <point x="644" y="0" type="line"/>
    </contour>
  </outline>
</glyph>
<glyph name="five" format="1">
  <advance width="669"/>
  <unicode hex="0035"/>
  <outline>
    <contour>
      <point x="630" y="222" type="curve" smooth="yes"/>
      <point x="630" y="54"/>
      <point x="471" y="-14"/>
      <point x="336" y="-14" type="curve" smooth="yes"/>
      <point x="207" y="-14"/>
      <point x="116" y="20"/>
      <point x="46" y="60" type="curve"/>
      <point x="110" y="226" type="line"/>
      <point x="174" y="182"/>
      <point x="244" y="164"/>
      <point x="288" y="164" type="curve" smooth="yes"/>
      <point x="368" y="164"/>
      <point x="416" y="186"/>
      <point x="416" y="246" type="curve" smooth="yes"/>
      <point x="416" y="306"/>
      <point x="350" y="325"/>
      <point x="288" y="325" type="curve" smooth="yes"/>
      <point x="238" y="325"/>
      <point x="155" y="318"/>
      <point x="84" y="286" type="curve"/>
      <point x="223" y="376" type="line"/>
      <point x="277" y="434"/>
      <point x="340" y="449"/>
      <point x="416" y="449" type="curve" smooth="yes"/>
      <point x="524" y="449"/>
      <point x="630" y="370"/>
    </contour>
    <contour>
      <point x="316" y="532" type="line"/>
      <point x="276" y="368" type="line"/>
      <point x="84" y="286" type="line"/>
      <point x="184" y="700" type="line"/>
      <point x="612" y="700" type="line"/>
      <point x="612" y="532" type="line"/>
    </contour>
  </outline>
</glyph>
<glyph name="question" format="1">
  <advance width="648"/>
  <unicode hex="003F"/>
  <outline>
    <contour>
      <point x="201" y="64" type="curve" smooth="yes"/>
      <point x="201" y="112"/>
      <point x="245" y="156"/>
      <point x="307" y="156" type="curve" smooth="yes"/>
      <point x="369" y="156"/>
      <point x="413" y="112"/>
      <point x="413" y="64" type="curve" smooth="yes"/>
      <point x="413" y="16"/>
      <point x="369" y="-27"/>
      <point x="307" y="-27" type="curve" smooth="yes"/>
      <point x="245" y="-27"/>
      <point x="201" y="16"/>
    </contour>
    <contour>
      <point x="216" y="390" type="line"/>
      <point x="387" y="390" type="line"/>
      <point x="377" y="210" type="line"/>
      <point x="236" y="210" type="line"/>
    </contour>
    <contour>
      <point x="422" y="500" type="curve" smooth="yes"/>
      <point x="422" y="550"/>
      <point x="386" y="578"/>
      <point x="320" y="578" type="curve" smooth="yes"/>
      <point x="262" y="578"/>
      <point x="198" y="548"/>
      <point x="158" y="490" type="curve"/>
      <point x="44" y="588" type="line"/>
      <point x="122" y="674"/>
      <point x="211" y="722"/>
      <point x="330" y="722" type="curve" smooth="yes"/>
      <point x="464" y="722"/>
      <point x="596" y="644"/>
      <point x="596" y="500" type="curve" smooth="yes"/>
      <point x="596" y="340"/>
      <point x="415" y="274"/>
      <point x="300" y="274" type="curve"/>
      <point x="250" y="390" type="line"/>
      <point x="370" y="390"/>
      <point x="422" y="456"/>
    </contour>
  </outline>
</glyph>
<glyph name="at" format="1">
  <advance width="770"/>
  <unicode hex="0040"/>
  <outline>
    <contour>
      <point x="331" y="320" type="curve" smooth="yes"/>
      <point x="331" y="280"/>
      <point x="345" y="258"/>
      <point x="365" y="258" type="curve" smooth="yes"/>
      <point x="395" y="258"/>
      <point x="426" y="305"/>
      <point x="426" y="362" type="curve" smooth="yes"/>
      <point x="426" y="406"/>
      <point x="413" y="425"/>
      <point x="391" y="425" type="curve" smooth="yes"/>
      <point x="356" y="425"/>
      <point x="331" y="374"/>
    </contour>
    <contour>
      <point x="196" y="311" type="curve" smooth="yes"/>
      <point x="196" y="450"/>
      <point x="279" y="530"/>
      <point x="355" y="530" type="curve" smooth="yes"/>
      <point x="423" y="530"/>
      <point x="472" y="460"/>
      <point x="472" y="372" type="curve" smooth="yes"/>
      <point x="472" y="233"/>
      <point x="406" y="152"/>
      <point x="328" y="152" type="curve" smooth="yes"/>
      <point x="246" y="152"/>
      <point x="196" y="212"/>
    </contour>
    <contour>
      <point x="10" y="320" type="curve" smooth="yes"/>
      <point x="10" y="548"/>
      <point x="183" y="727"/>
      <point x="415" y="727" type="curve" smooth="yes"/>
      <point x="627" y="727"/>
      <point x="760" y="558"/>
      <point x="760" y="390" type="curve" smooth="yes"/>
      <point x="760" y="212"/>
      <point x="658" y="137"/>
      <point x="558" y="137" type="curve" smooth="yes"/>
      <point x="488" y="137"/>
      <point x="430" y="194"/>
      <point x="440" y="260" type="curve"/>
      <point x="426" y="302" type="line"/>
      <point x="448" y="520" type="line"/>
      <point x="578" y="520" type="line"/>
      <point x="554" y="312" type="line" smooth="yes"/>
      <point x="553" y="305"/>
      <point x="552" y="293"/>
      <point x="552" y="285" type="curve" smooth="yes"/>
      <point x="552" y="261"/>
      <point x="558" y="248"/>
      <point x="574" y="248" type="curve" smooth="yes"/>
      <point x="596" y="248"/>
      <point x="632" y="274"/>
      <point x="632" y="390" type="curve" smooth="yes"/>
      <point x="632" y="514"/>
      <point x="559" y="618"/>
      <point x="415" y="618" type="curve" smooth="yes"/>
      <point x="243" y="618"/>
      <point x="138" y="494"/>
      <point x="138" y="320" type="curve" smooth="yes"/>
      <point x="138" y="174"/>
      <point x="213" y="76"/>
      <point x="378" y="76" type="curve" smooth="yes"/>
      <point x="448" y="76"/>
      <point x="507" y="90"/>
      <point x="563" y="117" type="curve"/>
      <point x="608" y="20" type="line"/>
      <point x="548" y="-13"/>
      <point x="463" y="-32"/>
      <point x="365" y="-32" type="curve" smooth="yes"/>
      <point x="135" y="-32"/>
      <point x="10" y="121"/>
    </contour>
  </outline>
</glyph>
<glyph name="N" format="1">
  <advance width="799"/>
  <unicode hex="004E"/>
  <outline>
    <contour>
      <point x="76" y="500" type="line"/>
      <point x="72" y="735" type="line"/>
      <point x="722" y="200" type="line"/>
      <point x="728" y="-35" type="line"/>
    </contour>
    <contour>
      <point x="541" y="700" type="line"/>
      <point x="728" y="700" type="line"/>
      <point x="728" y="-35" type="line"/>
      <point x="541" y="172" type="line"/>
    </contour>
    <contour>
      <point x="72" y="735" type="line"/>
      <point x="258" y="528" type="line"/>
      <point x="258" y="0" type="line"/>
      <point x="72" y="0" type="line"/>
    </contour>
  </outline>
</glyph>
<glyph name="Y" format="1">
  <advance width="690"/>
  <unicode hex="0059"/>
  <outline>
    <contour>
      <point x="246" y="360" type="line"/>
      <point x="444" y="360" type="line"/>
      <point x="444" y="0" type="line"/>
      <point x="246" y="0" type="line"/>
    </contour>
    <contour>
      <point x="468" y="700" type="line"/>
      <point x="694" y="700" type="line"/>
      <point x="345" y="111" type="line"/>
      <point x="-4" y="700" type="line"/>
      <point x="222" y="700" type="line"/>
      <point x="345" y="456" type="line"/>
    </contour>
  </outline>
</glyph>
<glyph name="f" format="1">
  <advance width="361"/>
  <unicode hex="0066"/>
  <outline>
    <contour>
      <point x="12" y="460" type="line"/>
      <point x="351" y="460" type="line"/>
      <point x="351" y="320" type="line"/>
      <point x="12" y="320" type="line"/>
    </contour>
    <contour>
      <point x="332" y="620" type="line"/>
      <point x="318" y="636"/>
      <point x="304" y="645"/>
      <point x="286" y="645" type="curve" smooth="yes"/>
      <point x="256" y="645"/>
      <point x="238" y="626"/>
      <point x="238" y="584" type="curve" smooth="yes"/>
      <point x="238" y="0" type="line"/>
      <point x="73" y="0" type="line"/>
      <point x="73" y="630" type="line" smooth="yes"/>
      <point x="73" y="730"/>
      <point x="134" y="798"/>
      <point x="258" y="798" type="curve" smooth="yes"/>
      <point x="334" y="798"/>
      <point x="374" y="764"/>
      <point x="398" y="744" type="curve"/>
    </contour>
  </outline>
</glyph>
<glyph name="g" format="1">
  <advance width="622"/>
  <unicode hex="0067"/>
  <outline>
    <contour>
      <point x="41" y="-34" type="curve"/>
      <point x="208" y="-34" type="line"/>
      <point x="214" y="-88"/>
      <point x="250" y="-106"/>
      <point x="300" y="-106" type="curve" smooth="yes"/>
      <point x="362" y="-106"/>
      <point x="404" y="-66"/>
      <point x="404" y="10" type="curve" smooth="yes"/>
      <point x="404" y="460" type="line"/>
      <point x="569" y="460" type="line"/>
      <point x="569" y="10" type="line" smooth="yes"/>
      <point x="569" y="-174"/>
      <point x="456" y="-242"/>
      <point x="308" y="-242" type="curve" smooth="yes"/>
      <point x="124" y="-242"/>
      <point x="55" y="-157"/>
    </contour>
    <contour>
      <point x="31" y="238" type="curve" smooth="yes"/>
      <point x="31" y="396"/>
      <point x="138" y="470"/>
      <point x="246" y="470" type="curve" smooth="yes"/>
      <point x="361" y="470"/>
      <point x="448" y="387"/>
      <point x="448" y="238" type="curve" smooth="yes"/>
      <point x="448" y="89"/>
      <point x="361" y="6"/>
      <point x="246" y="6" type="curve" smooth="yes"/>
      <point x="138" y="6"/>
      <point x="31" y="80"/>
    </contour>
    <contour>
      <point x="214" y="238" type="curve" smooth="yes"/>
      <point x="214" y="176"/>
      <point x="258" y="142"/>
      <point x="310" y="142" type="curve" smooth="yes"/>
      <point x="356" y="142"/>
      <point x="404" y="172"/>
      <point x="404" y="238" type="curve" smooth="yes"/>
      <point x="404" y="304"/>
      <point x="356" y="334"/>
      <point x="310" y="334" type="curve" smooth="yes"/>
      <point x="258" y="334"/>
      <point x="214" y="300"/>
    </contour>
  </outline>
</glyph>
<glyph name="p" format="1">
  <advance width="630"/>
  <unicode hex="0070"/>
  <outline>
    <contour>
      <point x="228" y="-220" type="line"/>
      <point x="54" y="-220" type="line"/>
      <point x="54" y="460" type="line"/>
      <point x="228" y="460" type="line"/>
    </contour>
    <contour>
      <point x="600" y="230" type="curve" smooth="yes"/>
      <point x="600" y="64"/>
      <point x="492" y="-18"/>
      <point x="384" y="-18" type="curve" smooth="yes"/>
      <point x="260" y="-18"/>
      <point x="192" y="81"/>
      <point x="192" y="230" type="curve" smooth="yes"/>
      <point x="192" y="379"/>
      <point x="260" y="478"/>
      <point x="384" y="478" type="curve" smooth="yes"/>
      <point x="492" y="478"/>
      <point x="600" y="396"/>
    </contour>
    <contour>
      <point x="418" y="230" type="curve" smooth="yes"/>
      <point x="418" y="292"/>
      <point x="374" y="326"/>
      <point x="322" y="326" type="curve" smooth="yes"/>
      <point x="276" y="326"/>
      <point x="228" y="296"/>
      <point x="228" y="230" type="curve" smooth="yes"/>
      <point x="228" y="164"/>
      <point x="276" y="134"/>
      <point x="322" y="134" type="curve" smooth="yes"/>
      <point x="374" y="134"/>
      <point x="418" y="168"/>
    </contour>
  </outline>
</glyph>
<glyph name="w" format="1">
  <advance width="785"/>
  <unicode hex="0077"/>
  <outline>
    <contour>
      <point x="618" y="460" type="line"/>
      <point x="796" y="460" type="line"/>
      <point x="548" y="-26" type="line"/>
      <point x="510" y="200" type="line"/>
    </contour>
    <contour>
      <point x="362" y="278" type="line"/>
      <point x="392" y="495" type="line"/>
      <point x="560" y="184" type="line"/>
      <point x="548" y="-26" type="line"/>
    </contour>
    <contour>
      <point x="392" y="495" type="line"/>
      <point x="422" y="278" type="line"/>
      <point x="238" y="-26" type="line"/>
      <point x="226" y="184" type="line"/>
    </contour>
    <contour>
      <point x="-12" y="460" type="line"/>
      <point x="168" y="460" type="line"/>
      <point x="276" y="200" type="line"/>
      <point x="238" y="-26" type="line"/>
    </contour>
  </outline>
</glyph>
<glyph name="x" format="1">
  <advance width="566"/>
  <unicode hex="0078"/>
  <outline>
    <contour>
      <point x="364" y="460" type="line"/>
      <point x="556" y="460" type="line"/>
      <point x="374" y="236" type="line"/>
      <point x="566" y="0" type="line"/>
      <point x="374" y="0" type="line"/>
      <point x="286" y="122" type="line"/>
      <point x="200" y="0" type="line"/>
      <point x="0" y="0" type="line"/>
      <point x="196" y="236" type="line"/>
      <point x="10" y="460" type="line"/>
      <point x="210" y="460" type="line"/>
      <point x="286" y="352" type="line"/>
    </contour>
  </outline>
</glyph>
<glyph name="asciitilde" format="1">
  <advance width="575"/>
  <unicode hex="007E"/>
  <outline>
    <contour>
      <point x="160" y="160" type="curve"/>
      <point x="28" y="164" type="line"/>
      <point x="26" y="171"/>
      <point x="24" y="179"/>
      <point x="24" y="188" type="curve" smooth="yes"/>
      <point x="24" y="226"/>
      <point x="32" y="260"/>
      <point x="58" y="292" type="curve" smooth="yes"/>
      <point x="86" y="326"/>
      <point x="120" y="352"/>
      <point x="194" y="352" type="curve" smooth="yes"/>
      <point x="242" y="352"/>
      <point x="270" y="334"/>
      <point x="320" y="302" type="curve" smooth="yes"/>
      <point x="352" y="282"/>
      <point x="372" y="267"/>
      <point x="390" y="267" type="curve" smooth="yes"/>
      <point x="410" y="267"/>
      <point x="420" y="285"/>
      <point x="420" y="304" type="curve" smooth="yes"/>
      <point x="420" y="316"/>
      <point x="416" y="330"/>
      <point x="412" y="340" type="curve"/>
      <point x="546" y="334" type="line"/>
      <point x="548" y="326"/>
      <point x="550" y="316"/>
      <point x="550" y="306" type="curve" smooth="yes"/>
      <point x="550" y="270"/>
      <point x="546" y="234"/>
      <point x="520" y="202" type="curve" smooth="yes"/>
      <point x="494" y="168"/>
      <point x="462" y="148"/>
      <point x="402" y="148" type="curve" smooth="yes"/>
      <point x="360" y="148"/>
      <point x="327" y="166"/>
      <point x="275" y="198" type="curve" smooth="yes"/>
      <point x="243" y="218"/>
      <point x="218" y="233"/>
      <point x="193" y="233" type="curve" smooth="yes"/>
      <point x="162" y="233"/>
      <point x="154" y="208"/>
      <point x="154" y="190" type="curve" smooth="yes"/>
      <point x="154" y="174"/>
      <point x="157" y="168"/>
    </contour>
  </outline>
</glyph>
<glyph name="exclamdown" format="1">
  <advance width="356"/>
  <unicode hex="00A1"/>
  <outline>
    <contour>
      <point x="286" y="-225" type="line"/>
      <point x="72" y="-225" type="line"/>
      <point x="108" y="235" type="line"/>
      <point x="249" y="235" type="line"/>
    </contour>
    <contour>
      <point x="284" y="406" type="curve" smooth="yes"/>
      <point x="284" y="350"/>
      <point x="240" y="311"/>
      <point x="178" y="311" type="curve" smooth="yes"/>
      <point x="116" y="311"/>
      <point x="72" y="350"/>
      <point x="72" y="406" type="curve" smooth="yes"/>
      <point x="72" y="462"/>
      <point x="116" y="502"/>
      <point x="178" y="502" type="curve" smooth="yes"/>
      <point x="240" y="502"/>
      <point x="284" y="462"/>
    </contour>
  </outline>
</glyph>
<glyph name="cent" format="1">
  <advance width="580"/>
  <unicode hex="00A2"/>
  <outline>
    <contour>
      <point x="223" y="38" type="line"/>
      <point x="348" y="38" type="line"/>
      <point x="360" y="-112" type="line"/>
      <point x="211" y="-112" type="line"/>
    </contour>
    <contour>
      <point x="218" y="230" type="curve" smooth="yes"/>
      <point x="218" y="158"/>
      <point x="273" y="124"/>
      <point x="331" y="124" type="curve" smooth="yes"/>
      <point x="389" y="124"/>
      <point x="429" y="154"/>
      <point x="459" y="190" type="curve"/>
      <point x="459" y="24" type="line"/>
      <point x="427" y="2"/>
      <point x="378" y="-10"/>
      <point x="315" y="-10" type="curve" smooth="yes"/>
      <point x="155" y="-10"/>
      <point x="40" y="82"/>
      <point x="40" y="230" type="curve" smooth="yes"/>
      <point x="40" y="378"/>
      <point x="155" y="470"/>
      <point x="315" y="470" type="curve" smooth="yes"/>
      <point x="378" y="470"/>
      <point x="427" y="456"/>
      <point x="459" y="436" type="curve"/>
      <point x="459" y="270" type="line"/>
      <point x="429" y="306"/>
      <point x="389" y="336"/>
      <point x="331" y="336" type="curve" smooth="yes"/>
      <point x="273" y="336"/>
      <point x="218" y="294"/>
    </contour>
    <contour>
      <point x="211" y="578" type="line"/>
      <point x="360" y="578" type="line"/>
      <point x="348" y="428" type="line"/>
      <point x="223" y="428" type="line"/>
    </contour>
  </outline>
</glyph>
<glyph name="brokenbar" format="1">
  <advance width="376"/>
  <unicode hex="00A6"/>
  <outline>
    <contour>
      <point x="100" y="695" type="line"/>
      <point x="276" y="695" type="line"/>
      <point x="276" y="422" type="line"/>
      <point x="100" y="422" type="line"/>
    </contour>
    <contour>
      <point x="276" y="278" type="line"/>
      <point x="276" y="5" type="line"/>
      <point x="100" y="5" type="line"/>
      <point x="100" y="278" type="line"/>
    </contour>
  </outline>
</glyph>
<glyph name="registered" format="1">
  <advance width="800"/>
  <unicode hex="00AE"/>
  <outline>
    <contour>
      <point x="386" y="319" type="line"/>
      <point x="490" y="319" type="line"/>
      <point x="599" y="150" type="line"/>
      <point x="463" y="150" type="line"/>
    </contour>
    <contour>
      <point x="248" y="570" type="line"/>
      <point x="364" y="570" type="line"/>
      <point x="364" y="150" type="line"/>
      <point x="248" y="150" type="line"/>
    </contour>
    <contour>
      <point x="322" y="472" type="line"/>
      <point x="322" y="570" type="line"/>
      <point x="412" y="570" type="line" smooth="yes"/>
      <point x="528" y="570"/>
      <point x="582" y="512"/>
      <point x="582" y="438" type="curve" smooth="yes"/>
      <point x="582" y="356"/>
      <point x="528" y="297"/>
      <point x="412" y="297" type="curve" smooth="yes"/>
      <point x="322" y="297" type="line"/>
      <point x="322" y="386" type="line"/>
      <point x="402" y="386" type="line" smooth="yes"/>
      <point x="439" y="386"/>
      <point x="460" y="400"/>
      <point x="460" y="430" type="curve" smooth="yes"/>
      <point x="460" y="460"/>
      <point x="439" y="472"/>
      <point x="402" y="472" type="curve" smooth="yes"/>
    </contour>
    <contour>
      <point x="95" y="350" type="curve" smooth="yes"/>
      <point x="95" y="172"/>
      <point x="227" y="40"/>
      <point x="400" y="40" type="curve" smooth="yes"/>
      <point x="573" y="40"/>
      <point x="705" y="172"/>
      <point x="705" y="350" type="curve" smooth="yes"/>
      <point x="705" y="528"/>
      <point x="573" y="660"/>
      <point x="400" y="660" type="curve" smooth="yes"/>
      <point x="227" y="660"/>
      <point x="95" y="528"/>
    </contour>
    <contour>
      <point x="40" y="350" type="curve" smooth="yes"/>
      <point x="40" y="559"/>
      <point x="196" y="710"/>
      <point x="400" y="710" type="curve" smooth="yes"/>
      <point x="604" y="710"/>
      <point x="760" y="559"/>
      <point x="760" y="350" type="curve" smooth="yes"/>
      <point x="760" y="141"/>
      <point x="604" y="-10"/>
      <point x="400" y="-10" type="curve" smooth="yes"/>
      <point x="196" y="-10"/>
      <point x="40" y="141"/>
    </contour>
  </outline>
</glyph>
<glyph name="acute" format="1">
  <advance width="375"/>
  <unicode hex="00B4"/>
  <outline>
    <contour>
      <point x="324" y="652" type="line"/>
      <point x="144" y="502" type="line"/>
      <point x="46" y="548" type="line"/>
      <point x="196" y="708" type="line"/>
    </contour>
  </outline>
</glyph>
<glyph name="periodcentered" format="1">
  <advance width="329"/>
  <unicode hex="00B7"/>
  <outline>
    <contour>
      <point x="58" y="276" type="curve" smooth="yes"/>
      <point x="58" y="332"/>
      <point x="102" y="380"/>
      <point x="164" y="380" type="curve" smooth="yes"/>
      <point x="226" y="380"/>
      <point x="271" y="332"/>
      <point x="271" y="276" type="curve" smooth="yes"/>
      <point x="271" y="220"/>
      <point x="226" y="173"/>
      <point x="164" y="173" type="curve" smooth="yes"/>
      <point x="102" y="173"/>
      <point x="58" y="220"/>
    </contour>
  </outline>
</glyph>
<glyph name="ordmasculine" format="1">
  <advance width="278"/>
  <unicode hex="00BA"/>
  <outline>
    <contour>
      <point x="18" y="580" type="curve" smooth="yes"/>
      <point x="18" y="653"/>
      <point x="75" y="700"/>
      <point x="153" y="700" type="curve" smooth="yes"/>
      <point x="231" y="700"/>
      <point x="289" y="653"/>
      <point x="289" y="580" type="curve" smooth="yes"/>
      <point x="289" y="507"/>
      <point x="231" y="460"/>
      <point x="153" y="460" type="curve" smooth="yes"/>
      <point x="75" y="460"/>
      <point x="18" y="507"/>
    </contour>
    <contour>
      <point x="107" y="580" type="curve" smooth="yes"/>
      <point x="107" y="548"/>
      <point x="128" y="530"/>
      <point x="153" y="530" type="curve" smooth="yes"/>
      <point x="178" y="530"/>
      <point x="200" y="548"/>
      <point x="200" y="580" type="curve" smooth="yes"/>
      <point x="200" y="612"/>
      <point x="178" y="630"/>
      <point x="153" y="630" type="curve" smooth="yes"/>
      <point x="128" y="630"/>
      <point x="107" y="612"/>
    </contour>
  </outline>
</glyph>
<glyph name="questiondown" format="1">
  <advance width="648"/>
  <unicode hex="00BF"/>
  <outline>
    <contour>
      <point x="448" y="636" type="curve" smooth="yes"/>
      <point x="448" y="588"/>
      <point x="404" y="544"/>
      <point x="342" y="544" type="curve" smooth="yes"/>
      <point x="280" y="544"/>
      <point x="235" y="588"/>
      <point x="235" y="636" type="curve" smooth="yes"/>
      <point x="235" y="684"/>
      <point x="280" y="727"/>
      <point x="342" y="727" type="curve" smooth="yes"/>
      <point x="404" y="727"/>
      <point x="448" y="684"/>
    </contour>
    <contour>
      <point x="432" y="310" type="line"/>
      <point x="260" y="310" type="line"/>
      <point x="270" y="490" type="line"/>
      <point x="412" y="490" type="line"/>
    </contour>
    <contour>
      <point x="226" y="200" type="curve" smooth="yes"/>
      <point x="226" y="150"/>
      <point x="262" y="122"/>
      <point x="328" y="122" type="curve" smooth="yes"/>
      <point x="386" y="122"/>
      <point x="450" y="152"/>
      <point x="490" y="210" type="curve"/>
      <point x="604" y="112" type="line"/>
      <point x="526" y="26"/>
      <point x="437" y="-22"/>
      <point x="318" y="-22" type="curve" smooth="yes"/>
      <point x="184" y="-22"/>
      <point x="52" y="56"/>
      <point x="52" y="200" type="curve" smooth="yes"/>
      <point x="52" y="360"/>
      <point x="233" y="426"/>
      <point x="348" y="426" type="curve"/>
      <point x="398" y="310" type="line"/>
      <point x="278" y="310"/>
      <point x="226" y="244"/>
    </contour>
  </outline>
</glyph>
<glyph name="Aacute" format="1">
  <advance width="757"/>
  <unicode hex="00C1"/>
  <outline>
    <contour>
      <point x="195.5" y="112.5" type="line"/>
      <point x="201.5" y="256" type="line"/>
      <point x="560.5" y="256" type="line"/>
      <point x="565.5" y="112.5" type="line"/>
    </contour>
    <contour>
      <point x="379" y="412" type="line"/>
      <point x="287" y="203" type="line"/>
      <point x="299" y="159" type="line"/>
      <point x="217.5" y="0" type="line"/>
      <point x="-3.5" y="0" type="line"/>
      <point x="379" y="747" type="line"/>
      <point x="760.5" y="0" type="line"/>
      <point x="539.5" y="0" type="line"/>
      <point x="460.5" y="152" type="line"/>
      <point x="471" y="202.5" type="line"/>
    </contour>
    <contour>
      <point x="545.5" y="957" type="line"/>
      <point x="365.5" y="807" type="line"/>
      <point x="267.5" y="853.5" type="line"/>
      <point x="417.5" y="1013.5" type="line"/>
    </contour>
  </outline>
</glyph>
<glyph name="Acircumflex" format="1">
  <advance width="757"/>
  <unicode hex="00C2"/>
  <outline>
    <contour>
      <point x="195.5" y="112.5" type="line"/>
      <point x="201.5" y="256" type="line"/>
      <point x="560.5" y="256" type="line"/>
      <point x="565.5" y="112.5" type="line"/>
    </contour>
    <contour>
      <point x="379" y="412" type="line"/>
      <point x="287" y="203" type="line"/>
      <point x="299" y="159" type="line"/>
      <point x="217.5" y="0" type="line"/>
      <point x="-3.5" y="0" type="line"/>
      <point x="379" y="747" type="line"/>
      <point x="760.5" y="0" type="line"/>
      <point x="539.5" y="0" type="line"/>
      <point x="460.5" y="152" type="line"/>
      <point x="471" y="202.5" type="line"/>
    </contour>
    <contour>
      <point x="379" y="882.5" type="line"/>
      <point x="293" y="800" type="line"/>
      <point x="170" y="880" type="line"/>
      <point x="379" y="1020" type="line"/>
      <point x="587.5" y="880" type="line"/>
      <point x="464.5" y="800" type="line"/>
    </contour>
  </outline>
</glyph>
<glyph name="Atilde" format="1">
  <advance width="757"/>
  <unicode hex="00C3"/>
  <outline>
    <contour>
      <point x="195.5" y="112.5" type="line"/>
      <point x="201.5" y="256" type="line"/>
      <point x="560.5" y="256" type="line"/>
      <point x="565.5" y="112.5" type="line"/>
    </contour>
    <contour>
      <point x="379" y="412" type="line"/>
      <point x="287" y="203" type="line"/>
      <point x="299" y="159" type="line"/>
      <point x="217.5" y="0" type="line"/>
      <point x="-3.5" y="0" type="line"/>
      <point x="379" y="747" type="line"/>
      <point x="760.5" y="0" type="line"/>
      <point x="539.5" y="0" type="line"/>
      <point x="460.5" y="152" type="line"/>
      <point x="471" y="202.5" type="line"/>
    </contour>
    <contour>
      <point x="173.5" y="877.5" type="line"/>
      <point x="183.5" y="926.5"/>
      <point x="228" y="976"/>
      <point x="297.5" y="976" type="curve" smooth="yes"/>
      <point x="364" y="976"/>
      <point x="381" y="922.5"/>
      <point x="438" y="922.5" type="curve" smooth="yes"/>
      <point x="465.5" y="922.5"/>
      <point x="485.5" y="945"/>
      <point x="505.5" y="977" type="curve"/>
      <point x="584.5" y="893.5" type="line"/>
      <point x="568.5" y="856.5"/>
      <point x="508" y="804"/>
      <point x="442" y="804" type="curve" smooth="yes"/>
      <point x="387" y="804"/>
      <point x="347.5" y="859.5"/>
      <point x="296.5" y="859.5" type="curve" smooth="yes"/>
      <point x="259.5" y="859.5"/>
      <point x="250.5" y="823"/>
      <point x="250.5" y="808" type="curve"/>
    </contour>
  </outline>
</glyph>
<glyph name="Adieresis" format="1">
  <advance width="757"/>
  <unicode hex="00C4"/>
  <outline>
    <contour>
      <point x="195.5" y="112.5" type="line"/>
      <point x="201.5" y="256" type="line"/>
      <point x="560.5" y="256" type="line"/>
      <point x="565.5" y="112.5" type="line"/>
    </contour>
    <contour>
      <point x="379" y="412" type="line"/>
      <point x="287" y="203" type="line"/>
      <point x="299" y="159" type="line"/>
      <point x="217.5" y="0" type="line"/>
      <point x="-3.5" y="0" type="line"/>
      <point x="379" y="747" type="line"/>
      <point x="760.5" y="0" type="line"/>
      <point x="539.5" y="0" type="line"/>
      <point x="460.5" y="152" type="line"/>
      <point x="471" y="202.5" type="line"/>
    </contour>
    <contour>
      <point x="434.5" y="827" type="curve" smooth="yes"/>
      <point x="434.5" y="880.5"/>
      <point x="478" y="917"/>
      <point x="532.5" y="917" type="curve" smooth="yes"/>
      <point x="587" y="917"/>
      <point x="630.5" y="880.5"/>
      <point x="630.5" y="827" type="curve" smooth="yes"/>
      <point x="630.5" y="773.5"/>
      <point x="587" y="737"/>
      <point x="532.5" y="737" type="curve" smooth="yes"/>
      <point x="478" y="737"/>
      <point x="434.5" y="773.5"/>
    </contour>
    <contour>
      <point x="122.5" y="832" type="curve" smooth="yes"/>
      <point x="122.5" y="885.5"/>
      <point x="166" y="922"/>
      <point x="220.5" y="922" type="curve" smooth="yes"/>
      <point x="275" y="922"/>
      <point x="318.5" y="885.5"/>
      <point x="318.5" y="832" type="curve" smooth="yes"/>
      <point x="318.5" y="778.5"/>
      <point x="275" y="742"/>
      <point x="220.5" y="742" type="curve" smooth="yes"/>
      <point x="166" y="742"/>
      <point x="122.5" y="778.5"/>
    </contour>
  </outline>
</glyph>
<glyph name="Aring" format="1">
  <advance width="757"/>
  <unicode hex="00C5"/>
  <outline>
    <contour>
      <point x="195.5" y="112.5" type="line"/>
      <point x="201.5" y="256" type="line"/>
      <point x="560.5" y="256" type="line"/>
      <point x="565.5" y="112.5" type="line"/>
    </contour>
    <contour>
      <point x="379" y="412" type="line"/>
      <point x="287" y="203" type="line"/>
      <point x="299" y="159" type="line"/>
      <point x="217.5" y="0" type="line"/>
      <point x="-3.5" y="0" type="line"/>
      <point x="379" y="747" type="line"/>
      <point x="760.5" y="0" type="line"/>
      <point x="539.5" y="0" type="line"/>
      <point x="460.5" y="152" type="line"/>
      <point x="471" y="202.5" type="line"/>
    </contour>
    <contour>
      <point x="246.5" y="801" type="curve" smooth="yes"/>
      <point x="246.5" y="872.5"/>
      <point x="303" y="921.5"/>
      <point x="378" y="921.5" type="curve" smooth="yes"/>
      <point x="453" y="921.5"/>
      <point x="510.5" y="872.5"/>
      <point x="510.5" y="801" type="curve" smooth="yes"/>
      <point x="510.5" y="729.5"/>
      <point x="453" y="681"/>
      <point x="378" y="681" type="curve" smooth="yes"/>
      <point x="303" y="681"/>
      <point x="246.5" y="729.5"/>
    </contour>
    <contour>
      <point x="333.5" y="801" type="curve" smooth="yes"/>
      <point x="333.5" y="772"/>
      <point x="353" y="755.5"/>
      <point x="378" y="755.5" type="curve" smooth="yes"/>
      <point x="403" y="755.5"/>
      <point x="423.5" y="772"/>
      <point x="423.5" y="801" type="curve" smooth="yes"/>
      <point x="423.5" y="830"/>
      <point x="403" y="847.5"/>
      <point x="378" y="847.5" type="curve" smooth="yes"/>
      <point x="353" y="847.5"/>
      <point x="333.5" y="830"/>
    </contour>
  </outline>
</glyph>
<glyph name="AE" format="1">
  <advance width="1122"/>
  <unicode hex="00C6"/>
  <outline>
    <contour>
      <point x="286" y="132.5" type="line"/>
      <point x="294" y="310.5" type="line"/>
      <point x="594" y="310.5" type="line"/>
      <point x="594" y="132.5" type="line"/>
    </contour>
    <contour>
      <point x="439" y="700" type="line"/>
      <point x="630" y="660" type="line"/>
      <point x="266.5" y="0" type="line"/>
      <point x="17" y="0" type="line"/>
    </contour>
    <contour>
      <point x="658.5" y="0" type="line"/>
      <point x="658.5" y="157.5" type="line"/>
      <point x="1052.5" y="157.5" type="line"/>
      <point x="1052.5" y="0" type="line"/>
    </contour>
    <contour>
      <point x="666.5" y="542.5" type="line"/>
      <point x="439" y="700" type="line"/>
      <point x="1052.5" y="700" type="line"/>
      <point x="1052.5" y="542.5" type="line"/>
    </contour>
    <contour>
      <point x="658.5" y="287.5" type="line"/>
      <point x="658.5" y="440.5" type="line"/>
      <point x="1032.5" y="440.5" type="line"/>
      <point x="1032.5" y="287.5" type="line"/>
    </contour>
    <contour>
      <point x="567.5" y="700" type="line"/>
      <point x="778.5" y="700" type="line"/>
      <point x="778.5" y="0" type="line"/>
      <point x="567.5" y="0" type="line"/>
    </contour>
  </outline>
</glyph>
<glyph name="Ccedilla" format="1">
  <advance width="705"/>
  <unicode hex="00C7"/>
  <outline>
    <contour>
      <point x="245.5" y="350" type="curve" smooth="yes"/>
      <point x="245.5" y="232"/>
      <point x="334" y="166"/>
      <point x="439.5" y="166" type="curve" smooth="yes"/>
      <point x="538.5" y="166"/>
      <point x="598.5" y="209.5"/>
      <point x="643.5" y="255.5" type="curve"/>
      <point x="643.5" y="50.5" type="line"/>
      <point x="588" y="10"/>
      <point x="528.5" y="-18"/>
      <point x="426.5" y="-18" type="curve" smooth="yes"/>
      <point x="192" y="-18"/>
      <point x="32" y="129"/>
      <point x="32" y="350" type="curve" smooth="yes"/>
      <point x="32" y="571"/>
      <point x="192" y="718"/>
      <point x="426.5" y="718" type="curve" smooth="yes"/>
      <point x="528.5" y="718"/>
      <point x="588" y="690"/>
      <point x="643.5" y="649.5" type="curve"/>
      <point x="643.5" y="444.5" type="line"/>
      <point x="598.5" y="490.5"/>
      <point x="538.5" y="534"/>
      <point x="439.5" y="534" type="curve" smooth="yes"/>
      <point x="334" y="534"/>
      <point x="245.5" y="468"/>
    </contour>
    <contour>
      <point x="355.5" y="61" type="line"/>
      <point x="480.5" y="56" type="line"/>
      <point x="362.5" y="-100" type="line"/>
      <point x="267" y="-141.5" type="line"/>
    </contour>
    <contour>
      <point x="529.5" y="-169" type="curve"/>
      <point x="420.5" y="-157.5" type="line"/>
      <point x="420.5" y="-130.5"/>
      <point x="386.5" y="-126"/>
      <point x="356.5" y="-126" type="curve" smooth="yes"/>
      <point x="346.5" y="-126"/>
      <point x="306.5" y="-127"/>
      <point x="267" y="-141.5" type="curve"/>
      <point x="338.5" y="-96" type="line"/>
      <point x="366" y="-68.5"/>
      <point x="394.5" y="-64"/>
      <point x="432" y="-64" type="curve" smooth="yes"/>
      <point x="474" y="-64"/>
      <point x="529.5" y="-98"/>
    </contour>
    <contour>
      <point x="529.5" y="-169" type="line"/>
      <point x="529.5" y="-244.5"/>
      <point x="456" y="-282"/>
      <point x="390.5" y="-282" type="curve" smooth="yes"/>
      <point x="329" y="-282"/>
      <point x="282.5" y="-273.5"/>
      <point x="230" y="-243" type="curve"/>
      <point x="279.5" y="-165" type="line"/>
      <point x="307" y="-184"/>
      <point x="346.5" y="-191"/>
      <point x="364.5" y="-191" type="curve" smooth="yes"/>
      <point x="398.5" y="-191"/>
      <point x="420.5" y="-181.5"/>
      <point x="420.5" y="-157.5" type="curve"/>
    </contour>
  </outline>
</glyph>
<glyph name="Egrave" format="1">
  <advance width="619"/>
  <unicode hex="00C8"/>
  <outline>
    <contour>
      <point x="204" y="0" type="line"/>
      <point x="204" y="157.5" type="line"/>
      <point x="557.5" y="157.5" type="line"/>
      <point x="557.5" y="0" type="line"/>
    </contour>
    <contour>
      <point x="204" y="542.5" type="line"/>
      <point x="204" y="700" type="line"/>
      <point x="557.5" y="700" type="line"/>
      <point x="557.5" y="542.5" type="line"/>
    </contour>
    <contour>
      <point x="204" y="287.5" type="line"/>
      <point x="204" y="440.5" type="line"/>
      <point x="537.5" y="440.5" type="line"/>
      <point x="537.5" y="287.5" type="line"/>
    </contour>
    <contour>
      <point x="72" y="700" type="line"/>
      <point x="258.5" y="700" type="line"/>
      <point x="258.5" y="0" type="line"/>
      <point x="72" y="0" type="line"/>
    </contour>
    <contour>
      <point x="143.5" y="936" type="line"/>
      <point x="271" y="992.5" type="line"/>
      <point x="421" y="832.5" type="line"/>
      <point x="323.5" y="786" type="line"/>
    </contour>
  </outline>
</glyph>
<glyph name="Eacute" format="1">
  <advance width="619"/>
  <unicode hex="00C9"/>
  <outline>
    <contour>
      <point x="204" y="0" type="line"/>
      <point x="204" y="157.5" type="line"/>
      <point x="557.5" y="157.5" type="line"/>
      <point x="557.5" y="0" type="line"/>
    </contour>
    <contour>
      <point x="204" y="542.5" type="line"/>
      <point x="204" y="700" type="line"/>
      <point x="557.5" y="700" type="line"/>
      <point x="557.5" y="542.5" type="line"/>
    </contour>
    <contour>
      <point x="204" y="287.5" type="line"/>
      <point x="204" y="440.5" type="line"/>
      <point x="537.5" y="440.5" type="line"/>
      <point x="537.5" y="287.5" type="line"/>
    </contour>
    <contour>
      <point x="72" y="700" type="line"/>
      <point x="258.5" y="700" type="line"/>
      <point x="258.5" y="0" type="line"/>
      <point x="72" y="0" type="line"/>
    </contour>
    <contour>
      <point x="481.5" y="936" type="line"/>
      <point x="301.5" y="786" type="line"/>
      <point x="204" y="832.5" type="line"/>
      <point x="354" y="992.5" type="line"/>
    </contour>
  </outline>
</glyph>
<glyph name="Ecircumflex" format="1">
  <advance width="619"/>
  <unicode hex="00CA"/>
  <outline>
    <contour>
      <point x="204" y="0" type="line"/>
      <point x="204" y="157.5" type="line"/>
      <point x="557.5" y="157.5" type="line"/>
      <point x="557.5" y="0" type="line"/>
    </contour>
    <contour>
      <point x="204" y="542.5" type="line"/>
      <point x="204" y="700" type="line"/>
      <point x="557.5" y="700" type="line"/>
      <point x="557.5" y="542.5" type="line"/>
    </contour>
    <contour>
      <point x="204" y="287.5" type="line"/>
      <point x="204" y="440.5" type="line"/>
      <point x="537.5" y="440.5" type="line"/>
      <point x="537.5" y="287.5" type="line"/>
    </contour>
    <contour>
      <point x="72" y="700" type="line"/>
      <point x="258.5" y="700" type="line"/>
      <point x="258.5" y="0" type="line"/>
      <point x="72" y="0" type="line"/>
    </contour>
    <contour>
      <point x="316" y="889.5" type="line"/>
      <point x="206" y="794.5" type="line"/>
      <point x="156" y="834.5" type="line"/>
      <point x="316" y="974.5" type="line"/>
      <point x="476" y="834.5" type="line"/>
      <point x="426" y="794.5" type="line"/>
    </contour>
  </outline>
</glyph>
<glyph name="Edieresis" format="1">
  <advance width="619"/>
  <unicode hex="00CB"/>
  <outline>
    <contour>
      <point x="204" y="0" type="line"/>
      <point x="204" y="157.5" type="line"/>
      <point x="557.5" y="157.5" type="line"/>
      <point x="557.5" y="0" type="line"/>
    </contour>
    <contour>
      <point x="204" y="542.5" type="line"/>
      <point x="204" y="700" type="line"/>
      <point x="557.5" y="700" type="line"/>
      <point x="557.5" y="542.5" type="line"/>
    </contour>
    <contour>
      <point x="204" y="287.5" type="line"/>
      <point x="204" y="440.5" type="line"/>
      <point x="537.5" y="440.5" type="line"/>
      <point x="537.5" y="287.5" type="line"/>
    </contour>
    <contour>
      <point x="72" y="700" type="line"/>
      <point x="258.5" y="700" type="line"/>
      <point x="258.5" y="0" type="line"/>
      <point x="72" y="0" type="line"/>
    </contour>
    <contour>
      <point x="345.5" y="868" type="curve" smooth="yes"/>
      <point x="345.5" y="921.5"/>
      <point x="389" y="958"/>
      <point x="443.5" y="958" type="curve" smooth="yes"/>
      <point x="498" y="958"/>
      <point x="541.5" y="921.5"/>
      <point x="541.5" y="868" type="curve" smooth="yes"/>
      <point x="541.5" y="814.5"/>
      <point x="498" y="778"/>
      <point x="443.5" y="778" type="curve" smooth="yes"/>
      <point x="389" y="778"/>
      <point x="345.5" y="814.5"/>
    </contour>
    <contour>
      <point x="88.5" y="868" type="curve" smooth="yes"/>
      <point x="88.5" y="921.5"/>
      <point x="132" y="958"/>
      <point x="186.5" y="958" type="curve" smooth="yes"/>
      <point x="241" y="958"/>
      <point x="284.5" y="921.5"/>
      <point x="284.5" y="868" type="curve" smooth="yes"/>
      <point x="284.5" y="814.5"/>
      <point x="241" y="778"/>
      <point x="186.5" y="778" type="curve" smooth="yes"/>
      <point x="132" y="778"/>
      <point x="88.5" y="814.5"/>
    </contour>
  </outline>
</glyph>
<glyph name="Icircumflex" format="1">
  <advance width="342"/>
  <unicode hex="00CE"/>
  <outline>
    <contour>
      <point x="72" y="700" type="line"/>
      <point x="270.5" y="700" type="line"/>
      <point x="270.5" y="0" type="line"/>
      <point x="72" y="0" type="line"/>
    </contour>
    <contour>
      <point x="162.5" y="889.5" type="line"/>
      <point x="52.5" y="794.5" type="line"/>
      <point x="2.5" y="834.5" type="line"/>
      <point x="162.5" y="974.5" type="line"/>
      <point x="322.5" y="834.5" type="line"/>
      <point x="272.5" y="794.5" type="line"/>
    </contour>
  </outline>
</glyph>
<glyph name="Idieresis" format="1">
  <advance width="342"/>
  <unicode hex="00CF"/>
  <outline>
    <contour>
      <point x="72" y="700" type="line"/>
      <point x="270.5" y="700" type="line"/>
      <point x="270.5" y="0" type="line"/>
      <point x="72" y="0" type="line"/>
    </contour>
    <contour>
      <point x="202" y="868" type="curve" smooth="yes"/>
      <point x="202" y="921.5"/>
      <point x="245.5" y="958"/>
      <point x="300" y="958" type="curve" smooth="yes"/>
      <point x="354.5" y="958"/>
      <point x="398" y="921.5"/>
      <point x="398" y="868" type="curve" smooth="yes"/>
      <point x="398" y="814.5"/>
      <point x="354.5" y="778"/>
      <point x="300" y="778" type="curve" smooth="yes"/>
      <point x="245.5" y="778"/>
      <point x="202" y="814.5"/>
    </contour>
    <contour>
      <point x="-55" y="868" type="curve" smooth="yes"/>
      <point x="-55" y="921.5"/>
      <point x="-11.5" y="958"/>
      <point x="43" y="958" type="curve" smooth="yes"/>
      <point x="97.5" y="958"/>
      <point x="141" y="921.5"/>
      <point x="141" y="868" type="curve" smooth="yes"/>
      <point x="141" y="814.5"/>
      <point x="97.5" y="778"/>
      <point x="43" y="778" type="curve" smooth="yes"/>
      <point x="-11.5" y="778"/>
      <point x="-55" y="814.5"/>
    </contour>
  </outline>
</glyph>
<glyph name="Eth" format="1">
  <advance width="749"/>
  <unicode hex="00D0"/>
  <outline>
    <contour>
      <point x="204" y="530" type="line"/>
      <point x="204" y="700" type="line"/>
      <point x="334.5" y="700" type="line" smooth="yes"/>
      <point x="571" y="700"/>
      <point x="717.5" y="567.5"/>
      <point x="717.5" y="350" type="curve"/>
      <point x="514.5" y="350" type="line"/>
      <point x="514.5" y="496.5"/>
      <point x="419.5" y="530"/>
      <point x="326.5" y="530" type="curve" smooth="yes"/>
    </contour>
    <contour>
      <point x="334.5" y="0" type="curve" smooth="yes"/>
      <point x="204" y="0" type="line"/>
      <point x="204" y="170" type="line"/>
      <point x="326.5" y="170" type="line" smooth="yes"/>
      <point x="419.5" y="170"/>
      <point x="514.5" y="203.5"/>
      <point x="514.5" y="350" type="curve"/>
      <point x="717.5" y="350" type="line"/>
      <point x="717.5" y="132.5"/>
      <point x="571" y="0"/>
    </contour>
    <contour>
      <point x="72" y="700" type="line"/>
      <point x="273.5" y="700" type="line"/>
      <point x="273.5" y="0" type="line"/>
      <point x="72" y="0" type="line"/>
    </contour>
    <contour>
      <point x="6" y="300" type="line"/>
      <point x="6" y="407.5" type="line"/>
      <point x="371" y="407.5" type="line"/>
      <point x="371" y="300" type="line"/>
    </contour>
  </outline>
</glyph>
<glyph name="Ntilde" format="1">
  <advance width="799"/>
  <unicode hex="00D1"/>
  <outline>
    <contour>
      <point x="76.5" y="499.5" type="line"/>
      <point x="72" y="735" type="line"/>
      <point x="722.5" y="200.5" type="line"/>
      <point x="727.5" y="-35" type="line"/>
    </contour>
    <contour>
      <point x="541" y="700" type="line"/>
      <point x="727.5" y="700" type="line"/>
      <point x="727.5" y="-35" type="line"/>
      <point x="541" y="172.5" type="line"/>
    </contour>
    <contour>
      <point x="72" y="735" type="line"/>
      <point x="258.5" y="527.5" type="line"/>
      <point x="258.5" y="0" type="line"/>
      <point x="72" y="0" type="line"/>
    </contour>
    <contour>
      <point x="225" y="854" type="line"/>
      <point x="235" y="903"/>
      <point x="284" y="936"/>
      <point x="329" y="936" type="curve" smooth="yes"/>
      <point x="394" y="936"/>
      <point x="399" y="888.5"/>
      <point x="453" y="888.5" type="curve" smooth="yes"/>
      <point x="472" y="888.5"/>
      <point x="489" y="904.5"/>
      <point x="509" y="936.5" type="curve"/>
      <point x="555" y="894" type="line"/>
      <point x="539" y="857"/>
      <point x="499" y="820.5"/>
      <point x="449" y="820.5" type="curve" smooth="yes"/>
      <point x="394" y="820.5"/>
      <point x="373" y="868"/>
      <point x="328" y="868" type="curve" smooth="yes"/>
      <point x="287" y="868"/>
      <point x="278" y="831.5"/>
      <point x="278" y="816.5" type="curve"/>
    </contour>
  </outline>
</glyph>
<glyph name="Ograve" format="1">
  <advance width="830"/>
  <unicode hex="00D2"/>
  <outline>
    <contour>
      <point x="238" y="350" type="curve" smooth="yes"/>
      <point x="238" y="236.5"/>
      <point x="307" y="159"/>
      <point x="415" y="159" type="curve" smooth="yes"/>
      <point x="523" y="159"/>
      <point x="592.5" y="236.5"/>
      <point x="592.5" y="350" type="curve" smooth="yes"/>
      <point x="592.5" y="463.5"/>
      <point x="527.5" y="541"/>
      <point x="415" y="541" type="curve" smooth="yes"/>
      <point x="307" y="541"/>
      <point x="238" y="463.5"/>
    </contour>
    <contour>
      <point x="32" y="350" type="curve" smooth="yes"/>
      <point x="32" y="570"/>
      <point x="198.5" y="718"/>
      <point x="415" y="718" type="curve" smooth="yes"/>
      <point x="635" y="718"/>
      <point x="799" y="570"/>
      <point x="799" y="350" type="curve" smooth="yes"/>
      <point x="799" y="130"/>
      <point x="639.5" y="-26"/>
      <point x="415" y="-26" type="curve" smooth="yes"/>
      <point x="190.5" y="-26"/>
      <point x="32" y="130"/>
    </contour>
    <contour>
      <point x="258.5" y="936" type="line"/>
      <point x="386.5" y="992.5" type="line"/>
      <point x="536.5" y="832.5" type="line"/>
      <point x="438.5" y="786" type="line"/>
    </contour>
  </outline>
</glyph>
<glyph name="Otilde" format="1">
  <advance width="830"/>
  <unicode hex="00D5"/>
  <outline>
    <contour>
      <point x="238" y="350" type="curve" smooth="yes"/>
      <point x="238" y="236.5"/>
      <point x="307" y="159"/>
      <point x="415" y="159" type="curve" smooth="yes"/>
      <point x="523" y="159"/>
      <point x="592.5" y="236.5"/>
      <point x="592.5" y="350" type="curve" smooth="yes"/>
      <point x="592.5" y="463.5"/>
      <point x="527.5" y="541"/>
      <point x="415" y="541" type="curve" smooth="yes"/>
      <point x="307" y="541"/>
      <point x="238" y="463.5"/>
    </contour>
    <contour>
      <point x="32" y="350" type="curve" smooth="yes"/>
      <point x="32" y="570"/>
      <point x="198.5" y="718"/>
      <point x="415" y="718" type="curve" smooth="yes"/>
      <point x="635" y="718"/>
      <point x="799" y="570"/>
      <point x="799" y="350" type="curve" smooth="yes"/>
      <point x="799" y="130"/>
      <point x="639.5" y="-26"/>
      <point x="415" y="-26" type="curve" smooth="yes"/>
      <point x="190.5" y="-26"/>
      <point x="32" y="130"/>
    </contour>
    <contour>
      <point x="254.5" y="852.5" type="line"/>
      <point x="264.5" y="901.5"/>
      <point x="313.5" y="934.5"/>
      <point x="358.5" y="934.5" type="curve" smooth="yes"/>
      <point x="423.5" y="934.5"/>
      <point x="428.5" y="887.5"/>
      <point x="482.5" y="887.5" type="curve" smooth="yes"/>
      <point x="501.5" y="887.5"/>
      <point x="518.5" y="903.5"/>
      <point x="538.5" y="935.5" type="curve"/>
      <point x="584.5" y="892.5" type="line"/>
      <point x="568.5" y="855.5"/>
      <point x="528.5" y="819.5"/>
      <point x="478.5" y="819.5" type="curve" smooth="yes"/>
      <point x="423.5" y="819.5"/>
      <point x="402.5" y="866.5"/>
      <point x="357.5" y="866.5" type="curve" smooth="yes"/>
      <point x="316.5" y="866.5"/>
      <point x="307.5" y="830.5"/>
      <point x="307.5" y="815.5" type="curve"/>
    </contour>
  </outline>
</glyph>
<glyph name="Odieresis" format="1">
  <advance width="830"/>
  <unicode hex="00D6"/>
  <outline>
    <contour>
      <point x="238" y="350" type="curve" smooth="yes"/>
      <point x="238" y="236.5"/>
      <point x="307" y="159"/>
      <point x="415" y="159" type="curve" smooth="yes"/>
      <point x="523" y="159"/>
      <point x="592.5" y="236.5"/>
      <point x="592.5" y="350" type="curve" smooth="yes"/>
      <point x="592.5" y="463.5"/>
      <point x="527.5" y="541"/>
      <point x="415" y="541" type="curve" smooth="yes"/>
      <point x="307" y="541"/>
      <point x="238" y="463.5"/>
    </contour>
    <contour>
      <point x="32" y="350" type="curve" smooth="yes"/>
      <point x="32" y="570"/>
      <point x="198.5" y="718"/>
      <point x="415" y="718" type="curve" smooth="yes"/>
      <point x="635" y="718"/>
      <point x="799" y="570"/>
      <point x="799" y="350" type="curve" smooth="yes"/>
      <point x="799" y="130"/>
      <point x="639.5" y="-26"/>
      <point x="415" y="-26" type="curve" smooth="yes"/>
      <point x="190.5" y="-26"/>
      <point x="32" y="130"/>
    </contour>
    <contour>
      <point x="445.5" y="868" type="curve" smooth="yes"/>
      <point x="445.5" y="921.5"/>
      <point x="489" y="958"/>
      <point x="543.5" y="958" type="curve" smooth="yes"/>
      <point x="598" y="958"/>
      <point x="641.5" y="921.5"/>
      <point x="641.5" y="868" type="curve" smooth="yes"/>
      <point x="641.5" y="814.5"/>
      <point x="598" y="778"/>
      <point x="543.5" y="778" type="curve" smooth="yes"/>
      <point x="489" y="778"/>
      <point x="445.5" y="814.5"/>
    </contour>
    <contour>
      <point x="188.5" y="868" type="curve" smooth="yes"/>
      <point x="188.5" y="921.5"/>
      <point x="232" y="958"/>
      <point x="286.5" y="958" type="curve" smooth="yes"/>
      <point x="341" y="958"/>
      <point x="384.5" y="921.5"/>
      <point x="384.5" y="868" type="curve" smooth="yes"/>
      <point x="384.5" y="814.5"/>
      <point x="341" y="778"/>
      <point x="286.5" y="778" type="curve" smooth="yes"/>
      <point x="232" y="778"/>
      <point x="188.5" y="814.5"/>
    </contour>
  </outline>
</glyph>
<glyph name="multiply" format="1">
  <advance width="596"/>
  <unicode hex="00D7"/>
  <outline>
    <contour>
      <point x="145.5" y="-2.5" type="line"/>
      <point x="40.5" y="102.5" type="line"/>
      <point x="197.5" y="255" type="line"/>
      <point x="40.5" y="407.5" type="line"/>
      <point x="145.5" y="512.5" type="line"/>
      <point x="298" y="355.5" type="line"/>
      <point x="450.5" y="512.5" type="line"/>
      <point x="555.5" y="407.5" type="line"/>
      <point x="398.5" y="255" type="line"/>
      <point x="555.5" y="102.5" type="line"/>
      <point x="450.5" y="-2.5" type="line"/>
      <point x="298" y="154.5" type="line"/>
    </contour>
  </outline>
</glyph>
<glyph name="Oslash" format="1">
  <advance width="790"/>
  <unicode hex="00D8"/>
  <outline>
    <contour>
      <point x="238" y="350" type="curve" smooth="yes"/>
      <point x="238" y="232.5"/>
      <point x="307" y="159"/>
      <point x="415" y="159" type="curve" smooth="yes"/>
      <point x="523" y="159"/>
      <point x="592.5" y="232.5"/>
      <point x="592.5" y="350" type="curve" smooth="yes"/>
      <point x="592.5" y="467.5"/>
      <point x="523" y="541"/>
      <point x="415" y="541" type="curve" smooth="yes"/>
      <point x="307" y="541"/>
      <point x="238" y="467.5"/>
    </contour>
    <contour>
      <point x="32" y="350" type="curve" smooth="yes"/>
      <point x="32" y="570"/>
      <point x="195" y="718"/>
      <point x="415" y="718" type="curve" smooth="yes"/>
      <point x="635" y="718"/>
      <point x="799" y="570"/>
      <point x="799" y="350" type="curve" smooth="yes"/>
      <point x="799" y="130"/>
      <point x="635" y="-26"/>
      <point x="415" y="-26" type="curve" smooth="yes"/>
      <point x="195" y="-26"/>
      <point x="32" y="130"/>
    </contour>
    <contour>
      <point x="700.5" y="758" type="line"/>
      <point x="775.5" y="702" type="line"/>
      <point x="126.5" y="-58" type="line"/>
      <point x="52.5" y="-2" type="line"/>
    </contour>
  </outline>
</glyph>
<glyph name="Uacute" format="1">
  <advance width="723"/>
  <unicode hex="00DA"/>
  <outline>
    <contour>
      <point x="66.5" y="700" type="line"/>
      <point x="261.5" y="700" type="line"/>
      <point x="261.5" y="246" type="line" smooth="yes"/>
      <point x="261.5" y="182.5"/>
      <point x="294" y="139"/>
      <point x="361.5" y="139" type="curve" smooth="yes"/>
      <point x="429" y="139"/>
      <point x="462" y="182.5"/>
      <point x="462" y="246" type="curve" smooth="yes"/>
      <point x="462" y="700" type="line"/>
      <point x="656.5" y="700" type="line"/>
      <point x="656.5" y="230" type="line" smooth="yes"/>
      <point x="656.5" y="42.5"/>
      <point x="523" y="-34.5"/>
      <point x="361.5" y="-34.5" type="curve" smooth="yes"/>
      <point x="200" y="-34.5"/>
      <point x="66.5" y="42.5"/>
      <point x="66.5" y="230" type="curve" smooth="yes"/>
    </contour>
    <contour>
      <point x="532.5" y="928" type="line"/>
      <point x="352.5" y="778" type="line"/>
      <point x="254.5" y="824.5" type="line"/>
      <point x="404.5" y="984.5" type="line"/>
    </contour>
  </outline>
</glyph>
<glyph name="Ucircumflex" format="1">
  <advance width="723"/>
  <unicode hex="00DB"/>
  <outline>
    <contour>
      <point x="66.5" y="700" type="line"/>
      <point x="261.5" y="700" type="line"/>
      <point x="261.5" y="246" type="line" smooth="yes"/>
      <point x="261.5" y="182.5"/>
      <point x="294" y="139"/>
      <point x="361.5" y="139" type="curve" smooth="yes"/>
      <point x="429" y="139"/>
      <point x="462" y="182.5"/>
      <point x="462" y="246" type="curve" smooth="yes"/>
      <point x="462" y="700" type="line"/>
      <point x="656.5" y="700" type="line"/>
      <point x="656.5" y="230" type="line" smooth="yes"/>
      <point x="656.5" y="42.5"/>
      <point x="523" y="-34.5"/>
      <point x="361.5" y="-34.5" type="curve" smooth="yes"/>
      <point x="200" y="-34.5"/>
      <point x="66.5" y="42.5"/>
      <point x="66.5" y="230" type="curve" smooth="yes"/>
    </contour>
    <contour>
      <point x="361.5" y="861" type="line"/>
      <point x="276.5" y="778" type="line"/>
      <point x="153" y="859" type="line"/>
      <point x="361.5" y="999" type="line"/>
      <point x="570.5" y="859" type="line"/>
      <point x="447.5" y="778" type="line"/>
    </contour>
  </outline>
</glyph>
<glyph name="Udieresis" format="1">
  <advance width="723"/>
  <unicode hex="00DC"/>
  <outline>
    <contour>
      <point x="66.5" y="700" type="line"/>
      <point x="261.5" y="700" type="line"/>
      <point x="261.5" y="246" type="line" smooth="yes"/>
      <point x="261.5" y="182.5"/>
      <point x="294" y="139"/>
      <point x="361.5" y="139" type="curve" smooth="yes"/>
      <point x="429" y="139"/>
      <point x="462" y="182.5"/>
      <point x="462" y="246" type="curve" smooth="yes"/>
      <point x="462" y="700" type="line"/>
      <point x="656.5" y="700" type="line"/>
      <point x="656.5" y="230" type="line" smooth="yes"/>
      <point x="656.5" y="42.5"/>
      <point x="523" y="-34.5"/>
      <point x="361.5" y="-34.5" type="curve" smooth="yes"/>
      <point x="200" y="-34.5"/>
      <point x="66.5" y="42.5"/>
      <point x="66.5" y="230" type="curve" smooth="yes"/>
    </contour>
    <contour>
      <point x="417" y="868" type="curve" smooth="yes"/>
      <point x="417" y="921.5"/>
      <point x="460.5" y="958"/>
      <point x="515" y="958" type="curve" smooth="yes"/>
      <point x="569.5" y="958"/>
      <point x="613" y="921.5"/>
      <point x="613" y="868" type="curve" smooth="yes"/>
      <point x="613" y="814.5"/>
      <point x="569.5" y="778"/>
      <point x="515" y="778" type="curve" smooth="yes"/>
      <point x="460.5" y="778"/>
      <point x="417" y="814.5"/>
    </contour>
    <contour>
      <point x="110" y="868" type="curve" smooth="yes"/>
      <point x="110" y="921.5"/>
      <point x="153.5" y="958"/>
      <point x="208" y="958" type="curve" smooth="yes"/>
      <point x="262.5" y="958"/>
      <point x="306" y="921.5"/>
      <point x="306" y="868" type="curve" smooth="yes"/>
      <point x="306" y="814.5"/>
      <point x="262.5" y="778"/>
      <point x="208" y="778" type="curve" smooth="yes"/>
      <point x="153.5" y="778"/>
      <point x="110" y="814.5"/>
    </contour>
  </outline>
</glyph>
<glyph name="Yacute" format="1">
  <advance width="690"/>
  <unicode hex="00DD"/>
  <outline>
    <contour>
      <point x="246" y="360" type="line"/>
      <point x="444.5" y="360" type="line"/>
      <point x="444.5" y="0" type="line"/>
      <point x="246" y="0" type="line"/>
    </contour>
    <contour>
      <point x="468" y="700" type="line"/>
      <point x="693.5" y="700" type="line"/>
      <point x="345" y="111" type="line"/>
      <point x="-3.5" y="700" type="line"/>
      <point x="222" y="700" type="line"/>
      <point x="345" y="455.5" type="line"/>
    </contour>
    <contour>
      <point x="515.5" y="928" type="line"/>
      <point x="335.5" y="778" type="line"/>
      <point x="238" y="824.5" type="line"/>
      <point x="388" y="984.5" type="line"/>
    </contour>
  </outline>
</glyph>
<glyph name="Thorn" format="1">
  <advance width="631"/>
  <unicode hex="00DE"/>
  <outline>
    <contour>
      <point x="322.5" y="124" type="curve"/>
      <point x="322.5" y="272.5" type="line"/>
      <point x="395.5" y="272.5"/>
      <point x="435" y="292.5"/>
      <point x="435" y="354" type="curve" smooth="yes"/>
      <point x="435" y="415.5"/>
      <point x="395.5" y="435.5"/>
      <point x="322.5" y="435.5" type="curve"/>
      <point x="322.5" y="584.5" type="line"/>
      <point x="514" y="584.5"/>
      <point x="605.5" y="499.5"/>
      <point x="605.5" y="354" type="curve" smooth="yes"/>
      <point x="605.5" y="208.5"/>
      <point x="514" y="124"/>
    </contour>
    <contour>
      <point x="188" y="124" type="line"/>
      <point x="188" y="272.5" type="line"/>
      <point x="322.5" y="272.5" type="line"/>
      <point x="322.5" y="124" type="line"/>
    </contour>
    <contour>
      <point x="188" y="435.5" type="line"/>
      <point x="188" y="584.5" type="line"/>
      <point x="322.5" y="584.5" type="line"/>
      <point x="322.5" y="435.5" type="line"/>
    </contour>
    <contour>
      <point x="80" y="700" type="line"/>
      <point x="246.5" y="700" type="line"/>
      <point x="246.5" y="0" type="line"/>
      <point x="80" y="0" type="line"/>
    </contour>
  </outline>
</glyph>
<glyph name="germandbls" format="1">
  <advance width="598"/>
  <unicode hex="00DF"/>
  <outline>
    <contour>
      <point x="47.5" y="606" type="line"/>
      <point x="212.5" y="581.5" type="line"/>
      <point x="212.5" y="0" type="line"/>
      <point x="47.5" y="0" type="line"/>
    </contour>
    <contour>
      <point x="272.5" y="408.5" type="curve"/>
      <point x="272.5" y="512.5" type="line"/>
      <point x="350" y="512.5"/>
      <point x="367.5" y="540"/>
      <point x="367.5" y="580" type="curve" smooth="yes"/>
      <point x="367.5" y="621.5"/>
      <point x="338.5" y="641.5"/>
      <point x="289" y="641.5" type="curve" smooth="yes"/>
      <point x="237" y="641.5"/>
      <point x="212.5" y="617"/>
      <point x="212.5" y="581.5" type="curve"/>
      <point x="47.5" y="606" type="line"/>
      <point x="47.5" y="731.5"/>
      <point x="159.5" y="798"/>
      <point x="289" y="798" type="curve" smooth="yes"/>
      <point x="448.5" y="798"/>
      <point x="533.5" y="715"/>
      <point x="533.5" y="606" type="curve" smooth="yes"/>
      <point x="533.5" y="487"/>
      <point x="444" y="408.5"/>
    </contour>
    <contour>
      <point x="284.5" y="146.5" type="line"/>
      <point x="364.5" y="146.5"/>
      <point x="407.5" y="194"/>
      <point x="407.5" y="259.5" type="curve" smooth="yes"/>
      <point x="407.5" y="313"/>
      <point x="382.5" y="356.5"/>
      <point x="272.5" y="356.5" type="curve"/>
      <point x="272.5" y="476" type="line"/>
      <point x="444" y="476"/>
      <point x="581.5" y="380.5"/>
      <point x="581.5" y="225" type="curve" smooth="yes"/>
      <point x="581.5" y="69.5"/>
      <point x="468" y="-10"/>
      <point x="284.5" y="-10" type="curve"/>
    </contour>
  </outline>
</glyph>
<glyph name="agrave" format="1">
  <advance width="562"/>
  <unicode hex="00E0"/>
  <outline>
    <contour>
      <point x="196" y="138.5" type="curve" smooth="yes"/>
      <point x="196" y="109.5"/>
      <point x="220" y="97.5"/>
      <point x="252.5" y="97.5" type="curve" smooth="yes"/>
      <point x="300" y="97.5"/>
      <point x="345" y="118"/>
      <point x="345" y="188" type="curve"/>
      <point x="361" y="130" type="line"/>
      <point x="361" y="41"/>
      <point x="287" y="-10"/>
      <point x="192" y="-10" type="curve" smooth="yes"/>
      <point x="88.5" y="-10"/>
      <point x="22" y="41"/>
      <point x="22" y="129" type="curve" smooth="yes"/>
      <point x="22" y="219.5"/>
      <point x="102.5" y="277"/>
      <point x="222" y="277" type="curve" smooth="yes"/>
      <point x="285.5" y="277"/>
      <point x="356" y="254.5"/>
      <point x="378" y="231.5" type="curve"/>
      <point x="378" y="152.5" type="line"/>
      <point x="347" y="176.5"/>
      <point x="316.5" y="188.5"/>
      <point x="266.5" y="188.5" type="curve" smooth="yes"/>
      <point x="223.5" y="188.5"/>
      <point x="196" y="168.5"/>
    </contour>
    <contour>
      <point x="119.5" y="308" type="curve"/>
      <point x="64" y="422" type="line"/>
      <point x="122.5" y="447"/>
      <point x="201.5" y="474"/>
      <point x="284.5" y="474" type="curve" smooth="yes"/>
      <point x="414" y="474"/>
      <point x="510" y="419.5"/>
      <point x="510" y="322" type="curve" smooth="yes"/>
      <point x="510" y="0" type="line"/>
      <point x="345" y="0" type="line"/>
      <point x="345" y="283" type="line" smooth="yes"/>
      <point x="345" y="320"/>
      <point x="318.5" y="345.5"/>
      <point x="268.5" y="345.5" type="curve" smooth="yes"/>
      <point x="202.5" y="345.5"/>
      <point x="141.5" y="320"/>
    </contour>
    <contour>
      <point x="108.5" y="684" type="line"/>
      <point x="236.5" y="740.5" type="line"/>
      <point x="386.5" y="580.5" type="line"/>
      <point x="288.5" y="534" type="line"/>
    </contour>
  </outline>
</glyph>
<glyph name="atilde" format="1">
  <advance width="562"/>
  <unicode hex="00E3"/>
  <outline>
    <contour>
      <point x="196" y="138.5" type="curve" smooth="yes"/>
      <point x="196" y="109.5"/>
      <point x="220" y="97.5"/>
      <point x="252.5" y="97.5" type="curve" smooth="yes"/>
      <point x="300" y="97.5"/>
      <point x="345" y="118"/>
      <point x="345" y="188" type="curve"/>
      <point x="361" y="130" type="line"/>
      <point x="361" y="41"/>
      <point x="287" y="-10"/>
      <point x="192" y="-10" type="curve" smooth="yes"/>
      <point x="88.5" y="-10"/>
      <point x="22" y="41"/>
      <point x="22" y="129" type="curve" smooth="yes"/>
      <point x="22" y="219.5"/>
      <point x="102.5" y="277"/>
      <point x="222" y="277" type="curve" smooth="yes"/>
      <point x="285.5" y="277"/>
      <point x="356" y="254.5"/>
      <point x="378" y="231.5" type="curve"/>
      <point x="378" y="152.5" type="line"/>
      <point x="347" y="176.5"/>
      <point x="316.5" y="188.5"/>
      <point x="266.5" y="188.5" type="curve" smooth="yes"/>
      <point x="223.5" y="188.5"/>
      <point x="196" y="168.5"/>
    </contour>
    <contour>
      <point x="119.5" y="308" type="curve"/>
      <point x="64" y="422" type="line"/>
      <point x="122.5" y="447"/>
      <point x="201.5" y="474"/>
      <point x="284.5" y="474" type="curve" smooth="yes"/>
      <point x="414" y="474"/>
      <point x="510" y="419.5"/>
      <point x="510" y="322" type="curve" smooth="yes"/>
      <point x="510" y="0" type="line"/>
      <point x="345" y="0" type="line"/>
      <point x="345" y="283" type="line" smooth="yes"/>
      <point x="345" y="320"/>
      <point x="318.5" y="345.5"/>
      <point x="268.5" y="345.5" type="curve" smooth="yes"/>
      <point x="202.5" y="345.5"/>
      <point x="141.5" y="320"/>
    </contour>
    <contour>
      <point x="79" y="608.5" type="line"/>
      <point x="89" y="657.5"/>
      <point x="134" y="707"/>
      <point x="203.5" y="707" type="curve" smooth="yes"/>
      <point x="270" y="707"/>
      <point x="286.5" y="653.5"/>
      <point x="343.5" y="653.5" type="curve" smooth="yes"/>
      <point x="371" y="653.5"/>
      <point x="392" y="675.5"/>
      <point x="412" y="707.5" type="curve"/>
      <point x="490" y="624" type="line"/>
      <point x="474" y="587"/>
      <point x="413.5" y="534.5"/>
      <point x="347.5" y="534.5" type="curve" smooth="yes"/>
      <point x="292.5" y="534.5"/>
      <point x="253" y="590"/>
      <point x="202" y="590" type="curve" smooth="yes"/>
      <point x="165" y="590"/>
      <point x="156.5" y="554"/>
      <point x="156.5" y="539" type="curve"/>
    </contour>
  </outline>
</glyph>
<glyph name="adieresis" format="1">
  <advance width="562"/>
  <unicode hex="00E4"/>
  <outline>
    <contour>
      <point x="196" y="138.5" type="curve" smooth="yes"/>
      <point x="196" y="109.5"/>
      <point x="220" y="97.5"/>
      <point x="252.5" y="97.5" type="curve" smooth="yes"/>
      <point x="300" y="97.5"/>
      <point x="345" y="118"/>
      <point x="345" y="188" type="curve"/>
      <point x="361" y="130" type="line"/>
      <point x="361" y="41"/>
      <point x="287" y="-10"/>
      <point x="192" y="-10" type="curve" smooth="yes"/>
      <point x="88.5" y="-10"/>
      <point x="22" y="41"/>
      <point x="22" y="129" type="curve" smooth="yes"/>
      <point x="22" y="219.5"/>
      <point x="102.5" y="277"/>
      <point x="222" y="277" type="curve" smooth="yes"/>
      <point x="285.5" y="277"/>
      <point x="356" y="254.5"/>
      <point x="378" y="231.5" type="curve"/>
      <point x="378" y="152.5" type="line"/>
      <point x="347" y="176.5"/>
      <point x="316.5" y="188.5"/>
      <point x="266.5" y="188.5" type="curve" smooth="yes"/>
      <point x="223.5" y="188.5"/>
      <point x="196" y="168.5"/>
    </contour>
    <contour>
      <point x="119.5" y="308" type="curve"/>
      <point x="64" y="422" type="line"/>
      <point x="122.5" y="447"/>
      <point x="201.5" y="474"/>
      <point x="284.5" y="474" type="curve" smooth="yes"/>
      <point x="414" y="474"/>
      <point x="510" y="419.5"/>
      <point x="510" y="322" type="curve" smooth="yes"/>
      <point x="510" y="0" type="line"/>
      <point x="345" y="0" type="line"/>
      <point x="345" y="283" type="line" smooth="yes"/>
      <point x="345" y="320"/>
      <point x="318.5" y="345.5"/>
      <point x="268.5" y="345.5" type="curve" smooth="yes"/>
      <point x="202.5" y="345.5"/>
      <point x="141.5" y="320"/>
    </contour>
    <contour>
      <point x="315" y="624" type="curve" smooth="yes"/>
      <point x="315" y="677.5"/>
      <point x="358.5" y="714"/>
      <point x="413" y="714" type="curve" smooth="yes"/>
      <point x="467.5" y="714"/>
      <point x="511" y="677.5"/>
      <point x="511" y="624" type="curve" smooth="yes"/>
      <point x="511" y="570.5"/>
      <point x="467.5" y="534"/>
      <point x="413" y="534" type="curve" smooth="yes"/>
      <point x="358.5" y="534"/>
      <point x="315" y="570.5"/>
    </contour>
    <contour>
      <point x="58" y="624" type="curve" smooth="yes"/>
      <point x="58" y="677.5"/>
      <point x="101.5" y="714"/>
      <point x="156" y="714" type="curve" smooth="yes"/>
      <point x="210.5" y="714"/>
      <point x="254" y="677.5"/>
      <point x="254" y="624" type="curve" smooth="yes"/>
      <point x="254" y="570.5"/>
      <point x="210.5" y="534"/>
      <point x="156" y="534" type="curve" smooth="yes"/>
      <point x="101.5" y="534"/>
      <point x="58" y="570.5"/>
    </contour>
  </outline>
</glyph>
<glyph name="aring" format="1">
  <advance width="562"/>
  <unicode hex="00E5"/>
  <outline>
    <contour>
      <point x="196" y="138.5" type="curve" smooth="yes"/>
      <point x="196" y="109.5"/>
      <point x="220" y="97.5"/>
      <point x="252.5" y="97.5" type="curve" smooth="yes"/>
      <point x="300" y="97.5"/>
      <point x="345" y="118"/>
      <point x="345" y="188" type="curve"/>
      <point x="361" y="130" type="line"/>
      <point x="361" y="41"/>
      <point x="287" y="-10"/>
      <point x="192" y="-10" type="curve" smooth="yes"/>
      <point x="88.5" y="-10"/>
      <point x="22" y="41"/>
      <point x="22" y="129" type="curve" smooth="yes"/>
      <point x="22" y="219.5"/>
      <point x="102.5" y="277"/>
      <point x="222" y="277" type="curve" smooth="yes"/>
      <point x="285.5" y="277"/>
      <point x="356" y="254.5"/>
      <point x="378" y="231.5" type="curve"/>
      <point x="378" y="152.5" type="line"/>
      <point x="347" y="176.5"/>
      <point x="316.5" y="188.5"/>
      <point x="266.5" y="188.5" type="curve" smooth="yes"/>
      <point x="223.5" y="188.5"/>
      <point x="196" y="168.5"/>
    </contour>
    <contour>
      <point x="119.5" y="308" type="curve"/>
      <point x="64" y="422" type="line"/>
      <point x="122.5" y="447"/>
      <point x="201.5" y="474"/>
      <point x="284.5" y="474" type="curve" smooth="yes"/>
      <point x="414" y="474"/>
      <point x="510" y="419.5"/>
      <point x="510" y="322" type="curve" smooth="yes"/>
      <point x="510" y="0" type="line"/>
      <point x="345" y="0" type="line"/>
      <point x="345" y="283" type="line" smooth="yes"/>
      <point x="345" y="320"/>
      <point x="318.5" y="345.5"/>
      <point x="268.5" y="345.5" type="curve" smooth="yes"/>
      <point x="202.5" y="345.5"/>
      <point x="141.5" y="320"/>
    </contour>
    <contour>
      <point x="152.5" y="654.5" type="curve" smooth="yes"/>
      <point x="152.5" y="726"/>
      <point x="209" y="774.5"/>
      <point x="284" y="774.5" type="curve" smooth="yes"/>
      <point x="359" y="774.5"/>
      <point x="416.5" y="726"/>
      <point x="416.5" y="654.5" type="curve" smooth="yes"/>
      <point x="416.5" y="583"/>
      <point x="359" y="534"/>
      <point x="284" y="534" type="curve" smooth="yes"/>
      <point x="209" y="534"/>
      <point x="152.5" y="583"/>
    </contour>
    <contour>
      <point x="239.5" y="654.5" type="curve" smooth="yes"/>
      <point x="239.5" y="625.5"/>
      <point x="259" y="609"/>
      <point x="284" y="609" type="curve" smooth="yes"/>
      <point x="309" y="609"/>
      <point x="329" y="625.5"/>
      <point x="329" y="654.5" type="curve" smooth="yes"/>
      <point x="329" y="683.5"/>
      <point x="309" y="700.5"/>
      <point x="284" y="700.5" type="curve" smooth="yes"/>
      <point x="259" y="700.5"/>
      <point x="239.5" y="683.5"/>
    </contour>
  </outline>
</glyph>
<glyph name="ae" format="1">
  <advance width="917"/>
  <unicode hex="00E6"/>
  <outline>
    <contour>
      <point x="196" y="138.5" type="curve" smooth="yes"/>
      <point x="196" y="109.5"/>
      <point x="220" y="97.5"/>
      <point x="252.5" y="97.5" type="curve" smooth="yes"/>
      <point x="300" y="97.5"/>
      <point x="345" y="118"/>
      <point x="345" y="188" type="curve"/>
      <point x="423.5" y="130" type="line"/>
      <point x="423.5" y="41"/>
      <point x="356" y="-10"/>
      <point x="220.5" y="-10" type="curve" smooth="yes"/>
      <point x="97" y="-10"/>
      <point x="22" y="41"/>
      <point x="22" y="129" type="curve" smooth="yes"/>
      <point x="22" y="219.5"/>
      <point x="102.5" y="277"/>
      <point x="222" y="277" type="curve" smooth="yes"/>
      <point x="285.5" y="277"/>
      <point x="356" y="254.5"/>
      <point x="378" y="231.5" type="curve"/>
      <point x="378" y="152.5" type="line"/>
      <point x="347" y="176.5"/>
      <point x="316.5" y="188.5"/>
      <point x="266.5" y="188.5" type="curve" smooth="yes"/>
      <point x="223.5" y="188.5"/>
      <point x="196" y="168.5"/>
    </contour>
    <contour>
      <point x="119.5" y="308" type="curve"/>
      <point x="64" y="422" type="line"/>
      <point x="122.5" y="447"/>
      <point x="201.5" y="474"/>
      <point x="284.5" y="474" type="curve" smooth="yes"/>
      <point x="414" y="474"/>
      <point x="450" y="419.5"/>
      <point x="450" y="322" type="curve" smooth="yes"/>
      <point x="450" y="130" type="line"/>
      <point x="345" y="130" type="line"/>
      <point x="345" y="281" type="line" smooth="yes"/>
      <point x="345" y="318"/>
      <point x="318.5" y="345.5"/>
      <point x="268.5" y="345.5" type="curve" smooth="yes"/>
      <point x="202.5" y="345.5"/>
      <point x="141.5" y="320"/>
    </contour>
    <contour>
      <point x="422" y="194" type="line"/>
      <point x="422" y="283" type="line"/>
      <point x="866.5" y="283" type="line"/>
      <point x="881.5" y="194" type="line"/>
    </contour>
    <contour>
      <point x="701" y="242" type="line" smooth="yes"/>
      <point x="701" y="320"/>
      <point x="679" y="359.5"/>
      <point x="621.5" y="359.5" type="curve" smooth="yes"/>
      <point x="566" y="359.5"/>
      <point x="533.5" y="322"/>
      <point x="533.5" y="252" type="curve"/>
      <point x="531.5" y="230" type="line"/>
      <point x="531.5" y="140"/>
      <point x="576.5" y="110"/>
      <point x="626" y="110" type="curve" smooth="yes"/>
      <point x="676.5" y="110"/>
      <point x="712" y="127.5"/>
      <point x="731" y="161.5" type="curve"/>
      <point x="887.5" y="131.5" type="line"/>
      <point x="841.5" y="45.5"/>
      <point x="767.5" y="-10"/>
      <point x="632" y="-10" type="curve" smooth="yes"/>
      <point x="450.5" y="-10"/>
      <point x="400" y="91"/>
      <point x="400" y="230" type="curve" smooth="yes"/>
      <point x="400" y="247"/>
      <point x="402.5" y="263"/>
      <point x="405.5" y="279" type="curve" smooth="yes"/>
      <point x="424.5" y="392"/>
      <point x="508.5" y="470"/>
      <point x="652" y="470" type="curve" smooth="yes"/>
      <point x="794.5" y="470"/>
      <point x="883.5" y="383"/>
      <point x="883.5" y="238" type="curve" smooth="yes"/>
      <point x="883.5" y="230"/>
      <point x="883.5" y="212.5"/>
      <point x="881.5" y="194" type="curve"/>
      <point x="701" y="214" type="line"/>
    </contour>
  </outline>
</glyph>
<glyph name="ccedilla" format="1">
  <advance width="498"/>
  <unicode hex="00E7"/>
  <outline>
    <contour>
      <point x="208.5" y="230" type="curve" smooth="yes"/>
      <point x="208.5" y="162.5"/>
      <point x="259" y="124"/>
      <point x="320.5" y="124" type="curve" smooth="yes"/>
      <point x="370" y="124"/>
      <point x="419" y="144.5"/>
      <point x="448.5" y="188" type="curve"/>
      <point x="448.5" y="26.5" type="line"/>
      <point x="416.5" y="4.5"/>
      <point x="376" y="-10"/>
      <point x="304.5" y="-10" type="curve" smooth="yes"/>
      <point x="145" y="-10"/>
      <point x="30" y="82.5"/>
      <point x="30" y="230" type="curve" smooth="yes"/>
      <point x="30" y="377.5"/>
      <point x="145" y="470"/>
      <point x="304.5" y="470" type="curve" smooth="yes"/>
      <point x="376" y="470"/>
      <point x="416.5" y="453.5"/>
      <point x="448.5" y="435.5" type="curve"/>
      <point x="448.5" y="273" type="line"/>
      <point x="419" y="316.5"/>
      <point x="362" y="336"/>
      <point x="320.5" y="336" type="curve" smooth="yes"/>
      <point x="259" y="336"/>
      <point x="208.5" y="289.5"/>
    </contour>
    <contour>
      <point x="217" y="93.5" type="line"/>
      <point x="342" y="89" type="line"/>
      <point x="224.5" y="-67.5" type="line"/>
      <point x="128.5" y="-109.5" type="line"/>
    </contour>
    <contour>
      <point x="391" y="-136" type="curve"/>
      <point x="282" y="-125" type="line"/>
      <point x="282" y="-98"/>
      <point x="248.5" y="-94"/>
      <point x="218.5" y="-94" type="curve" smooth="yes"/>
      <point x="208.5" y="-94"/>
      <point x="168" y="-95"/>
      <point x="128.5" y="-109.5" type="curve"/>
      <point x="200.5" y="-64" type="line"/>
      <point x="228" y="-36.5"/>
      <point x="256.5" y="-31.5"/>
      <point x="294" y="-31.5" type="curve" smooth="yes"/>
      <point x="336" y="-31.5"/>
      <point x="391" y="-65"/>
    </contour>
    <contour>
      <point x="391" y="-136" type="line"/>
      <point x="391" y="-211.5"/>
      <point x="318" y="-250"/>
      <point x="252.5" y="-250" type="curve" smooth="yes"/>
      <point x="191" y="-250"/>
      <point x="144.5" y="-240.5"/>
      <point x="92" y="-210" type="curve"/>
      <point x="141.5" y="-133" type="line"/>
      <point x="169" y="-152"/>
      <point x="208.5" y="-158.5"/>
      <point x="226.5" y="-158.5" type="curve" smooth="yes"/>
      <point x="260.5" y="-158.5"/>
      <point x="282" y="-149"/>
      <point x="282" y="-125" type="curve"/>
    </contour>
  </outline>
</glyph>
<glyph name="edieresis" format="1">
  <advance width="586"/>
  <unicode hex="00EB"/>
  <outline>
    <contour>
      <point x="96" y="194" type="line"/>
      <point x="96" y="285.5" type="line"/>
      <point x="533" y="285.5" type="line"/>
      <point x="548" y="194" type="line"/>
    </contour>
    <contour>
      <point x="380" y="242" type="line" smooth="yes"/>
      <point x="380" y="317"/>
      <point x="355.5" y="354.5"/>
      <point x="295.5" y="354.5" type="curve" smooth="yes"/>
      <point x="237.5" y="354.5"/>
      <point x="202.5" y="319"/>
      <point x="202.5" y="252" type="curve"/>
      <point x="200.5" y="230" type="line"/>
      <point x="200.5" y="145"/>
      <point x="250" y="112.5"/>
      <point x="304.5" y="112.5" type="curve" smooth="yes"/>
      <point x="350" y="112.5"/>
      <point x="380.5" y="128"/>
      <point x="397" y="161.5" type="curve"/>
      <point x="549" y="126.5" type="line"/>
      <point x="508" y="45.5"/>
      <point x="436.5" y="-10"/>
      <point x="306" y="-10" type="curve" smooth="yes"/>
      <point x="134.5" y="-10"/>
      <point x="33.5" y="91"/>
      <point x="33.5" y="230" type="curve" smooth="yes"/>
      <point x="33.5" y="247"/>
      <point x="35" y="264"/>
      <point x="38" y="280" type="curve" smooth="yes"/>
      <point x="57" y="393"/>
      <point x="150" y="470"/>
      <point x="299.5" y="470" type="curve" smooth="yes"/>
      <point x="455" y="470"/>
      <point x="550" y="383"/>
      <point x="550" y="238" type="curve" smooth="yes"/>
      <point x="550" y="230"/>
      <point x="550" y="212.5"/>
      <point x="548" y="194" type="curve"/>
      <point x="380" y="214" type="line"/>
    </contour>
    <contour>
      <point x="330" y="620.5" type="curve" smooth="yes"/>
      <point x="330" y="674"/>
      <point x="373.5" y="710.5"/>
      <point x="428" y="710.5" type="curve" smooth="yes"/>
      <point x="482.5" y="710.5"/>
      <point x="526" y="674"/>
      <point x="526" y="620.5" type="curve" smooth="yes"/>
      <point x="526" y="567"/>
      <point x="482.5" y="530.5"/>
      <point x="428" y="530.5" type="curve" smooth="yes"/>
      <point x="373.5" y="530.5"/>
      <point x="330" y="567"/>
    </contour>
    <contour>
      <point x="73" y="620.5" type="curve" smooth="yes"/>
      <point x="73" y="674"/>
      <point x="116.5" y="710.5"/>
      <point x="171" y="710.5" type="curve" smooth="yes"/>
      <point x="225.5" y="710.5"/>
      <point x="269" y="674"/>
      <point x="269" y="620.5" type="curve" smooth="yes"/>
      <point x="269" y="567"/>
      <point x="225.5" y="530.5"/>
      <point x="171" y="530.5" type="curve" smooth="yes"/>
      <point x="116.5" y="530.5"/>
      <point x="73" y="567"/>
    </contour>
  </outline>
</glyph>
<glyph name="igrave" format="1">
  <advance width="281"/>
  <unicode hex="00EC"/>
  <outline>
    <contour>
      <point x="56.5" y="460" type="line"/>
      <point x="223.5" y="460" type="line"/>
      <point x="223.5" y="0" type="line"/>
      <point x="56.5" y="0" type="line"/>
    </contour>
    <contour>
      <point x="-46" y="684.5" type="line"/>
      <point x="81.5" y="740.5" type="line"/>
      <point x="231.5" y="580.5" type="line"/>
      <point x="134" y="534.5" type="line"/>
    </contour>
  </outline>
</glyph>
<glyph name="iacute" format="1">
  <advance width="281"/>
  <unicode hex="00ED"/>
  <outline>
    <contour>
      <point x="56.5" y="460" type="line"/>
      <point x="223.5" y="460" type="line"/>
      <point x="223.5" y="0" type="line"/>
      <point x="56.5" y="0" type="line"/>
    </contour>
    <contour>
      <point x="316" y="684.5" type="line"/>
      <point x="136" y="534.5" type="line"/>
      <point x="38" y="580.5" type="line"/>
      <point x="188" y="740.5" type="line"/>
    </contour>
  </outline>
</glyph>
<glyph name="icircumflex" format="1">
  <advance width="281"/>
  <unicode hex="00EE"/>
  <outline>
    <contour>
      <point x="56.5" y="460" type="line"/>
      <point x="223.5" y="460" type="line"/>
      <point x="223.5" y="0" type="line"/>
      <point x="56.5" y="0" type="line"/>
    </contour>
    <contour>
      <point x="140" y="615.5" type="line"/>
      <point x="54" y="532.5" type="line"/>
      <point x="-69" y="613.5" type="line"/>
      <point x="140" y="753.5" type="line"/>
      <point x="348.5" y="613.5" type="line"/>
      <point x="225.5" y="532.5" type="line"/>
    </contour>
  </outline>
</glyph>
<glyph name="idieresis" format="1">
  <advance width="281"/>
  <unicode hex="00EF"/>
  <outline>
    <contour>
      <point x="56.5" y="460" type="line"/>
      <point x="223.5" y="460" type="line"/>
      <point x="223.5" y="0" type="line"/>
      <point x="56.5" y="0" type="line"/>
    </contour>
    <contour>
      <point x="170.5" y="620.5" type="curve" smooth="yes"/>
      <point x="170.5" y="674"/>
      <point x="214" y="710.5"/>
      <point x="268.5" y="710.5" type="curve" smooth="yes"/>
      <point x="323" y="710.5"/>
      <point x="366.5" y="674"/>
      <point x="366.5" y="620.5" type="curve" smooth="yes"/>
      <point x="366.5" y="567"/>
      <point x="323" y="530.5"/>
      <point x="268.5" y="530.5" type="curve" smooth="yes"/>
      <point x="214" y="530.5"/>
      <point x="170.5" y="567"/>
    </contour>
    <contour>
      <point x="-86.5" y="620.5" type="curve" smooth="yes"/>
      <point x="-86.5" y="674"/>
      <point x="-43" y="710.5"/>
      <point x="11.5" y="710.5" type="curve" smooth="yes"/>
      <point x="66" y="710.5"/>
      <point x="109.5" y="674"/>
      <point x="109.5" y="620.5" type="curve" smooth="yes"/>
      <point x="109.5" y="567"/>
      <point x="66" y="530.5"/>
      <point x="11.5" y="530.5" type="curve" smooth="yes"/>
      <point x="-43" y="530.5"/>
      <point x="-86.5" y="567"/>
    </contour>
  </outline>
</glyph>
<glyph name="eth" format="1">
  <advance width="697"/>
  <unicode hex="00F0"/>
  <outline>
    <contour>
      <point x="454.5" y="250.5" type="curve" smooth="yes"/>
      <point x="454.5" y="314"/>
      <point x="409" y="356"/>
      <point x="349" y="356" type="curve" smooth="yes"/>
      <point x="289" y="356"/>
      <point x="243.5" y="314"/>
      <point x="243.5" y="250.5" type="curve" smooth="yes"/>
      <point x="243.5" y="187"/>
      <point x="289" y="146.5"/>
      <point x="349" y="146.5" type="curve" smooth="yes"/>
      <point x="409" y="146.5"/>
      <point x="454.5" y="187"/>
    </contour>
    <contour>
      <point x="363.5" y="696" type="line"/>
      <point x="555" y="460" type="line" smooth="yes"/>
      <point x="606.5" y="398"/>
      <point x="648" y="332"/>
      <point x="648" y="250.5" type="curve" smooth="yes"/>
      <point x="648" y="70"/>
      <point x="512.5" y="-18"/>
      <point x="349" y="-18" type="curve" smooth="yes"/>
      <point x="185.5" y="-18"/>
      <point x="50" y="70"/>
      <point x="50" y="250.5" type="curve" smooth="yes"/>
      <point x="50" y="396"/>
      <point x="167.5" y="478.5"/>
      <point x="269" y="478.5" type="curve" smooth="yes"/>
      <point x="320.5" y="478.5"/>
      <point x="348.5" y="470"/>
      <point x="389.5" y="433" type="curve"/>
      <point x="345.5" y="454" type="line"/>
      <point x="117" y="696" type="line"/>
    </contour>
    <contour>
      <point x="130.5" y="520" type="line"/>
      <point x="130.5" y="601.5" type="line"/>
      <point x="609.5" y="601.5" type="line"/>
      <point x="609.5" y="520" type="line"/>
    </contour>
  </outline>
</glyph>
<glyph name="ntilde" format="1">
  <advance width="590"/>
  <unicode hex="00F1"/>
  <outline>
    <contour>
      <point x="228.5" y="460" type="line"/>
      <point x="228.5" y="0" type="line"/>
      <point x="55" y="0" type="line"/>
      <point x="55" y="460" type="line"/>
    </contour>
    <contour>
      <point x="354" y="280" type="line" smooth="yes"/>
      <point x="354" y="327.5"/>
      <point x="341.5" y="355"/>
      <point x="296.5" y="355" type="curve" smooth="yes"/>
      <point x="255" y="355"/>
      <point x="228.5" y="330"/>
      <point x="228.5" y="280" type="curve"/>
      <point x="200.5" y="272" type="line"/>
      <point x="200.5" y="381"/>
      <point x="250" y="470.5"/>
      <point x="369.5" y="470.5" type="curve" smooth="yes"/>
      <point x="489" y="470.5"/>
      <point x="535.5" y="408.5"/>
      <point x="535.5" y="298" type="curve" smooth="yes"/>
      <point x="535.5" y="0" type="line"/>
      <point x="354" y="0" type="line"/>
    </contour>
    <contour>
      <point x="90" y="605" type="line"/>
      <point x="100" y="654"/>
      <point x="144" y="703.5"/>
      <point x="213.5" y="703.5" type="curve" smooth="yes"/>
      <point x="280" y="703.5"/>
      <point x="296.5" y="650"/>
      <point x="353.5" y="650" type="curve" smooth="yes"/>
      <point x="381" y="650"/>
      <point x="402.5" y="672.5"/>
      <point x="422.5" y="704.5" type="curve"/>
      <point x="501" y="621" type="line"/>
      <point x="485" y="584"/>
      <point x="424" y="531.5"/>
      <point x="358" y="531.5" type="curve" smooth="yes"/>
      <point x="303" y="531.5"/>
      <point x="264" y="587"/>
      <point x="213" y="587" type="curve" smooth="yes"/>
      <point x="176" y="587"/>
      <point x="166.5" y="550.5"/>
      <point x="166.5" y="535.5" type="curve"/>
    </contour>
  </outline>
</glyph>
<glyph name="ograve" format="1">
  <advance width="602"/>
  <unicode hex="00F2"/>
  <outline>
    <contour>
      <point x="31" y="230" type="curve" smooth="yes"/>
      <point x="31" y="377.5"/>
      <point x="146.5" y="470.5"/>
      <point x="301.5" y="470.5" type="curve" smooth="yes"/>
      <point x="456.5" y="470.5"/>
      <point x="572" y="377.5"/>
      <point x="572" y="230" type="curve" smooth="yes"/>
      <point x="572" y="82.5"/>
      <point x="456.5" y="-10"/>
      <point x="301.5" y="-10" type="curve" smooth="yes"/>
      <point x="146.5" y="-10"/>
      <point x="31" y="82.5"/>
    </contour>
    <contour>
      <point x="209.5" y="230" type="curve" smooth="yes"/>
      <point x="209.5" y="166.5"/>
      <point x="252" y="130"/>
      <point x="301.5" y="130" type="curve" smooth="yes"/>
      <point x="351" y="130"/>
      <point x="393.5" y="166.5"/>
      <point x="393.5" y="230" type="curve" smooth="yes"/>
      <point x="393.5" y="293.5"/>
      <point x="351" y="331"/>
      <point x="301.5" y="331" type="curve" smooth="yes"/>
      <point x="252" y="331"/>
      <point x="209.5" y="293.5"/>
    </contour>
    <contour>
      <point x="141.5" y="684.5" type="line"/>
      <point x="269" y="740.5" type="line"/>
      <point x="419" y="580.5" type="line"/>
      <point x="321.5" y="534.5" type="line"/>
    </contour>
  </outline>
</glyph>
<glyph name="ocircumflex" format="1">
  <advance width="602"/>
  <unicode hex="00F4"/>
  <outline>
    <contour>
      <point x="31" y="230" type="curve" smooth="yes"/>
      <point x="31" y="377.5"/>
      <point x="146.5" y="470.5"/>
      <point x="301.5" y="470.5" type="curve" smooth="yes"/>
      <point x="456.5" y="470.5"/>
      <point x="572" y="377.5"/>
      <point x="572" y="230" type="curve" smooth="yes"/>
      <point x="572" y="82.5"/>
      <point x="456.5" y="-10"/>
      <point x="301.5" y="-10" type="curve" smooth="yes"/>
      <point x="146.5" y="-10"/>
      <point x="31" y="82.5"/>
    </contour>
    <contour>
      <point x="209.5" y="230" type="curve" smooth="yes"/>
      <point x="209.5" y="166.5"/>
      <point x="252" y="130"/>
      <point x="301.5" y="130" type="curve" smooth="yes"/>
      <point x="351" y="130"/>
      <point x="393.5" y="166.5"/>
      <point x="393.5" y="230" type="curve" smooth="yes"/>
      <point x="393.5" y="293.5"/>
      <point x="351" y="331"/>
      <point x="301.5" y="331" type="curve" smooth="yes"/>
      <point x="252" y="331"/>
      <point x="209.5" y="293.5"/>
    </contour>
    <contour>
      <point x="301.5" y="617.5" type="line"/>
      <point x="216" y="534.5" type="line"/>
      <point x="93" y="615.5" type="line"/>
      <point x="301.5" y="755.5" type="line"/>
      <point x="510" y="615.5" type="line"/>
      <point x="387" y="534.5" type="line"/>
    </contour>
  </outline>
</glyph>
<glyph name="otilde" format="1">
  <advance width="602"/>
  <unicode hex="00F5"/>
  <outline>
    <contour>
      <point x="31" y="230" type="curve" smooth="yes"/>
      <point x="31" y="377.5"/>
      <point x="146.5" y="470.5"/>
      <point x="301.5" y="470.5" type="curve" smooth="yes"/>
      <point x="456.5" y="470.5"/>
      <point x="572" y="377.5"/>
      <point x="572" y="230" type="curve" smooth="yes"/>
      <point x="572" y="82.5"/>
      <point x="456.5" y="-10"/>
      <point x="301.5" y="-10" type="curve" smooth="yes"/>
      <point x="146.5" y="-10"/>
      <point x="31" y="82.5"/>
    </contour>
    <contour>
      <point x="209.5" y="230" type="curve" smooth="yes"/>
      <point x="209.5" y="166.5"/>
      <point x="252" y="130"/>
      <point x="301.5" y="130" type="curve" smooth="yes"/>
      <point x="351" y="130"/>
      <point x="393.5" y="166.5"/>
      <point x="393.5" y="230" type="curve" smooth="yes"/>
      <point x="393.5" y="293.5"/>
      <point x="351" y="331"/>
      <point x="301.5" y="331" type="curve" smooth="yes"/>
      <point x="252" y="331"/>
      <point x="209.5" y="293.5"/>
    </contour>
    <contour>
      <point x="95.5" y="605" type="line"/>
      <point x="105.5" y="654"/>
      <point x="150.5" y="703.5"/>
      <point x="220" y="703.5" type="curve" smooth="yes"/>
      <point x="286.5" y="703.5"/>
      <point x="303.5" y="650"/>
      <point x="360.5" y="650" type="curve" smooth="yes"/>
      <point x="388" y="650"/>
      <point x="408.5" y="672.5"/>
      <point x="428.5" y="704.5" type="curve"/>
      <point x="507" y="621" type="line"/>
      <point x="491" y="584"/>
      <point x="430.5" y="531.5"/>
      <point x="364.5" y="531.5" type="curve" smooth="yes"/>
      <point x="309.5" y="531.5"/>
      <point x="270.5" y="587"/>
      <point x="219.5" y="587" type="curve" smooth="yes"/>
      <point x="182.5" y="587"/>
      <point x="173" y="550.5"/>
      <point x="173" y="535.5" type="curve"/>
    </contour>
  </outline>
</glyph>
<glyph name="odieresis" format="1">
  <advance width="602"/>
  <unicode hex="00F6"/>
  <outline>
    <contour>
      <point x="31" y="230" type="curve" smooth="yes"/>
      <point x="31" y="377.5"/>
      <point x="146.5" y="470.5"/>
      <point x="301.5" y="470.5" type="curve" smooth="yes"/>
      <point x="456.5" y="470.5"/>
      <point x="572" y="377.5"/>
      <point x="572" y="230" type="curve" smooth="yes"/>
      <point x="572" y="82.5"/>
      <point x="456.5" y="-10"/>
      <point x="301.5" y="-10" type="curve" smooth="yes"/>
      <point x="146.5" y="-10"/>
      <point x="31" y="82.5"/>
    </contour>
    <contour>
      <point x="209.5" y="230" type="curve" smooth="yes"/>
      <point x="209.5" y="166.5"/>
      <point x="252" y="130"/>
      <point x="301.5" y="130" type="curve" smooth="yes"/>
      <point x="351" y="130"/>
      <point x="393.5" y="166.5"/>
      <point x="393.5" y="230" type="curve" smooth="yes"/>
      <point x="393.5" y="293.5"/>
      <point x="351" y="331"/>
      <point x="301.5" y="331" type="curve" smooth="yes"/>
      <point x="252" y="331"/>
      <point x="209.5" y="293.5"/>
    </contour>
    <contour>
      <point x="332" y="620.5" type="curve" smooth="yes"/>
      <point x="332" y="674"/>
      <point x="375.5" y="710.5"/>
      <point x="430" y="710.5" type="curve" smooth="yes"/>
      <point x="484.5" y="710.5"/>
      <point x="528" y="674"/>
      <point x="528" y="620.5" type="curve" smooth="yes"/>
      <point x="528" y="567"/>
      <point x="484.5" y="530.5"/>
      <point x="430" y="530.5" type="curve" smooth="yes"/>
      <point x="375.5" y="530.5"/>
      <point x="332" y="567"/>
    </contour>
    <contour>
      <point x="75" y="620.5" type="curve" smooth="yes"/>
      <point x="75" y="674"/>
      <point x="118.5" y="710.5"/>
      <point x="173" y="710.5" type="curve" smooth="yes"/>
      <point x="227.5" y="710.5"/>
      <point x="271" y="674"/>
      <point x="271" y="620.5" type="curve" smooth="yes"/>
      <point x="271" y="567"/>
      <point x="227.5" y="530.5"/>
      <point x="173" y="530.5" type="curve" smooth="yes"/>
      <point x="118.5" y="530.5"/>
      <point x="75" y="567"/>
    </contour>
  </outline>
</glyph>
<glyph name="divide" format="1">
  <advance width="644"/>
  <unicode hex="00F7"/>
  <outline>
    <contour>
      <point x="216" y="584" type="curve" smooth="yes"/>
      <point x="216" y="640.5"/>
      <point x="260" y="688"/>
      <point x="322.5" y="688" type="curve" smooth="yes"/>
      <point x="385" y="688"/>
      <point x="428.5" y="640.5"/>
      <point x="428.5" y="584" type="curve" smooth="yes"/>
      <point x="428.5" y="527.5"/>
      <point x="385" y="480"/>
      <point x="322.5" y="480" type="curve" smooth="yes"/>
      <point x="260" y="480"/>
      <point x="216" y="527.5"/>
    </contour>
    <contour>
      <point x="216" y="106.5" type="curve" smooth="yes"/>
      <point x="216" y="163"/>
      <point x="260" y="210"/>
      <point x="322.5" y="210" type="curve" smooth="yes"/>
      <point x="385" y="210"/>
      <point x="428.5" y="163"/>
      <point x="428.5" y="106.5" type="curve" smooth="yes"/>
      <point x="428.5" y="50"/>
      <point x="385" y="3"/>
      <point x="322.5" y="3" type="curve" smooth="yes"/>
      <point x="260" y="3"/>
      <point x="216" y="50"/>
    </contour>
    <contour>
      <point x="15.5" y="270" type="line"/>
      <point x="15.5" y="423" type="line"/>
      <point x="629" y="423" type="line"/>
      <point x="629" y="270" type="line"/>
    </contour>
  </outline>
</glyph>
<glyph name="oslash" format="1">
  <advance width="546"/>
  <unicode hex="00F8"/>
  <outline>
    <contour>
      <point x="31" y="230" type="curve" smooth="yes"/>
      <point x="31" y="385.5"/>
      <point x="150" y="470"/>
      <point x="301.5" y="470" type="curve" smooth="yes"/>
      <point x="453" y="470"/>
      <point x="572" y="385.5"/>
      <point x="572" y="230" type="curve" smooth="yes"/>
      <point x="572" y="74.5"/>
      <point x="453" y="-10"/>
      <point x="301.5" y="-10" type="curve" smooth="yes"/>
      <point x="150" y="-10"/>
      <point x="31" y="74.5"/>
    </contour>
    <contour>
      <point x="193.5" y="230" type="curve" smooth="yes"/>
      <point x="193.5" y="158.5"/>
      <point x="244" y="121.5"/>
      <point x="301.5" y="121.5" type="curve" smooth="yes"/>
      <point x="359" y="121.5"/>
      <point x="409.5" y="158.5"/>
      <point x="409.5" y="230" type="curve" smooth="yes"/>
      <point x="409.5" y="293.5"/>
      <point x="359" y="338.5"/>
      <point x="301.5" y="338.5" type="curve" smooth="yes"/>
      <point x="244" y="338.5"/>
      <point x="193.5" y="293.5"/>
    </contour>
    <contour>
      <point x="460.5" y="508" type="line"/>
      <point x="521.5" y="472" type="line"/>
      <point x="131.5" y="-52" type="line"/>
      <point x="70.5" y="-16" type="line"/>
    </contour>
  </outline>
</glyph>
<glyph name="uacute" format="1">
  <advance width="590"/>
  <unicode hex="00FA"/>
  <outline>
    <contour>
      <point x="362" y="0" type="line"/>
      <point x="362" y="460" type="line"/>
      <point x="535.5" y="460" type="line"/>
      <point x="535.5" y="0" type="line"/>
    </contour>
    <contour>
      <point x="236.5" y="180" type="line" smooth="yes"/>
      <point x="236.5" y="132.5"/>
      <point x="248.5" y="105"/>
      <point x="293.5" y="105" type="curve" smooth="yes"/>
      <point x="335" y="105"/>
      <point x="362" y="130"/>
      <point x="362" y="180" type="curve"/>
      <point x="390" y="188" type="line"/>
      <point x="390" y="79"/>
      <point x="340.5" y="-10.5"/>
      <point x="221" y="-10.5" type="curve" smooth="yes"/>
      <point x="101.5" y="-10.5"/>
      <point x="55" y="51.5"/>
      <point x="55" y="162" type="curve" smooth="yes"/>
      <point x="55" y="460" type="line"/>
      <point x="236.5" y="460" type="line"/>
    </contour>
    <contour>
      <point x="447" y="684.5" type="line"/>
      <point x="267" y="534.5" type="line"/>
      <point x="169.5" y="580.5" type="line"/>
      <point x="319.5" y="740.5" type="line"/>
    </contour>
  </outline>
</glyph>
<glyph name="ucircumflex" format="1">
  <advance width="590"/>
  <unicode hex="00FB"/>
  <outline>
    <contour>
      <point x="362" y="0" type="line"/>
      <point x="362" y="460" type="line"/>
      <point x="535.5" y="460" type="line"/>
      <point x="535.5" y="0" type="line"/>
    </contour>
    <contour>
      <point x="236.5" y="180" type="line" smooth="yes"/>
      <point x="236.5" y="132.5"/>
      <point x="248.5" y="105"/>
      <point x="293.5" y="105" type="curve" smooth="yes"/>
      <point x="335" y="105"/>
      <point x="362" y="130"/>
      <point x="362" y="180" type="curve"/>
      <point x="390" y="188" type="line"/>
      <point x="390" y="79"/>
      <point x="340.5" y="-10.5"/>
      <point x="221" y="-10.5" type="curve" smooth="yes"/>
      <point x="101.5" y="-10.5"/>
      <point x="55" y="51.5"/>
      <point x="55" y="162" type="curve" smooth="yes"/>
      <point x="55" y="460" type="line"/>
      <point x="236.5" y="460" type="line"/>
    </contour>
    <contour>
      <point x="294.5" y="617.5" type="line"/>
      <point x="209" y="534.5" type="line"/>
      <point x="86" y="615.5" type="line"/>
      <point x="294.5" y="755.5" type="line"/>
      <point x="503" y="615.5" type="line"/>
      <point x="380" y="534.5" type="line"/>
    </contour>
  </outline>
</glyph>
<glyph name="udieresis" format="1">
  <advance width="590"/>
  <unicode hex="00FC"/>
  <outline>
    <contour>
      <point x="362" y="0" type="line"/>
      <point x="362" y="460" type="line"/>
      <point x="535.5" y="460" type="line"/>
      <point x="535.5" y="0" type="line"/>
    </contour>
    <contour>
      <point x="236.5" y="180" type="line" smooth="yes"/>
      <point x="236.5" y="132.5"/>
      <point x="248.5" y="105"/>
      <point x="293.5" y="105" type="curve" smooth="yes"/>
      <point x="335" y="105"/>
      <point x="362" y="130"/>
      <point x="362" y="180" type="curve"/>
      <point x="388" y="188" type="line"/>
      <point x="388" y="79"/>
      <point x="340.5" y="-10.5"/>
      <point x="221" y="-10.5" type="curve" smooth="yes"/>
      <point x="101.5" y="-10.5"/>
      <point x="55" y="51.5"/>
      <point x="55" y="162" type="curve" smooth="yes"/>
      <point x="55" y="460" type="line"/>
      <point x="236.5" y="460" type="line"/>
    </contour>
    <contour>
      <point x="326" y="620.5" type="curve" smooth="yes"/>
      <point x="326" y="674"/>
      <point x="369.5" y="710.5"/>
      <point x="424" y="710.5" type="curve" smooth="yes"/>
      <point x="478.5" y="710.5"/>
      <point x="522" y="674"/>
      <point x="522" y="620.5" type="curve" smooth="yes"/>
      <point x="522" y="567"/>
      <point x="478.5" y="530.5"/>
      <point x="424" y="530.5" type="curve" smooth="yes"/>
      <point x="369.5" y="530.5"/>
      <point x="326" y="567"/>
    </contour>
    <contour>
      <point x="69" y="620.5" type="curve" smooth="yes"/>
      <point x="69" y="674"/>
      <point x="112.5" y="710.5"/>
      <point x="167" y="710.5" type="curve" smooth="yes"/>
      <point x="221.5" y="710.5"/>
      <point x="265" y="674"/>
      <point x="265" y="620.5" type="curve" smooth="yes"/>
      <point x="265" y="567"/>
      <point x="221.5" y="530.5"/>
      <point x="167" y="530.5" type="curve" smooth="yes"/>
      <point x="112.5" y="530.5"/>
      <point x="69" y="567"/>
    </contour>
  </outline>
</glyph>
<glyph name="yacute" format="1">
  <advance width="545"/>
  <unicode hex="00FD"/>
  <outline>
    <contour>
      <point x="557.5" y="460" type="line"/>
      <point x="257.5" y="-220" type="line"/>
      <point x="86.5" y="-220" type="line"/>
      <point x="194" y="28.5" type="line"/>
      <point x="-12.5" y="460" type="line"/>
      <point x="176.5" y="460" type="line"/>
      <point x="325.5" y="87.5" type="line"/>
      <point x="234" y="88.5" type="line"/>
      <point x="382.5" y="460" type="line"/>
    </contour>
    <contour>
      <point x="443.5" y="684.5" type="line"/>
      <point x="263.5" y="534.5" type="line"/>
      <point x="165.5" y="580.5" type="line"/>
      <point x="315.5" y="740.5" type="line"/>
    </contour>
  </outline>
</glyph>
<glyph name="thorn" format="1">
  <advance width="628"/>
  <unicode hex="00FE"/>
  <outline>
    <contour>
      <point x="224.5" y="-220" type="line"/>
      <point x="54.5" y="-220" type="line"/>
      <point x="54.5" y="780" type="line"/>
      <point x="224.5" y="780" type="line"/>
    </contour>
    <contour>
      <point x="597.5" y="230" type="curve" smooth="yes"/>
      <point x="597.5" y="73"/>
      <point x="491" y="-10"/>
      <point x="381.5" y="-10" type="curve" smooth="yes"/>
      <point x="266.5" y="-10"/>
      <point x="180.5" y="81"/>
      <point x="180.5" y="230" type="curve" smooth="yes"/>
      <point x="180.5" y="379"/>
      <point x="266.5" y="470"/>
      <point x="381.5" y="470" type="curve" smooth="yes"/>
      <point x="491" y="470"/>
      <point x="597.5" y="387"/>
    </contour>
    <contour>
      <point x="418.5" y="230" type="curve" smooth="yes"/>
      <point x="418.5" y="293"/>
      <point x="374" y="336"/>
      <point x="320.5" y="336" type="curve" smooth="yes"/>
      <point x="274" y="336"/>
      <point x="224.5" y="297"/>
      <point x="224.5" y="230" type="curve" smooth="yes"/>
      <point x="224.5" y="163"/>
      <point x="274" y="124"/>
      <point x="320.5" y="124" type="curve" smooth="yes"/>
      <point x="374" y="124"/>
      <point x="418.5" y="167"/>
    </contour>
  </outline>
</glyph>
<glyph name="ydieresis" format="1">
  <advance width="545"/>
  <unicode hex="00FF"/>
  <outline>
    <contour>
      <point x="557.5" y="460" type="line"/>
      <point x="257.5" y="-220" type="line"/>
      <point x="86.5" y="-220" type="line"/>
      <point x="194" y="28.5" type="line"/>
      <point x="-12.5" y="460" type="line"/>
      <point x="176.5" y="460" type="line"/>
      <point x="325.5" y="87.5" type="line"/>
      <point x="234" y="88.5" type="line"/>
      <point x="382.5" y="460" type="line"/>
    </contour>
    <contour>
      <point x="303" y="620.5" type="curve" smooth="yes"/>
      <point x="303" y="674"/>
      <point x="346.5" y="710.5"/>
      <point x="401" y="710.5" type="curve" smooth="yes"/>
      <point x="455.5" y="710.5"/>
      <point x="499" y="674"/>
      <point x="499" y="620.5" type="curve" smooth="yes"/>
      <point x="499" y="567"/>
      <point x="455.5" y="530.5"/>
      <point x="401" y="530.5" type="curve" smooth="yes"/>
      <point x="346.5" y="530.5"/>
      <point x="303" y="567"/>
    </contour>
    <contour>
      <point x="46" y="620.5" type="curve" smooth="yes"/>
      <point x="46" y="674"/>
      <point x="89.5" y="710.5"/>
      <point x="144" y="710.5" type="curve" smooth="yes"/>
      <point x="198.5" y="710.5"/>
      <point x="242" y="674"/>
      <point x="242" y="620.5" type="curve" smooth="yes"/>
      <point x="242" y="567"/>
      <point x="198.5" y="530.5"/>
      <point x="144" y="530.5" type="curve" smooth="yes"/>
      <point x="89.5" y="530.5"/>
      <point x="46" y="567"/>
    </contour>
  </outline>
</glyph>
<glyph name="Abreve" format="1">
  <advance width="757"/>
  <unicode hex="0102"/>
  <outline>
    <contour>
      <point x="195.5" y="112.5" type="line"/>
      <point x="201.5" y="256" type="line"/>
      <point x="560.5" y="256" type="line"/>
      <point x="565.5" y="112.5" type="line"/>
    </contour>
    <contour>
      <point x="379" y="412" type="line"/>
      <point x="287" y="203" type="line"/>
      <point x="299" y="159" type="line"/>
      <point x="217.5" y="0" type="line"/>
      <point x="-3.5" y="0" type="line"/>
      <point x="379" y="747" type="line"/>
      <point x="760.5" y="0" type="line"/>
      <point x="539.5" y="0" type="line"/>
      <point x="460.5" y="152" type="line"/>
      <point x="471" y="202.5" type="line"/>
    </contour>
    <contour>
      <point x="212.5" y="955" type="curve"/>
      <point x="320" y="955" type="line"/>
      <point x="320" y="916.5"/>
      <point x="349.5" y="900.5"/>
      <point x="379" y="900.5" type="curve" smooth="yes"/>
      <point x="408.5" y="900.5"/>
      <point x="437" y="916.5"/>
      <point x="437" y="955" type="curve"/>
      <point x="545" y="955" type="line"/>
      <point x="545" y="869.5"/>
      <point x="484" y="807"/>
      <point x="379" y="807" type="curve" smooth="yes"/>
      <point x="274" y="807"/>
      <point x="212.5" y="869.5"/>
    </contour>
  </outline>
</glyph>
<glyph name="Aogonek" format="1">
  <advance width="757"/>
  <unicode hex="0104"/>
  <outline>
    <contour>
      <point x="195.5" y="112.5" type="line"/>
      <point x="201.5" y="256" type="line"/>
      <point x="560.5" y="256" type="line"/>
      <point x="565.5" y="112.5" type="line"/>
    </contour>
    <contour>
      <point x="379" y="412" type="line"/>
      <point x="287" y="203" type="line"/>
      <point x="299" y="159" type="line"/>
      <point x="217.5" y="0" type="line"/>
      <point x="-3.5" y="0" type="line"/>
      <point x="379" y="747" type="line"/>
      <point x="760.5" y="0" type="line"/>
      <point x="539.5" y="0" type="line"/>
      <point x="460.5" y="152" type="line"/>
      <point x="471" y="202.5" type="line"/>
    </contour>
    <contour>
      <point x="720" y="-95" type="curve"/>
      <point x="752.5" y="-169.5" type="line"/>
      <point x="737.5" y="-189.5"/>
      <point x="708" y="-209.5"/>
      <point x="648.5" y="-209.5" type="curve" smooth="yes"/>
      <point x="589" y="-209.5"/>
      <point x="534" y="-177"/>
      <point x="534" y="-109.5" type="curve"/>
      <point x="638" y="-81.5" type="line"/>
      <point x="638" y="-103"/>
      <point x="648" y="-115"/>
      <point x="670" y="-115" type="curve" smooth="yes"/>
      <point x="688" y="-115"/>
      <point x="706" y="-108"/>
    </contour>
    <contour>
      <point x="638" y="-81.5" type="curve"/>
      <point x="534" y="-109.5" type="line"/>
      <point x="534" y="-42"/>
      <point x="604" y="-0.5"/>
      <point x="674" y="35.5" type="curve"/>
      <point x="714.5" y="10.5" type="line"/>
      <point x="662.5" y="-19.5"/>
      <point x="638" y="-53"/>
    </contour>
  </outline>
</glyph>
<glyph name="aogonek" format="1">
  <advance width="562"/>
  <unicode hex="0105"/>
  <outline>
    <contour>
      <point x="196" y="138.5" type="curve" smooth="yes"/>
      <point x="196" y="109.5"/>
      <point x="220" y="97.5"/>
      <point x="252.5" y="97.5" type="curve" smooth="yes"/>
      <point x="300" y="97.5"/>
      <point x="345" y="118"/>
      <point x="345" y="188" type="curve"/>
      <point x="361" y="130" type="line"/>
      <point x="361" y="41"/>
      <point x="287" y="-10"/>
      <point x="192" y="-10" type="curve" smooth="yes"/>
      <point x="88.5" y="-10"/>
      <point x="22" y="41"/>
      <point x="22" y="129" type="curve" smooth="yes"/>
      <point x="22" y="219.5"/>
      <point x="102.5" y="277"/>
      <point x="222" y="277" type="curve" smooth="yes"/>
      <point x="285.5" y="277"/>
      <point x="356" y="254.5"/>
      <point x="378" y="231.5" type="curve"/>
      <point x="378" y="152.5" type="line"/>
      <point x="347" y="176.5"/>
      <point x="316.5" y="188.5"/>
      <point x="266.5" y="188.5" type="curve" smooth="yes"/>
      <point x="223.5" y="188.5"/>
      <point x="196" y="168.5"/>
    </contour>
    <contour>
      <point x="119.5" y="308" type="curve"/>
      <point x="64" y="422" type="line"/>
      <point x="122.5" y="447"/>
      <point x="201.5" y="474"/>
      <point x="284.5" y="474" type="curve" smooth="yes"/>
      <point x="414" y="474"/>
      <point x="510" y="419.5"/>
      <point x="510" y="322" type="curve" smooth="yes"/>
      <point x="510" y="0" type="line"/>
      <point x="345" y="0" type="line"/>
      <point x="345" y="283" type="line" smooth="yes"/>
      <point x="345" y="320"/>
      <point x="318.5" y="345.5"/>
      <point x="268.5" y="345.5" type="curve" smooth="yes"/>
      <point x="202.5" y="345.5"/>
      <point x="141.5" y="320"/>
    </contour>
    <contour>
      <point x="486" y="-103.5" type="curve"/>
      <point x="519" y="-177.5" type="line"/>
      <point x="504" y="-197.5"/>
      <point x="474.5" y="-217.5"/>
      <point x="415" y="-217.5" type="curve" smooth="yes"/>
      <point x="355.5" y="-217.5"/>
      <point x="300" y="-185"/>
      <point x="300" y="-117.5" type="curve"/>
      <point x="404.5" y="-89.5" type="line"/>
      <point x="404.5" y="-111"/>
      <point x="414" y="-123.5"/>
      <point x="436" y="-123.5" type="curve" smooth="yes"/>
      <point x="454" y="-123.5"/>
      <point x="472" y="-116.5"/>
    </contour>
    <contour>
      <point x="404.5" y="-89.5" type="curve"/>
      <point x="300" y="-117.5" type="line"/>
      <point x="300" y="-50"/>
      <point x="370" y="-8.5"/>
      <point x="440" y="27.5" type="curve"/>
      <point x="481" y="2.5" type="line"/>
      <point x="429" y="-27.5"/>
      <point x="404.5" y="-61"/>
    </contour>
  </outline>
</glyph>
<glyph name="Cacute" format="1">
  <advance width="705"/>
  <unicode hex="0106"/>
  <outline>
    <contour>
      <point x="245.5" y="350" type="curve" smooth="yes"/>
      <point x="245.5" y="232"/>
      <point x="334" y="166"/>
      <point x="439.5" y="166" type="curve" smooth="yes"/>
      <point x="538.5" y="166"/>
      <point x="598.5" y="209.5"/>
      <point x="643.5" y="255.5" type="curve"/>
      <point x="643.5" y="50.5" type="line"/>
      <point x="588" y="10"/>
      <point x="528.5" y="-18"/>
      <point x="426.5" y="-18" type="curve" smooth="yes"/>
      <point x="192" y="-18"/>
      <point x="32" y="129"/>
      <point x="32" y="350" type="curve" smooth="yes"/>
      <point x="32" y="571"/>
      <point x="192" y="718"/>
      <point x="426.5" y="718" type="curve" smooth="yes"/>
      <point x="528.5" y="718"/>
      <point x="588" y="690"/>
      <point x="643.5" y="649.5" type="curve"/>
      <point x="643.5" y="444.5" type="line"/>
      <point x="598.5" y="490.5"/>
      <point x="538.5" y="534"/>
      <point x="439.5" y="534" type="curve" smooth="yes"/>
      <point x="334" y="534"/>
      <point x="245.5" y="468"/>
    </contour>
    <contour>
      <point x="556.5" y="928" type="line"/>
      <point x="376.5" y="778" type="line"/>
      <point x="278.5" y="824.5" type="line"/>
      <point x="428.5" y="984.5" type="line"/>
    </contour>
  </outline>
</glyph>
<glyph name="ccircumflex" format="1">
  <advance width="498"/>
  <unicode hex="0109"/>
  <outline>
    <contour>
      <point x="208.5" y="230" type="curve" smooth="yes"/>
      <point x="208.5" y="162.5"/>
      <point x="259" y="124"/>
      <point x="320.5" y="124" type="curve" smooth="yes"/>
      <point x="370" y="124"/>
      <point x="419" y="144.5"/>
      <point x="448.5" y="188" type="curve"/>
      <point x="448.5" y="26.5" type="line"/>
      <point x="416.5" y="4.5"/>
      <point x="376" y="-10"/>
      <point x="304.5" y="-10" type="curve" smooth="yes"/>
      <point x="145" y="-10"/>
      <point x="30" y="82.5"/>
      <point x="30" y="230" type="curve" smooth="yes"/>
      <point x="30" y="377.5"/>
      <point x="145" y="470"/>
      <point x="304.5" y="470" type="curve" smooth="yes"/>
      <point x="376" y="470"/>
      <point x="416.5" y="453.5"/>
      <point x="448.5" y="435.5" type="curve"/>
      <point x="448.5" y="273" type="line"/>
      <point x="419" y="316.5"/>
      <point x="362" y="336"/>
      <point x="320.5" y="336" type="curve" smooth="yes"/>
      <point x="259" y="336"/>
      <point x="208.5" y="289.5"/>
    </contour>
    <contour>
      <point x="264" y="613.5" type="line"/>
      <point x="178.5" y="530.5" type="line"/>
      <point x="55.5" y="611.5" type="line"/>
      <point x="264" y="751.5" type="line"/>
      <point x="472.5" y="611.5" type="line"/>
      <point x="349.5" y="530.5" type="line"/>
    </contour>
  </outline>
</glyph>
<glyph name="Cdotaccent" format="1">
  <advance width="705"/>
  <unicode hex="010A"/>
  <outline>
    <contour>
      <point x="245.5" y="350" type="curve" smooth="yes"/>
      <point x="245.5" y="232"/>
      <point x="334" y="166"/>
      <point x="439.5" y="166" type="curve" smooth="yes"/>
      <point x="538.5" y="166"/>
      <point x="598.5" y="209.5"/>
      <point x="643.5" y="255.5" type="curve"/>
      <point x="643.5" y="50.5" type="line"/>
      <point x="588" y="10"/>
      <point x="528.5" y="-18"/>
      <point x="426.5" y="-18" type="curve" smooth="yes"/>
      <point x="192" y="-18"/>
      <point x="32" y="129"/>
      <point x="32" y="350" type="curve" smooth="yes"/>
      <point x="32" y="571"/>
      <point x="192" y="718"/>
      <point x="426.5" y="718" type="curve" smooth="yes"/>
      <point x="528.5" y="718"/>
      <point x="588" y="690"/>
      <point x="643.5" y="649.5" type="curve"/>
      <point x="643.5" y="444.5" type="line"/>
      <point x="598.5" y="490.5"/>
      <point x="538.5" y="534"/>
      <point x="439.5" y="534" type="curve" smooth="yes"/>
      <point x="334" y="534"/>
      <point x="245.5" y="468"/>
    </contour>
    <contour>
      <point x="293.5" y="868" type="curve" smooth="yes"/>
      <point x="293.5" y="921.5"/>
      <point x="337" y="958"/>
      <point x="391.5" y="958" type="curve" smooth="yes"/>
      <point x="446" y="958"/>
      <point x="489.5" y="921.5"/>
      <point x="489.5" y="868" type="curve" smooth="yes"/>
      <point x="489.5" y="814.5"/>
      <point x="446" y="778"/>
      <point x="391.5" y="778" type="curve" smooth="yes"/>
      <point x="337" y="778"/>
      <point x="293.5" y="814.5"/>
    </contour>
  </outline>
</glyph>
<glyph name="Dcaron" format="1">
  <advance width="749"/>
  <unicode hex="010E"/>
  <outline>
    <contour>
      <point x="204" y="530" type="line"/>
      <point x="204" y="700" type="line"/>
      <point x="334.5" y="700" type="line" smooth="yes"/>
      <point x="571" y="700"/>
      <point x="717.5" y="567.5"/>
      <point x="717.5" y="350" type="curve"/>
      <point x="514.5" y="350" type="line"/>
      <point x="514.5" y="496.5"/>
      <point x="419.5" y="530"/>
      <point x="326.5" y="530" type="curve" smooth="yes"/>
    </contour>
    <contour>
      <point x="334.5" y="0" type="curve" smooth="yes"/>
      <point x="204" y="0" type="line"/>
      <point x="204" y="170" type="line"/>
      <point x="326.5" y="170" type="line" smooth="yes"/>
      <point x="419.5" y="170"/>
      <point x="514.5" y="203.5"/>
      <point x="514.5" y="350" type="curve"/>
      <point x="717.5" y="350" type="line"/>
      <point x="717.5" y="132.5"/>
      <point x="571" y="0"/>
    </contour>
    <contour>
      <point x="72" y="700" type="line"/>
      <point x="273.5" y="700" type="line"/>
      <point x="273.5" y="0" type="line"/>
      <point x="72" y="0" type="line"/>
    </contour>
    <contour>
      <point x="383" y="916" type="line"/>
      <point x="468.5" y="999" type="line"/>
      <point x="591.5" y="918" type="line"/>
      <point x="383" y="778" type="line"/>
      <point x="174" y="918" type="line"/>
      <point x="297" y="999" type="line"/>
    </contour>
  </outline>
</glyph>
<glyph name="Emacron" format="1">
  <advance width="619"/>
  <unicode hex="0112"/>
  <outline>
    <contour>
      <point x="204" y="0" type="line"/>
      <point x="204" y="157.5" type="line"/>
      <point x="557.5" y="157.5" type="line"/>
      <point x="557.5" y="0" type="line"/>
    </contour>
    <contour>
      <point x="204" y="542.5" type="line"/>
      <point x="204" y="700" type="line"/>
      <point x="557.5" y="700" type="line"/>
      <point x="557.5" y="542.5" type="line"/>
    </contour>
    <contour>
      <point x="204" y="287.5" type="line"/>
      <point x="204" y="440.5" type="line"/>
      <point x="537.5" y="440.5" type="line"/>
      <point x="537.5" y="287.5" type="line"/>
    </contour>
    <contour>
      <point x="72" y="700" type="line"/>
      <point x="258.5" y="700" type="line"/>
      <point x="258.5" y="0" type="line"/>
      <point x="72" y="0" type="line"/>
    </contour>
    <contour>
      <point x="125" y="778" type="line"/>
      <point x="125" y="926.5" type="line"/>
      <point x="503.5" y="926.5" type="line"/>
      <point x="503.5" y="778" type="line"/>
    </contour>
  </outline>
</glyph>
<glyph name="Ebreve" format="1">
  <advance width="619"/>
  <unicode hex="0114"/>
  <outline>
    <contour>
      <point x="204" y="0" type="line"/>
      <point x="204" y="157.5" type="line"/>
      <point x="557.5" y="157.5" type="line"/>
      <point x="557.5" y="0" type="line"/>
    </contour>
    <contour>
      <point x="204" y="542.5" type="line"/>
      <point x="204" y="700" type="line"/>
      <point x="557.5" y="700" type="line"/>
      <point x="557.5" y="542.5" type="line"/>
    </contour>
    <contour>
      <point x="204" y="287.5" type="line"/>
      <point x="204" y="440.5" type="line"/>
      <point x="537.5" y="440.5" type="line"/>
      <point x="537.5" y="287.5" type="line"/>
    </contour>
    <contour>
      <point x="72" y="700" type="line"/>
      <point x="258.5" y="700" type="line"/>
      <point x="258.5" y="0" type="line"/>
      <point x="72" y="0" type="line"/>
    </contour>
    <contour>
      <point x="148" y="926" type="curve"/>
      <point x="255.5" y="926" type="line"/>
      <point x="255.5" y="887.5"/>
      <point x="284.5" y="871.5"/>
      <point x="314" y="871.5" type="curve" smooth="yes"/>
      <point x="343.5" y="871.5"/>
      <point x="373" y="887.5"/>
      <point x="373" y="926" type="curve"/>
      <point x="480" y="926" type="line"/>
      <point x="480" y="840.5"/>
      <point x="419" y="778"/>
      <point x="314" y="778" type="curve" smooth="yes"/>
      <point x="209" y="778"/>
      <point x="148" y="840.5"/>
    </contour>
  </outline>
</glyph>
<glyph name="ebreve" format="1">
  <advance width="591"/>
  <unicode hex="0115"/>
  <outline>
    <contour>
      <point x="96" y="194" type="line"/>
      <point x="96" y="283" type="line"/>
      <point x="540.5" y="283" type="line"/>
      <point x="555.5" y="194" type="line"/>
    </contour>
    <contour>
      <point x="375" y="242" type="line" smooth="yes"/>
      <point x="375" y="320"/>
      <point x="353" y="359.5"/>
      <point x="295.5" y="359.5" type="curve" smooth="yes"/>
      <point x="240" y="359.5"/>
      <point x="207.5" y="322"/>
      <point x="207.5" y="252" type="curve"/>
      <point x="205.5" y="230" type="line"/>
      <point x="205.5" y="140"/>
      <point x="250" y="110"/>
      <point x="299.5" y="110" type="curve" smooth="yes"/>
      <point x="350" y="110"/>
      <point x="385.5" y="127.5"/>
      <point x="404.5" y="161.5" type="curve"/>
      <point x="561.5" y="131.5" type="line"/>
      <point x="515.5" y="45.5"/>
      <point x="441.5" y="-10"/>
      <point x="306" y="-10" type="curve" smooth="yes"/>
      <point x="124.5" y="-10"/>
      <point x="31" y="91"/>
      <point x="31" y="230" type="curve" smooth="yes"/>
      <point x="31" y="247"/>
      <point x="32" y="263"/>
      <point x="35" y="279" type="curve" smooth="yes"/>
      <point x="54" y="392"/>
      <point x="140" y="470"/>
      <point x="299.5" y="470" type="curve" smooth="yes"/>
      <point x="470" y="470"/>
      <point x="557.5" y="383"/>
      <point x="557.5" y="238" type="curve" smooth="yes"/>
      <point x="557.5" y="230"/>
      <point x="557.5" y="212.5"/>
      <point x="555.5" y="194" type="curve"/>
      <point x="375" y="214" type="line"/>
    </contour>
    <contour>
      <point x="133.5" y="679" type="curve"/>
      <point x="241" y="679" type="line"/>
      <point x="241" y="640.5"/>
      <point x="270" y="624.5"/>
      <point x="299.5" y="624.5" type="curve" smooth="yes"/>
      <point x="329" y="624.5"/>
      <point x="358" y="640.5"/>
      <point x="358" y="679" type="curve"/>
      <point x="466" y="679" type="line"/>
      <point x="466" y="593.5"/>
      <point x="404.5" y="530.5"/>
      <point x="299.5" y="530.5" type="curve" smooth="yes"/>
      <point x="194.5" y="530.5"/>
      <point x="133.5" y="593.5"/>
    </contour>
  </outline>
</glyph>
<glyph name="Edotaccent" format="1">
  <advance width="619"/>
  <unicode hex="0116"/>
  <outline>
    <contour>
      <point x="204" y="0" type="line"/>
      <point x="204" y="157.5" type="line"/>
      <point x="557.5" y="157.5" type="line"/>
      <point x="557.5" y="0" type="line"/>
    </contour>
    <contour>
      <point x="204" y="542.5" type="line"/>
      <point x="204" y="700" type="line"/>
      <point x="557.5" y="700" type="line"/>
      <point x="557.5" y="542.5" type="line"/>
    </contour>
    <contour>
      <point x="204" y="287.5" type="line"/>
      <point x="204" y="440.5" type="line"/>
      <point x="537.5" y="440.5" type="line"/>
      <point x="537.5" y="287.5" type="line"/>
    </contour>
    <contour>
      <point x="72" y="700" type="line"/>
      <point x="258.5" y="700" type="line"/>
      <point x="258.5" y="0" type="line"/>
      <point x="72" y="0" type="line"/>
    </contour>
    <contour>
      <point x="216.5" y="868" type="curve" smooth="yes"/>
      <point x="216.5" y="921.5"/>
      <point x="260" y="958"/>
      <point x="314.5" y="958" type="curve" smooth="yes"/>
      <point x="369" y="958"/>
      <point x="412.5" y="921.5"/>
      <point x="412.5" y="868" type="curve" smooth="yes"/>
      <point x="412.5" y="814.5"/>
      <point x="369" y="778"/>
      <point x="314.5" y="778" type="curve" smooth="yes"/>
      <point x="260" y="778"/>
      <point x="216.5" y="814.5"/>
    </contour>
  </outline>
</glyph>
<glyph name="edotaccent" format="1">
  <advance width="586"/>
  <unicode hex="0117"/>
  <outline>
    <contour>
      <point x="96" y="194" type="line"/>
      <point x="96" y="285.5" type="line"/>
      <point x="533" y="285.5" type="line"/>
      <point x="548" y="194" type="line"/>
    </contour>
    <contour>
      <point x="380" y="242" type="line" smooth="yes"/>
      <point x="380" y="317"/>
      <point x="355.5" y="354.5"/>
      <point x="295.5" y="354.5" type="curve" smooth="yes"/>
      <point x="237.5" y="354.5"/>
      <point x="202.5" y="319"/>
      <point x="202.5" y="252" type="curve"/>
      <point x="200.5" y="230" type="line"/>
      <point x="200.5" y="145"/>
      <point x="250" y="112.5"/>
      <point x="304.5" y="112.5" type="curve" smooth="yes"/>
      <point x="350" y="112.5"/>
      <point x="380.5" y="128"/>
      <point x="397" y="161.5" type="curve"/>
      <point x="549" y="126.5" type="line"/>
      <point x="508" y="45.5"/>
      <point x="436.5" y="-10"/>
      <point x="306" y="-10" type="curve" smooth="yes"/>
      <point x="134.5" y="-10"/>
      <point x="33.5" y="91"/>
      <point x="33.5" y="230" type="curve" smooth="yes"/>
      <point x="33.5" y="247"/>
      <point x="35" y="264"/>
      <point x="38" y="280" type="curve" smooth="yes"/>
      <point x="57" y="393"/>
      <point x="150" y="470"/>
      <point x="299.5" y="470" type="curve" smooth="yes"/>
      <point x="455" y="470"/>
      <point x="550" y="383"/>
      <point x="550" y="238" type="curve" smooth="yes"/>
      <point x="550" y="230"/>
      <point x="550" y="212.5"/>
      <point x="548" y="194" type="curve"/>
      <point x="380" y="214" type="line"/>
    </contour>
    <contour>
      <point x="201.5" y="620.5" type="curve" smooth="yes"/>
      <point x="201.5" y="674"/>
      <point x="245" y="710.5"/>
      <point x="299.5" y="710.5" type="curve" smooth="yes"/>
      <point x="354" y="710.5"/>
      <point x="397.5" y="674"/>
      <point x="397.5" y="620.5" type="curve" smooth="yes"/>
      <point x="397.5" y="567"/>
      <point x="354" y="530.5"/>
      <point x="299.5" y="530.5" type="curve" smooth="yes"/>
      <point x="245" y="530.5"/>
      <point x="201.5" y="567"/>
    </contour>
  </outline>
</glyph>
<glyph name="Eogonek" format="1">
  <advance width="619"/>
  <unicode hex="0118"/>
  <outline>
    <contour>
      <point x="204" y="0" type="line"/>
      <point x="204" y="157.5" type="line"/>
      <point x="557.5" y="157.5" type="line"/>
      <point x="557.5" y="0" type="line"/>
    </contour>
    <contour>
      <point x="204" y="542.5" type="line"/>
      <point x="204" y="700" type="line"/>
      <point x="557.5" y="700" type="line"/>
      <point x="557.5" y="542.5" type="line"/>
    </contour>
    <contour>
      <point x="204" y="287.5" type="line"/>
      <point x="204" y="440.5" type="line"/>
      <point x="537.5" y="440.5" type="line"/>
      <point x="537.5" y="287.5" type="line"/>
    </contour>
    <contour>
      <point x="72" y="700" type="line"/>
      <point x="258.5" y="700" type="line"/>
      <point x="258.5" y="0" type="line"/>
      <point x="72" y="0" type="line"/>
    </contour>
    <contour>
      <point x="527" y="-103.5" type="curve"/>
      <point x="560.5" y="-177.5" type="line"/>
      <point x="545.5" y="-197.5"/>
      <point x="515.5" y="-217.5"/>
      <point x="456" y="-217.5" type="curve" smooth="yes"/>
      <point x="396.5" y="-217.5"/>
      <point x="340.5" y="-185"/>
      <point x="340.5" y="-117.5" type="curve"/>
      <point x="445" y="-89.5" type="line"/>
      <point x="445" y="-111"/>
      <point x="455" y="-123.5"/>
      <point x="477" y="-123.5" type="curve" smooth="yes"/>
      <point x="495" y="-123.5"/>
      <point x="513" y="-116.5"/>
    </contour>
    <contour>
      <point x="445" y="-89.5" type="curve"/>
      <point x="340.5" y="-117.5" type="line"/>
      <point x="340.5" y="-50"/>
      <point x="411" y="-9"/>
      <point x="481" y="27" type="curve"/>
      <point x="522.5" y="2.5" type="line"/>
      <point x="470.5" y="-27.5"/>
      <point x="445" y="-61"/>
    </contour>
  </outline>
</glyph>
<glyph name="eogonek" format="1">
  <advance width="591"/>
  <unicode hex="0119"/>
  <outline>
    <contour>
      <point x="96" y="194" type="line"/>
      <point x="96" y="283" type="line"/>
      <point x="540.5" y="283" type="line"/>
      <point x="555.5" y="194" type="line"/>
    </contour>
    <contour>
      <point x="375" y="242" type="line" smooth="yes"/>
      <point x="375" y="320"/>
      <point x="353" y="359.5"/>
      <point x="295.5" y="359.5" type="curve" smooth="yes"/>
      <point x="240" y="359.5"/>
      <point x="207.5" y="322"/>
      <point x="207.5" y="252" type="curve"/>
      <point x="205.5" y="230" type="line"/>
      <point x="205.5" y="140"/>
      <point x="250" y="110"/>
      <point x="299.5" y="110" type="curve" smooth="yes"/>
      <point x="350" y="110"/>
      <point x="385.5" y="127.5"/>
      <point x="404.5" y="161.5" type="curve"/>
      <point x="561.5" y="131.5" type="line"/>
      <point x="515.5" y="45.5"/>
      <point x="441.5" y="-10"/>
      <point x="306" y="-10" type="curve" smooth="yes"/>
      <point x="124.5" y="-10"/>
      <point x="31" y="91"/>
      <point x="31" y="230" type="curve" smooth="yes"/>
      <point x="31" y="247"/>
      <point x="32" y="263"/>
      <point x="35" y="279" type="curve" smooth="yes"/>
      <point x="54" y="392"/>
      <point x="140" y="470"/>
      <point x="299.5" y="470" type="curve" smooth="yes"/>
      <point x="470" y="470"/>
      <point x="557.5" y="383"/>
      <point x="557.5" y="238" type="curve" smooth="yes"/>
      <point x="557.5" y="230"/>
      <point x="557.5" y="212.5"/>
      <point x="555.5" y="194" type="curve"/>
      <point x="375" y="214" type="line"/>
    </contour>
    <contour>
      <point x="344" y="-111.5" type="curve"/>
      <point x="376.5" y="-186.5" type="line"/>
      <point x="361.5" y="-206.5"/>
      <point x="332" y="-226.5"/>
      <point x="272.5" y="-226.5" type="curve" smooth="yes"/>
      <point x="213" y="-226.5"/>
      <point x="157.5" y="-194"/>
      <point x="157.5" y="-126.5" type="curve"/>
      <point x="262" y="-98.5" type="line"/>
      <point x="262" y="-120"/>
      <point x="272" y="-131.5"/>
      <point x="294" y="-131.5" type="curve" smooth="yes"/>
      <point x="312" y="-131.5"/>
      <point x="330" y="-124.5"/>
    </contour>
    <contour>
      <point x="262" y="-98.5" type="curve"/>
      <point x="157.5" y="-126.5" type="line"/>
      <point x="157.5" y="-59"/>
      <point x="228" y="-17"/>
      <point x="298" y="19" type="curve"/>
      <point x="338.5" y="-6.5" type="line"/>
      <point x="286.5" y="-36.5"/>
      <point x="262" y="-70"/>
    </contour>
  </outline>
</glyph>
<glyph name="Ecaron" format="1">
  <advance width="619"/>
  <unicode hex="011A"/>
  <outline>
    <contour>
      <point x="204" y="0" type="line"/>
      <point x="204" y="157.5" type="line"/>
      <point x="557.5" y="157.5" type="line"/>
      <point x="557.5" y="0" type="line"/>
    </contour>
    <contour>
      <point x="204" y="542.5" type="line"/>
      <point x="204" y="700" type="line"/>
      <point x="557.5" y="700" type="line"/>
      <point x="557.5" y="542.5" type="line"/>
    </contour>
    <contour>
      <point x="204" y="287.5" type="line"/>
      <point x="204" y="440.5" type="line"/>
      <point x="537.5" y="440.5" type="line"/>
      <point x="537.5" y="287.5" type="line"/>
    </contour>
    <contour>
      <point x="72" y="700" type="line"/>
      <point x="258.5" y="700" type="line"/>
      <point x="258.5" y="0" type="line"/>
      <point x="72" y="0" type="line"/>
    </contour>
    <contour>
      <point x="314" y="916" type="line"/>
      <point x="400" y="999" type="line"/>
      <point x="523" y="918" type="line"/>
      <point x="314" y="778" type="line"/>
      <point x="105.5" y="918" type="line"/>
      <point x="228.5" y="999" type="line"/>
    </contour>
  </outline>
</glyph>
<glyph name="gcircumflex" format="1">
  <advance width="622"/>
  <unicode hex="011D"/>
  <outline>
    <contour>
      <point x="448" y="238" type="curve"/>
      <point x="404" y="238" type="line"/>
      <point x="404" y="303.5"/>
      <point x="355" y="334"/>
      <point x="309.5" y="334" type="curve" smooth="yes"/>
      <point x="257" y="334"/>
      <point x="213.5" y="299.5"/>
      <point x="213.5" y="238" type="curve"/>
      <point x="31" y="238" type="line"/>
      <point x="31" y="395.5"/>
      <point x="138" y="470"/>
      <point x="246.5" y="470" type="curve" smooth="yes"/>
      <point x="361.5" y="470"/>
      <point x="448" y="387"/>
    </contour>
    <contour>
      <point x="404" y="238" type="curve"/>
      <point x="448" y="238" type="line"/>
      <point x="448" y="89"/>
      <point x="361.5" y="6"/>
      <point x="246.5" y="6" type="curve" smooth="yes"/>
      <point x="138" y="6"/>
      <point x="31" y="80.5"/>
      <point x="31" y="238" type="curve"/>
      <point x="213.5" y="238" type="line"/>
      <point x="213.5" y="176.5"/>
      <point x="257" y="142"/>
      <point x="309.5" y="142" type="curve" smooth="yes"/>
      <point x="355" y="142"/>
      <point x="404" y="172.5"/>
    </contour>
    <contour>
      <point x="41" y="-34" type="curve"/>
      <point x="207.5" y="-34" type="line"/>
      <point x="214" y="-87.5"/>
      <point x="250" y="-106.5"/>
      <point x="299.5" y="-106.5" type="curve" smooth="yes"/>
      <point x="361.5" y="-106.5"/>
      <point x="404" y="-65.5"/>
      <point x="404" y="10" type="curve" smooth="yes"/>
      <point x="404" y="460" type="line"/>
      <point x="569" y="460" type="line"/>
      <point x="569" y="10" type="line" smooth="yes"/>
      <point x="569" y="-173.5"/>
      <point x="455.5" y="-242.5"/>
      <point x="308" y="-242.5" type="curve" smooth="yes"/>
      <point x="124.5" y="-242.5"/>
      <point x="55.5" y="-157"/>
    </contour>
    <contour>
      <point x="319.5" y="613.5" type="line"/>
      <point x="234.5" y="530.5" type="line"/>
      <point x="111.5" y="611.5" type="line"/>
      <point x="319.5" y="751.5" type="line"/>
      <point x="528.5" y="611.5" type="line"/>
      <point x="405.5" y="530.5" type="line"/>
    </contour>
  </outline>
</glyph>
<glyph name="Gbreve" format="1">
  <advance width="826"/>
  <unicode hex="011E"/>
  <outline>
    <contour>
      <point x="425" y="246.5" type="line"/>
      <point x="425" y="391.5" type="line"/>
      <point x="788.5" y="391.5" type="line"/>
      <point x="689" y="246.5" type="line"/>
    </contour>
    <contour>
      <point x="788.5" y="391.5" type="line"/>
      <point x="804.5" y="161"/>
      <point x="670" y="-26"/>
      <point x="423.5" y="-26" type="curve" smooth="yes"/>
      <point x="195" y="-26"/>
      <point x="32" y="124.5"/>
      <point x="32" y="350" type="curve" smooth="yes"/>
      <point x="32" y="575.5"/>
      <point x="203" y="718"/>
      <point x="431.5" y="718" type="curve" smooth="yes"/>
      <point x="585" y="718"/>
      <point x="687" y="644"/>
      <point x="755" y="547" type="curve"/>
      <point x="577" y="462" type="line"/>
      <point x="549" y="511.5"/>
      <point x="506" y="551.5"/>
      <point x="431.5" y="551.5" type="curve" smooth="yes"/>
      <point x="324" y="551.5"/>
      <point x="235.5" y="480.5"/>
      <point x="235.5" y="350" type="curve" smooth="yes"/>
      <point x="235.5" y="219.5"/>
      <point x="316" y="140"/>
      <point x="431.5" y="140" type="curve" smooth="yes"/>
      <point x="583.5" y="140"/>
      <point x="618" y="256"/>
      <point x="618" y="390" type="curve"/>
    </contour>
    <contour>
      <point x="265.5" y="926" type="curve"/>
      <point x="373" y="926" type="line"/>
      <point x="373" y="887.5"/>
      <point x="402" y="871.5"/>
      <point x="431.5" y="871.5" type="curve" smooth="yes"/>
      <point x="461" y="871.5"/>
      <point x="490" y="887.5"/>
      <point x="490" y="926" type="curve"/>
      <point x="598" y="926" type="line"/>
      <point x="598" y="840.5"/>
      <point x="536.5" y="778"/>
      <point x="431.5" y="778" type="curve" smooth="yes"/>
      <point x="326.5" y="778"/>
      <point x="265.5" y="840.5"/>
    </contour>
  </outline>
</glyph>
<glyph name="gbreve" format="1">
  <advance width="622"/>
  <unicode hex="011F"/>
  <outline>
    <contour>
      <point x="448" y="238" type="curve"/>
      <point x="404" y="238" type="line"/>
      <point x="404" y="303.5"/>
      <point x="355" y="334"/>
      <point x="309.5" y="334" type="curve" smooth="yes"/>
      <point x="257" y="334"/>
      <point x="213.5" y="299.5"/>
      <point x="213.5" y="238" type="curve"/>
      <point x="31" y="238" type="line"/>
      <point x="31" y="395.5"/>
      <point x="138" y="470"/>
      <point x="246.5" y="470" type="curve" smooth="yes"/>
      <point x="361.5" y="470"/>
      <point x="448" y="387"/>
    </contour>
    <contour>
      <point x="404" y="238" type="curve"/>
      <point x="448" y="238" type="line"/>
      <point x="448" y="89"/>
      <point x="361.5" y="6"/>
      <point x="246.5" y="6" type="curve" smooth="yes"/>
      <point x="138" y="6"/>
      <point x="31" y="80.5"/>
      <point x="31" y="238" type="curve"/>
      <point x="213.5" y="238" type="line"/>
      <point x="213.5" y="176.5"/>
      <point x="257" y="142"/>
      <point x="309.5" y="142" type="curve" smooth="yes"/>
      <point x="355" y="142"/>
      <point x="404" y="172.5"/>
    </contour>
    <contour>
      <point x="41" y="-34" type="curve"/>
      <point x="207.5" y="-34" type="line"/>
      <point x="214" y="-87.5"/>
      <point x="250" y="-106.5"/>
      <point x="299.5" y="-106.5" type="curve" smooth="yes"/>
      <point x="361.5" y="-106.5"/>
      <point x="404" y="-65.5"/>
      <point x="404" y="10" type="curve" smooth="yes"/>
      <point x="404" y="460" type="line"/>
      <point x="569" y="460" type="line"/>
      <point x="569" y="10" type="line" smooth="yes"/>
      <point x="569" y="-173.5"/>
      <point x="455.5" y="-242.5"/>
      <point x="308" y="-242.5" type="curve" smooth="yes"/>
      <point x="124.5" y="-242.5"/>
      <point x="55.5" y="-157"/>
    </contour>
    <contour>
      <point x="161.5" y="679" type="curve"/>
      <point x="269.5" y="679" type="line"/>
      <point x="269.5" y="640.5"/>
      <point x="298.5" y="624.5"/>
      <point x="328" y="624.5" type="curve" smooth="yes"/>
      <point x="357.5" y="624.5"/>
      <point x="386.5" y="640.5"/>
      <point x="386.5" y="679" type="curve"/>
      <point x="494.5" y="679" type="line"/>
      <point x="494.5" y="593.5"/>
      <point x="433" y="530.5"/>
      <point x="328" y="530.5" type="curve" smooth="yes"/>
      <point x="223" y="530.5"/>
      <point x="161.5" y="593.5"/>
    </contour>
  </outline>
</glyph>
<glyph name="Gdotaccent" format="1">
  <advance width="826"/>
  <unicode hex="0120"/>
  <outline>
    <contour>
      <point x="425" y="246.5" type="line"/>
      <point x="425" y="391.5" type="line"/>
      <point x="788.5" y="391.5" type="line"/>
      <point x="689" y="246.5" type="line"/>
    </contour>
    <contour>
      <point x="788.5" y="391.5" type="line"/>
      <point x="804.5" y="161"/>
      <point x="670" y="-26"/>
      <point x="423.5" y="-26" type="curve" smooth="yes"/>
      <point x="195" y="-26"/>
      <point x="32" y="124.5"/>
      <point x="32" y="350" type="curve" smooth="yes"/>
      <point x="32" y="575.5"/>
      <point x="203" y="718"/>
      <point x="431.5" y="718" type="curve" smooth="yes"/>
      <point x="585" y="718"/>
      <point x="687" y="644"/>
      <point x="755" y="547" type="curve"/>
      <point x="577" y="462" type="line"/>
      <point x="549" y="511.5"/>
      <point x="506" y="551.5"/>
      <point x="431.5" y="551.5" type="curve" smooth="yes"/>
      <point x="324" y="551.5"/>
      <point x="235.5" y="480.5"/>
      <point x="235.5" y="350" type="curve" smooth="yes"/>
      <point x="235.5" y="219.5"/>
      <point x="316" y="140"/>
      <point x="431.5" y="140" type="curve" smooth="yes"/>
      <point x="583.5" y="140"/>
      <point x="618" y="256"/>
      <point x="618" y="390" type="curve"/>
    </contour>
    <contour>
      <point x="333.5" y="868" type="curve" smooth="yes"/>
      <point x="333.5" y="921.5"/>
      <point x="377" y="958"/>
      <point x="431.5" y="958" type="curve" smooth="yes"/>
      <point x="486" y="958"/>
      <point x="529.5" y="921.5"/>
      <point x="529.5" y="868" type="curve" smooth="yes"/>
      <point x="529.5" y="814.5"/>
      <point x="486" y="778"/>
      <point x="431.5" y="778" type="curve" smooth="yes"/>
      <point x="377" y="778"/>
      <point x="333.5" y="814.5"/>
    </contour>
  </outline>
</glyph>
<glyph name="uni0122" format="1">
  <advance width="826"/>
  <unicode hex="0122"/>
  <outline>
    <contour>
      <point x="425" y="246" type="line"/>
      <point x="425" y="392" type="line"/>
      <point x="788" y="392" type="line"/>
      <point x="689" y="246" type="line"/>
    </contour>
    <contour>
      <point x="788" y="392" type="line"/>
      <point x="804" y="162"/>
      <point x="670" y="-26"/>
      <point x="424" y="-26" type="curve" smooth="yes"/>
      <point x="196" y="-26"/>
      <point x="32" y="124"/>
      <point x="32" y="350" type="curve" smooth="yes"/>
      <point x="32" y="576"/>
      <point x="204" y="718"/>
      <point x="432" y="718" type="curve" smooth="yes"/>
      <point x="586" y="718"/>
      <point x="687" y="644"/>
      <point x="755" y="547" type="curve"/>
      <point x="577" y="462" type="line"/>
      <point x="549" y="512"/>
      <point x="506" y="552"/>
      <point x="432" y="552" type="curve" smooth="yes"/>
      <point x="324" y="552"/>
      <point x="236" y="480"/>
      <point x="236" y="350" type="curve" smooth="yes"/>
      <point x="236" y="220"/>
      <point x="316" y="140"/>
      <point x="432" y="140" type="curve" smooth="yes"/>
      <point x="584" y="140"/>
      <point x="618" y="256"/>
      <point x="618" y="390" type="curve"/>
    </contour>
    <contour>
      <point x="340" y="-86" type="line"/>
      <point x="514" y="-120" type="line"/>
      <point x="383" y="-370" type="line"/>
      <point x="252" y="-346" type="line"/>
    </contour>
  </outline>
</glyph>
<glyph name="hcircumflex" format="1">
  <advance width="581"/>
  <unicode hex="0125"/>
  <outline>
    <contour>
      <point x="228" y="780" type="line"/>
      <point x="228" y="0" type="line"/>
      <point x="55" y="0" type="line"/>
      <point x="55" y="780" type="line"/>
    </contour>
    <contour>
      <point x="354" y="280" type="line" smooth="yes"/>
      <point x="354" y="328"/>
      <point x="341" y="355"/>
      <point x="296" y="355" type="curve" smooth="yes"/>
      <point x="254" y="355"/>
      <point x="228" y="330"/>
      <point x="228" y="280" type="curve"/>
      <point x="200" y="280" type="line"/>
      <point x="200" y="389"/>
      <point x="250" y="479"/>
      <point x="370" y="479" type="curve" smooth="yes"/>
      <point x="490" y="479"/>
      <point x="528" y="416"/>
      <point x="528" y="306" type="curve" smooth="yes"/>
      <point x="528" y="0" type="line"/>
      <point x="354" y="0" type="line"/>
    </contour>
    <contour>
      <point x="265" y="923" type="line"/>
      <point x="180" y="840" type="line"/>
      <point x="56" y="920" type="line"/>
      <point x="265" y="1060" type="line"/>
      <point x="474" y="920" type="line"/>
      <point x="350" y="840" type="line"/>
    </contour>
  </outline>
</glyph>
<glyph name="Itilde" format="1">
  <advance width="342"/>
  <unicode hex="0128"/>
  <outline>
    <contour>
      <point x="72" y="700" type="line"/>
      <point x="270" y="700" type="line"/>
      <point x="270" y="0" type="line"/>
      <point x="72" y="0" type="line"/>
    </contour>
    <contour>
      <point x="-34" y="852" type="line"/>
      <point x="-24" y="901"/>
      <point x="20" y="950"/>
      <point x="90" y="950" type="curve" smooth="yes"/>
      <point x="156" y="950"/>
      <point x="173" y="897"/>
      <point x="230" y="897" type="curve" smooth="yes"/>
      <point x="258" y="897"/>
      <point x="279" y="920"/>
      <point x="299" y="952" type="curve"/>
      <point x="378" y="868" type="line"/>
      <point x="362" y="831"/>
      <point x="300" y="779"/>
      <point x="234" y="779" type="curve" smooth="yes"/>
      <point x="179" y="779"/>
      <point x="141" y="834"/>
      <point x="90" y="834" type="curve" smooth="yes"/>
      <point x="53" y="834"/>
      <point x="43" y="798"/>
      <point x="43" y="783" type="curve"/>
    </contour>
  </outline>
</glyph>
<glyph name="Iogonek" format="1">
  <advance width="342"/>
  <unicode hex="012E"/>
  <outline>
    <contour>
      <point x="72" y="700" type="line"/>
      <point x="270" y="700" type="line"/>
      <point x="270" y="0" type="line"/>
      <point x="72" y="0" type="line"/>
    </contour>
    <contour>
      <point x="241" y="-106" type="curve"/>
      <point x="275" y="-180" type="line"/>
      <point x="260" y="-200"/>
      <point x="231" y="-220"/>
      <point x="171" y="-220" type="curve" smooth="yes"/>
      <point x="111" y="-220"/>
      <point x="55" y="-188"/>
      <point x="55" y="-120" type="curve"/>
      <point x="160" y="-92" type="line"/>
      <point x="160" y="-114"/>
      <point x="169" y="-126"/>
      <point x="191" y="-126" type="curve" smooth="yes"/>
      <point x="209" y="-126"/>
      <point x="227" y="-119"/>
    </contour>
    <contour>
      <point x="160" y="-92" type="curve"/>
      <point x="55" y="-120" type="line"/>
      <point x="55" y="-52"/>
      <point x="125" y="-12"/>
      <point x="195" y="24" type="curve"/>
      <point x="237" y="-0" type="line"/>
      <point x="185" y="-30"/>
      <point x="160" y="-64"/>
    </contour>
  </outline>
</glyph>
<glyph name="iogonek" format="1">
  <advance width="281"/>
  <unicode hex="012F"/>
  <outline>
    <contour>
      <point x="42.5" y="627" type="curve" smooth="yes"/>
      <point x="42.5" y="680.5"/>
      <point x="86" y="717"/>
      <point x="140.5" y="717" type="curve" smooth="yes"/>
      <point x="195" y="717"/>
      <point x="238.5" y="680.5"/>
      <point x="238.5" y="627" type="curve" smooth="yes"/>
      <point x="238.5" y="573.5"/>
      <point x="195" y="537"/>
      <point x="140.5" y="537" type="curve" smooth="yes"/>
      <point x="86" y="537"/>
      <point x="42.5" y="573.5"/>
    </contour>
    <contour>
      <point x="56.5" y="460" type="line"/>
      <point x="223.5" y="460" type="line"/>
      <point x="223.5" y="0" type="line"/>
      <point x="56.5" y="0" type="line"/>
    </contour>
    <contour>
      <point x="210" y="-106.5" type="curve"/>
      <point x="244" y="-180.5" type="line"/>
      <point x="229" y="-200.5"/>
      <point x="199.5" y="-220.5"/>
      <point x="140" y="-220.5" type="curve" smooth="yes"/>
      <point x="80.5" y="-220.5"/>
      <point x="24" y="-188"/>
      <point x="24" y="-120.5" type="curve"/>
      <point x="128.5" y="-92.5" type="line"/>
      <point x="128.5" y="-114"/>
      <point x="138" y="-126.5"/>
      <point x="160" y="-126.5" type="curve" smooth="yes"/>
      <point x="178" y="-126.5"/>
      <point x="196" y="-119.5"/>
    </contour>
    <contour>
      <point x="128.5" y="-92.5" type="curve"/>
      <point x="24" y="-120.5" type="line"/>
      <point x="24" y="-53"/>
      <point x="94" y="-12"/>
      <point x="164" y="24" type="curve"/>
      <point x="206" y="-0.5" type="line"/>
      <point x="154" y="-30.5"/>
      <point x="128.5" y="-64"/>
    </contour>
  </outline>
</glyph>
<glyph name="Idotaccent" format="1">
  <advance width="342"/>
  <unicode hex="0130"/>
  <outline>
    <contour>
      <point x="72" y="700" type="line"/>
      <point x="270.5" y="700" type="line"/>
      <point x="270.5" y="0" type="line"/>
      <point x="72" y="0" type="line"/>
    </contour>
    <contour>
      <point x="73" y="868" type="curve" smooth="yes"/>
      <point x="73" y="921.5"/>
      <point x="116.5" y="958"/>
      <point x="171" y="958" type="curve" smooth="yes"/>
      <point x="225.5" y="958"/>
      <point x="269" y="921.5"/>
      <point x="269" y="868" type="curve" smooth="yes"/>
      <point x="269" y="814.5"/>
      <point x="225.5" y="778"/>
      <point x="171" y="778" type="curve" smooth="yes"/>
      <point x="116.5" y="778"/>
      <point x="73" y="814.5"/>
    </contour>
  </outline>
</glyph>
<glyph name="Ldot" format="1">
  <advance width="551"/>
  <unicode hex="013F"/>
  <outline>
    <contour>
      <point x="204" y="0" type="line"/>
      <point x="204" y="166" type="line"/>
      <point x="550" y="166" type="line"/>
      <point x="550" y="0" type="line"/>
    </contour>
    <contour>
      <point x="72" y="700" type="line"/>
      <point x="266" y="700" type="line"/>
      <point x="266" y="0" type="line"/>
      <point x="72" y="0" type="line"/>
    </contour>
    <contour>
      <point x="329" y="419" type="curve" smooth="yes"/>
      <point x="329" y="475"/>
      <point x="374" y="522"/>
      <point x="436" y="522" type="curve" smooth="yes"/>
      <point x="498" y="522"/>
      <point x="542" y="475"/>
      <point x="542" y="419" type="curve" smooth="yes"/>
      <point x="542" y="363"/>
      <point x="498" y="316"/>
      <point x="436" y="316" type="curve" smooth="yes"/>
      <point x="374" y="316"/>
      <point x="329" y="363"/>
    </contour>
  </outline>
</glyph>
<glyph name="ldot" format="1">
  <advance width="508"/>
  <unicode hex="0140"/>
  <outline>
    <contour>
      <point x="55" y="780" type="line"/>
      <point x="228.5" y="780" type="line"/>
      <point x="228.5" y="0" type="line"/>
      <point x="55" y="0" type="line"/>
    </contour>
    <contour>
      <point x="263.5" y="406.5" type="curve" smooth="yes"/>
      <point x="263.5" y="463"/>
      <point x="307.5" y="510.5"/>
      <point x="370" y="510.5" type="curve" smooth="yes"/>
      <point x="432.5" y="510.5"/>
      <point x="476.5" y="463"/>
      <point x="476.5" y="406.5" type="curve" smooth="yes"/>
      <point x="476.5" y="350"/>
      <point x="432.5" y="303"/>
      <point x="370" y="303" type="curve" smooth="yes"/>
      <point x="307.5" y="303"/>
      <point x="263.5" y="350"/>
    </contour>
  </outline>
</glyph>
<glyph name="Lslash" format="1">
  <advance width="555"/>
  <unicode hex="0141"/>
  <outline>
    <contour>
      <point x="5" y="301" type="line"/>
      <point x="-38.5" y="379.5" type="line"/>
      <point x="349" y="643.5" type="line"/>
      <point x="392.5" y="565" type="line"/>
    </contour>
    <contour>
      <point x="225" y="0" type="line"/>
      <point x="225" y="162.5" type="line"/>
      <point x="546" y="162.5" type="line"/>
      <point x="546" y="0" type="line"/>
    </contour>
    <contour>
      <point x="72" y="700" type="line"/>
      <point x="263" y="700" type="line"/>
      <point x="263" y="0" type="line"/>
      <point x="72" y="0" type="line"/>
    </contour>
  </outline>
</glyph>
<glyph name="lslash" format="1">
  <advance width="280"/>
  <unicode hex="0142"/>
  <outline>
    <contour>
      <point x="-10.5" y="301" type="line"/>
      <point x="-54" y="379.5" type="line"/>
      <point x="297.5" y="615.5" type="line"/>
      <point x="341" y="537" type="line"/>
    </contour>
    <contour>
      <point x="55.5" y="780" type="line"/>
      <point x="225.5" y="780" type="line"/>
      <point x="225.5" y="0" type="line"/>
      <point x="55.5" y="0" type="line"/>
    </contour>
  </outline>
</glyph>
<glyph name="Nacute" format="1">
  <advance width="799"/>
  <unicode hex="0143"/>
  <outline>
    <contour>
      <point x="76.5" y="499.5" type="line"/>
      <point x="72" y="735" type="line"/>
      <point x="722.5" y="200.5" type="line"/>
      <point x="727.5" y="-35" type="line"/>
    </contour>
    <contour>
      <point x="541" y="700" type="line"/>
      <point x="727.5" y="700" type="line"/>
      <point x="727.5" y="-35" type="line"/>
      <point x="541" y="172.5" type="line"/>
    </contour>
    <contour>
      <point x="72" y="735" type="line"/>
      <point x="258.5" y="527.5" type="line"/>
      <point x="258.5" y="0" type="line"/>
      <point x="72" y="0" type="line"/>
    </contour>
    <contour>
      <point x="538" y="915" type="line"/>
      <point x="358" y="765" type="line"/>
      <point x="260" y="811.5" type="line"/>
      <point x="410" y="971.5" type="line"/>
    </contour>
  </outline>
</glyph>
<glyph name="nacute" format="1">
  <advance width="590"/>
  <unicode hex="0144"/>
  <outline>
    <contour>
      <point x="228.5" y="460" type="line"/>
      <point x="228.5" y="0" type="line"/>
      <point x="55" y="0" type="line"/>
      <point x="55" y="460" type="line"/>
    </contour>
    <contour>
      <point x="354" y="280" type="line" smooth="yes"/>
      <point x="354" y="327.5"/>
      <point x="341.5" y="355"/>
      <point x="296.5" y="355" type="curve" smooth="yes"/>
      <point x="255" y="355"/>
      <point x="228.5" y="330"/>
      <point x="228.5" y="280" type="curve"/>
      <point x="200.5" y="272" type="line"/>
      <point x="200.5" y="381"/>
      <point x="250" y="470.5"/>
      <point x="369.5" y="470.5" type="curve" smooth="yes"/>
      <point x="489" y="470.5"/>
      <point x="535.5" y="408.5"/>
      <point x="535.5" y="298" type="curve" smooth="yes"/>
      <point x="535.5" y="0" type="line"/>
      <point x="354" y="0" type="line"/>
    </contour>
    <contour>
      <point x="465" y="680.5" type="line"/>
      <point x="285" y="530.5" type="line"/>
      <point x="187.5" y="577" type="line"/>
      <point x="337.5" y="737" type="line"/>
    </contour>
  </outline>
</glyph>
<glyph name="Obreve" format="1">
  <advance width="830"/>
  <unicode hex="014E"/>
  <outline>
    <contour>
      <point x="238" y="350" type="curve" smooth="yes"/>
      <point x="238" y="236"/>
      <point x="307" y="159"/>
      <point x="415" y="159" type="curve" smooth="yes"/>
      <point x="523" y="159"/>
      <point x="592" y="236"/>
      <point x="592" y="350" type="curve" smooth="yes"/>
      <point x="592" y="464"/>
      <point x="527" y="541"/>
      <point x="415" y="541" type="curve" smooth="yes"/>
      <point x="307" y="541"/>
      <point x="238" y="464"/>
    </contour>
    <contour>
      <point x="32" y="350" type="curve" smooth="yes"/>
      <point x="32" y="570"/>
      <point x="199" y="718"/>
      <point x="415" y="718" type="curve" smooth="yes"/>
      <point x="635" y="718"/>
      <point x="799" y="570"/>
      <point x="799" y="350" type="curve" smooth="yes"/>
      <point x="799" y="130"/>
      <point x="639" y="-26"/>
      <point x="415" y="-26" type="curve" smooth="yes"/>
      <point x="191" y="-26"/>
      <point x="32" y="130"/>
    </contour>
    <contour>
      <point x="249" y="926" type="curve"/>
      <point x="357" y="926" type="line"/>
      <point x="357" y="888"/>
      <point x="385" y="872"/>
      <point x="415" y="872" type="curve" smooth="yes"/>
      <point x="445" y="872"/>
      <point x="474" y="888"/>
      <point x="474" y="926" type="curve"/>
      <point x="582" y="926" type="line"/>
      <point x="582" y="840"/>
      <point x="520" y="778"/>
      <point x="415" y="778" type="curve" smooth="yes"/>
      <point x="310" y="778"/>
      <point x="249" y="840"/>
    </contour>
  </outline>
</glyph>
<glyph name="obreve" format="1">
  <advance width="602"/>
  <unicode hex="014F"/>
  <outline>
    <contour>
      <point x="31" y="230" type="curve" smooth="yes"/>
      <point x="31" y="378"/>
      <point x="147" y="470"/>
      <point x="302" y="470" type="curve" smooth="yes"/>
      <point x="457" y="470"/>
      <point x="572" y="378"/>
      <point x="572" y="230" type="curve" smooth="yes"/>
      <point x="572" y="82"/>
      <point x="457" y="-10"/>
      <point x="302" y="-10" type="curve" smooth="yes"/>
      <point x="147" y="-10"/>
      <point x="31" y="82"/>
    </contour>
    <contour>
      <point x="210" y="230" type="curve" smooth="yes"/>
      <point x="210" y="166"/>
      <point x="252" y="130"/>
      <point x="302" y="130" type="curve" smooth="yes"/>
      <point x="352" y="130"/>
      <point x="394" y="166"/>
      <point x="394" y="230" type="curve" smooth="yes"/>
      <point x="394" y="294"/>
      <point x="352" y="331"/>
      <point x="302" y="331" type="curve" smooth="yes"/>
      <point x="252" y="331"/>
      <point x="210" y="294"/>
    </contour>
    <contour>
      <point x="135" y="679" type="curve"/>
      <point x="243" y="679" type="line"/>
      <point x="243" y="641"/>
      <point x="272" y="624"/>
      <point x="302" y="624" type="curve" smooth="yes"/>
      <point x="332" y="624"/>
      <point x="360" y="641"/>
      <point x="360" y="679" type="curve"/>
      <point x="468" y="679" type="line"/>
      <point x="468" y="593"/>
      <point x="407" y="530"/>
      <point x="302" y="530" type="curve" smooth="yes"/>
      <point x="197" y="530"/>
      <point x="135" y="593"/>
    </contour>
  </outline>
</glyph>
<glyph name="OE" format="1">
  <advance width="985"/>
  <unicode hex="0152"/>
  <outline>
    <contour>
      <point x="562" y="288" type="line"/>
      <point x="562" y="440" type="line"/>
      <point x="940" y="440" type="line"/>
      <point x="940" y="288" type="line"/>
    </contour>
    <contour>
      <point x="474" y="670" type="line"/>
      <point x="661" y="670" type="line"/>
      <point x="661" y="30" type="line"/>
      <point x="474" y="30" type="line"/>
    </contour>
    <contour>
      <point x="960" y="158" type="line"/>
      <point x="960" y="0" type="line"/>
      <point x="390" y="0" type="line" smooth="yes"/>
      <point x="187" y="0"/>
      <point x="32" y="141"/>
      <point x="32" y="350" type="curve" smooth="yes"/>
      <point x="32" y="559"/>
      <point x="186" y="700"/>
      <point x="390" y="700" type="curve" smooth="yes"/>
      <point x="960" y="700" type="line"/>
      <point x="960" y="542" type="line"/>
      <point x="568" y="542" type="line"/>
      <point x="551" y="530" type="line"/>
      <point x="430" y="530" type="line" smooth="yes"/>
      <point x="296" y="530"/>
      <point x="235" y="472"/>
      <point x="235" y="350" type="curve" smooth="yes"/>
      <point x="235" y="228"/>
      <point x="298" y="170"/>
      <point x="430" y="170" type="curve" smooth="yes"/>
      <point x="548" y="170" type="line"/>
      <point x="572" y="158" type="line"/>
    </contour>
  </outline>
</glyph>
<glyph name="Scircumflex" format="1">
  <advance width="648"/>
  <unicode hex="015C"/>
  <outline>
    <contour>
      <point x="165.5" y="258.5" type="line"/>
      <point x="215.5" y="178.5"/>
      <point x="261" y="141.5"/>
      <point x="331.5" y="141.5" type="curve" smooth="yes"/>
      <point x="379" y="141.5"/>
      <point x="406" y="158.5"/>
      <point x="406" y="196" type="curve" smooth="yes"/>
      <point x="406" y="245.5"/>
      <point x="348" y="258.5"/>
      <point x="268" y="291" type="curve" smooth="yes"/>
      <point x="199.5" y="318.5"/>
      <point x="74" y="373.5"/>
      <point x="74" y="515" type="curve" smooth="yes"/>
      <point x="74" y="637"/>
      <point x="179.5" y="718"/>
      <point x="334" y="718" type="curve" smooth="yes"/>
      <point x="495.5" y="718"/>
      <point x="574" y="634"/>
      <point x="602" y="563" type="curve"/>
      <point x="457" y="481.5" type="line"/>
      <point x="427" y="531.5"/>
      <point x="390" y="555.5"/>
      <point x="343" y="555.5" type="curve" smooth="yes"/>
      <point x="300.5" y="555.5"/>
      <point x="273" y="537.5"/>
      <point x="273" y="509" type="curve" smooth="yes"/>
      <point x="273" y="467"/>
      <point x="350.5" y="447.5"/>
      <point x="433" y="418" type="curve" smooth="yes"/>
      <point x="538" y="381.5"/>
      <point x="611.5" y="316.5"/>
      <point x="611.5" y="198" type="curve" smooth="yes"/>
      <point x="611.5" y="48.5"/>
      <point x="499" y="-26"/>
      <point x="327.5" y="-26" type="curve" smooth="yes"/>
      <point x="196" y="-26"/>
      <point x="76" y="48"/>
      <point x="32" y="163" type="curve"/>
    </contour>
    <contour>
      <point x="334" y="861" type="line"/>
      <point x="248.5" y="778" type="line"/>
      <point x="125.5" y="859" type="line"/>
      <point x="334" y="999" type="line"/>
      <point x="542.5" y="859" type="line"/>
      <point x="419.5" y="778" type="line"/>
    </contour>
  </outline>
</glyph>
<glyph name="scircumflex" format="1">
  <advance width="472"/>
  <unicode hex="015D"/>
  <outline>
    <contour>
      <point x="80.5" y="178.5" type="line"/>
      <point x="165.5" y="117.5"/>
      <point x="218" y="107.5"/>
      <point x="242.5" y="107.5" type="curve" smooth="yes"/>
      <point x="262.5" y="107.5"/>
      <point x="277.5" y="111.5"/>
      <point x="277.5" y="129.5" type="curve" smooth="yes"/>
      <point x="277.5" y="159"/>
      <point x="203.5" y="166"/>
      <point x="149.5" y="191.5" type="curve" smooth="yes"/>
      <point x="90" y="220.5"/>
      <point x="38" y="251.5"/>
      <point x="38" y="332.5" type="curve" smooth="yes"/>
      <point x="38" y="424.5"/>
      <point x="125" y="470"/>
      <point x="231.5" y="470" type="curve" smooth="yes"/>
      <point x="313" y="470"/>
      <point x="379.5" y="443"/>
      <point x="438" y="408.5" type="curve"/>
      <point x="387" y="293" type="line"/>
      <point x="346.5" y="330"/>
      <point x="281.5" y="349.5"/>
      <point x="244.5" y="349.5" type="curve" smooth="yes"/>
      <point x="215" y="349.5"/>
      <point x="203" y="343.5"/>
      <point x="203" y="328" type="curve" smooth="yes"/>
      <point x="203" y="303.5"/>
      <point x="263.5" y="291.5"/>
      <point x="323.5" y="269" type="curve" smooth="yes"/>
      <point x="388.5" y="244.5"/>
      <point x="450" y="213.5"/>
      <point x="450" y="130" type="curve" smooth="yes"/>
      <point x="450" y="22.5"/>
      <point x="385.5" y="-22.5"/>
      <point x="270" y="-22.5" type="curve" smooth="yes"/>
      <point x="168.5" y="-22.5"/>
      <point x="87.5" y="10"/>
      <point x="16.5" y="60.5" type="curve"/>
    </contour>
    <contour>
      <point x="248" y="613.5" type="line"/>
      <point x="162" y="530.5" type="line"/>
      <point x="39" y="611.5" type="line"/>
      <point x="248" y="751.5" type="line"/>
      <point x="456.5" y="611.5" type="line"/>
      <point x="333" y="530.5" type="line"/>
    </contour>
  </outline>
</glyph>
<glyph name="Scedilla" format="1">
  <advance width="648"/>
  <unicode hex="015E"/>
  <outline>
    <contour>
      <point x="165.5" y="258.5" type="line"/>
      <point x="215.5" y="178.5"/>
      <point x="261" y="141.5"/>
      <point x="331.5" y="141.5" type="curve" smooth="yes"/>
      <point x="379" y="141.5"/>
      <point x="406" y="158.5"/>
      <point x="406" y="196" type="curve" smooth="yes"/>
      <point x="406" y="245.5"/>
      <point x="348" y="258.5"/>
      <point x="268" y="291" type="curve" smooth="yes"/>
      <point x="199.5" y="318.5"/>
      <point x="74" y="373.5"/>
      <point x="74" y="515" type="curve" smooth="yes"/>
      <point x="74" y="637"/>
      <point x="179.5" y="718"/>
      <point x="334" y="718" type="curve" smooth="yes"/>
      <point x="495.5" y="718"/>
      <point x="574" y="634"/>
      <point x="602" y="563" type="curve"/>
      <point x="457" y="481.5" type="line"/>
      <point x="427" y="531.5"/>
      <point x="390" y="555.5"/>
      <point x="343" y="555.5" type="curve" smooth="yes"/>
      <point x="300.5" y="555.5"/>
      <point x="273" y="537.5"/>
      <point x="273" y="509" type="curve" smooth="yes"/>
      <point x="273" y="467"/>
      <point x="350.5" y="447.5"/>
      <point x="433" y="418" type="curve" smooth="yes"/>
      <point x="538" y="381.5"/>
      <point x="611.5" y="316.5"/>
      <point x="611.5" y="198" type="curve" smooth="yes"/>
      <point x="611.5" y="48.5"/>
      <point x="499" y="-26"/>
      <point x="327.5" y="-26" type="curve" smooth="yes"/>
      <point x="196" y="-26"/>
      <point x="76" y="48"/>
      <point x="32" y="163" type="curve"/>
    </contour>
    <contour>
      <point x="288.5" y="61.5" type="line"/>
      <point x="413.5" y="56.5" type="line"/>
      <point x="296" y="-100" type="line"/>
      <point x="200.5" y="-141.5" type="line"/>
    </contour>
    <contour>
      <point x="462.5" y="-168.5" type="curve"/>
      <point x="353.5" y="-157" type="line"/>
      <point x="353.5" y="-130"/>
      <point x="320" y="-126"/>
      <point x="290" y="-126" type="curve" smooth="yes"/>
      <point x="280" y="-126"/>
      <point x="240" y="-127"/>
      <point x="200.5" y="-141.5" type="curve"/>
      <point x="272" y="-96" type="line"/>
      <point x="299.5" y="-68.5"/>
      <point x="328" y="-63.5"/>
      <point x="365.5" y="-63.5" type="curve" smooth="yes"/>
      <point x="407.5" y="-63.5"/>
      <point x="462.5" y="-97.5"/>
    </contour>
    <contour>
      <point x="462.5" y="-168.5" type="line"/>
      <point x="462.5" y="-244"/>
      <point x="389.5" y="-282"/>
      <point x="324" y="-282" type="curve" smooth="yes"/>
      <point x="262.5" y="-282"/>
      <point x="216" y="-272.5"/>
      <point x="163.5" y="-242" type="curve"/>
      <point x="213" y="-165" type="line"/>
      <point x="240.5" y="-184"/>
      <point x="280" y="-190.5"/>
      <point x="298" y="-190.5" type="curve" smooth="yes"/>
      <point x="332" y="-190.5"/>
      <point x="353.5" y="-181"/>
      <point x="353.5" y="-157" type="curve"/>
    </contour>
  </outline>
</glyph>
<glyph name="scedilla" format="1">
  <advance width="472"/>
  <unicode hex="015F"/>
  <outline>
    <contour>
      <point x="80.5" y="178.5" type="line"/>
      <point x="165.5" y="117.5"/>
      <point x="218" y="107.5"/>
      <point x="242.5" y="107.5" type="curve" smooth="yes"/>
      <point x="262.5" y="107.5"/>
      <point x="277.5" y="111.5"/>
      <point x="277.5" y="129.5" type="curve" smooth="yes"/>
      <point x="277.5" y="159"/>
      <point x="203.5" y="166"/>
      <point x="149.5" y="191.5" type="curve" smooth="yes"/>
      <point x="90" y="220.5"/>
      <point x="38" y="251.5"/>
      <point x="38" y="332.5" type="curve" smooth="yes"/>
      <point x="38" y="424.5"/>
      <point x="125" y="470"/>
      <point x="231.5" y="470" type="curve" smooth="yes"/>
      <point x="313" y="470"/>
      <point x="379.5" y="443"/>
      <point x="438" y="408.5" type="curve"/>
      <point x="387" y="293" type="line"/>
      <point x="346.5" y="330"/>
      <point x="281.5" y="349.5"/>
      <point x="244.5" y="349.5" type="curve" smooth="yes"/>
      <point x="215" y="349.5"/>
      <point x="203" y="343.5"/>
      <point x="203" y="328" type="curve" smooth="yes"/>
      <point x="203" y="303.5"/>
      <point x="263.5" y="291.5"/>
      <point x="323.5" y="269" type="curve" smooth="yes"/>
      <point x="388.5" y="244.5"/>
      <point x="450" y="213.5"/>
      <point x="450" y="130" type="curve" smooth="yes"/>
      <point x="450" y="22.5"/>
      <point x="385.5" y="-22.5"/>
      <point x="270" y="-22.5" type="curve" smooth="yes"/>
      <point x="168.5" y="-22.5"/>
      <point x="87.5" y="10"/>
      <point x="16.5" y="60.5" type="curve"/>
    </contour>
    <contour>
      <point x="214.5" y="73.5" type="line"/>
      <point x="340.5" y="68.5" type="line"/>
      <point x="222.5" y="-87.5" type="line"/>
      <point x="127" y="-129" type="line"/>
    </contour>
    <contour>
      <point x="389" y="-156.5" type="curve"/>
      <point x="280" y="-144.5" type="line"/>
      <point x="280" y="-117.5"/>
      <point x="246" y="-113.5"/>
      <point x="216" y="-113.5" type="curve" smooth="yes"/>
      <point x="206" y="-113.5"/>
      <point x="166.5" y="-114.5"/>
      <point x="127" y="-129" type="curve"/>
      <point x="198.5" y="-83.5" type="line"/>
      <point x="226" y="-56"/>
      <point x="254" y="-51.5"/>
      <point x="291.5" y="-51.5" type="curve" smooth="yes"/>
      <point x="333.5" y="-51.5"/>
      <point x="389" y="-85.5"/>
    </contour>
    <contour>
      <point x="389" y="-156.5" type="line"/>
      <point x="389" y="-232"/>
      <point x="316" y="-269.5"/>
      <point x="250.5" y="-269.5" type="curve" smooth="yes"/>
      <point x="189" y="-269.5"/>
      <point x="142.5" y="-261"/>
      <point x="90" y="-230.5" type="curve"/>
      <point x="139" y="-152.5" type="line"/>
      <point x="166.5" y="-171.5"/>
      <point x="206.5" y="-178.5"/>
      <point x="224.5" y="-178.5" type="curve" smooth="yes"/>
      <point x="258.5" y="-178.5"/>
      <point x="280" y="-168.5"/>
      <point x="280" y="-144.5" type="curve"/>
    </contour>
  </outline>
</glyph>
<glyph name="scaron" format="1">
  <advance width="472"/>
  <unicode hex="0161"/>
  <outline>
    <contour>
      <point x="80" y="178" type="line"/>
      <point x="165" y="117"/>
      <point x="218" y="108"/>
      <point x="242" y="108" type="curve" smooth="yes"/>
      <point x="262" y="108"/>
      <point x="278" y="112"/>
      <point x="278" y="130" type="curve" smooth="yes"/>
      <point x="278" y="160"/>
      <point x="204" y="166"/>
      <point x="150" y="192" type="curve" smooth="yes"/>
      <point x="90" y="221"/>
      <point x="38" y="251"/>
      <point x="38" y="332" type="curve" smooth="yes"/>
      <point x="38" y="424"/>
      <point x="126" y="470"/>
      <point x="232" y="470" type="curve" smooth="yes"/>
      <point x="314" y="470"/>
      <point x="380" y="442"/>
      <point x="438" y="408" type="curve"/>
      <point x="387" y="293" type="line"/>
      <point x="347" y="330"/>
      <point x="281" y="350"/>
      <point x="244" y="350" type="curve" smooth="yes"/>
      <point x="214" y="350"/>
      <point x="203" y="344"/>
      <point x="203" y="328" type="curve" smooth="yes"/>
      <point x="203" y="304"/>
      <point x="264" y="291"/>
      <point x="324" y="269" type="curve" smooth="yes"/>
      <point x="389" y="245"/>
      <point x="450" y="214"/>
      <point x="450" y="130" type="curve" smooth="yes"/>
      <point x="450" y="22"/>
      <point x="386" y="-22"/>
      <point x="270" y="-22" type="curve" smooth="yes"/>
      <point x="168" y="-22"/>
      <point x="87" y="10"/>
      <point x="16" y="60" type="curve"/>
    </contour>
    <contour>
      <point x="232" y="652" type="line"/>
      <point x="317" y="736" type="line"/>
      <point x="440" y="654" type="line"/>
      <point x="232" y="514" type="line"/>
      <point x="23" y="654" type="line"/>
      <point x="146" y="736" type="line"/>
    </contour>
  </outline>
</glyph>
<glyph name="Ydieresis" format="1">
  <advance width="690"/>
  <unicode hex="0178"/>
  <outline>
    <contour>
      <point x="246" y="360" type="line"/>
      <point x="444.5" y="360" type="line"/>
      <point x="444.5" y="0" type="line"/>
      <point x="246" y="0" type="line"/>
    </contour>
    <contour>
      <point x="468" y="700" type="line"/>
      <point x="693.5" y="700" type="line"/>
      <point x="345" y="111" type="line"/>
      <point x="-3.5" y="700" type="line"/>
      <point x="222" y="700" type="line"/>
      <point x="345" y="455.5" type="line"/>
    </contour>
    <contour>
      <point x="400.5" y="876.5" type="curve" smooth="yes"/>
      <point x="400.5" y="930"/>
      <point x="444" y="966.5"/>
      <point x="498.5" y="966.5" type="curve" smooth="yes"/>
      <point x="553" y="966.5"/>
      <point x="596.5" y="930"/>
      <point x="596.5" y="876.5" type="curve" smooth="yes"/>
      <point x="596.5" y="823"/>
      <point x="553" y="786.5"/>
      <point x="498.5" y="786.5" type="curve" smooth="yes"/>
      <point x="444" y="786.5"/>
      <point x="400.5" y="823"/>
    </contour>
    <contour>
      <point x="93.5" y="876.5" type="curve" smooth="yes"/>
      <point x="93.5" y="930"/>
      <point x="137" y="966.5"/>
      <point x="191.5" y="966.5" type="curve" smooth="yes"/>
      <point x="246" y="966.5"/>
      <point x="289.5" y="930"/>
      <point x="289.5" y="876.5" type="curve" smooth="yes"/>
      <point x="289.5" y="823"/>
      <point x="246" y="786.5"/>
      <point x="191.5" y="786.5" type="curve" smooth="yes"/>
      <point x="137" y="786.5"/>
      <point x="93.5" y="823"/>
    </contour>
  </outline>
</glyph>
<glyph name="zacute" format="1">
  <advance width="541"/>
  <unicode hex="017A"/>
  <outline>
    <contour>
      <point x="243" y="304" type="line"/>
      <point x="62" y="304" type="line"/>
      <point x="62" y="460" type="line"/>
      <point x="526" y="460" type="line"/>
      <point x="314" y="156" type="line"/>
      <point x="490" y="156" type="line"/>
      <point x="490" y="0" type="line"/>
      <point x="15" y="0" type="line"/>
    </contour>
    <contour>
      <point x="474" y="680" type="line"/>
      <point x="294" y="530" type="line"/>
      <point x="196" y="576" type="line"/>
      <point x="346" y="736" type="line"/>
    </contour>
  </outline>
</glyph>
<glyph name="Zdotaccent" format="1">
  <advance width="642"/>
  <unicode hex="017B"/>
  <outline>
    <contour>
      <point x="64" y="526" type="line"/>
      <point x="64" y="700" type="line"/>
      <point x="630" y="700" type="line"/>
      <point x="310" y="166" type="line"/>
      <point x="590" y="166" type="line"/>
      <point x="590" y="0" type="line"/>
      <point x="6" y="0" type="line"/>
      <point x="321" y="526" type="line"/>
    </contour>
    <contour>
      <point x="249" y="868" type="curve" smooth="yes"/>
      <point x="249" y="921.5"/>
      <point x="292.5" y="958"/>
      <point x="347" y="958" type="curve" smooth="yes"/>
      <point x="401.5" y="958"/>
      <point x="445" y="921.5"/>
      <point x="445" y="868" type="curve" smooth="yes"/>
      <point x="445" y="814.5"/>
      <point x="401.5" y="778"/>
      <point x="347" y="778" type="curve" smooth="yes"/>
      <point x="292.5" y="778"/>
      <point x="249" y="814.5"/>
    </contour>
  </outline>
</glyph>
<glyph name="zdotaccent" format="1">
  <advance width="541"/>
  <unicode hex="017C"/>
  <outline>
    <contour>
      <point x="243" y="304" type="line"/>
      <point x="62" y="304" type="line"/>
      <point x="62" y="460" type="line"/>
      <point x="526" y="460" type="line"/>
      <point x="314" y="156" type="line"/>
      <point x="490" y="156" type="line"/>
      <point x="490" y="0" type="line"/>
      <point x="15" y="0" type="line"/>
    </contour>
    <contour>
      <point x="196" y="630" type="curve" smooth="yes"/>
      <point x="196" y="683.5"/>
      <point x="239.5" y="720"/>
      <point x="294" y="720" type="curve" smooth="yes"/>
      <point x="348.5" y="720"/>
      <point x="392" y="683.5"/>
      <point x="392" y="630" type="curve" smooth="yes"/>
      <point x="392" y="576.5"/>
      <point x="348.5" y="540"/>
      <point x="294" y="540" type="curve" smooth="yes"/>
      <point x="239.5" y="540"/>
      <point x="196" y="576.5"/>
    </contour>
  </outline>
</glyph>
<glyph name="uni0212" format="1">
  <advance width="673"/>
  <unicode hex="0212"/>
  <outline>
    <contour>
      <point x="262" y="308" type="line"/>
      <point x="462" y="308" type="line"/>
      <point x="672" y="0" type="line"/>
      <point x="445" y="0" type="line"/>
    </contour>
    <contour>
      <point x="72" y="700" type="line"/>
      <point x="266" y="700" type="line"/>
      <point x="266" y="0" type="line"/>
      <point x="72" y="0" type="line"/>
    </contour>
    <contour>
      <point x="196" y="536" type="line"/>
      <point x="196" y="700" type="line"/>
      <point x="348" y="700" type="line" smooth="yes"/>
      <point x="540" y="700"/>
      <point x="630" y="604"/>
      <point x="630" y="466" type="curve" smooth="yes"/>
      <point x="630" y="328"/>
      <point x="540" y="231"/>
      <point x="348" y="231" type="curve" smooth="yes"/>
      <point x="196" y="231" type="line"/>
      <point x="196" y="380" type="line"/>
      <point x="331" y="380" type="line" smooth="yes"/>
      <point x="393" y="380"/>
      <point x="427" y="408"/>
      <point x="427" y="458" type="curve" smooth="yes"/>
      <point x="427" y="508"/>
      <point x="393" y="536"/>
      <point x="331" y="536" type="curve" smooth="yes"/>
    </contour>
    <contour>
      <point x="176" y="778" type="curve"/>
      <point x="284" y="778" type="line"/>
      <point x="284" y="816"/>
      <point x="312" y="833"/>
      <point x="342" y="833" type="curve" smooth="yes"/>
      <point x="372" y="833"/>
      <point x="401" y="816"/>
      <point x="401" y="778" type="curve"/>
      <point x="508" y="778" type="line"/>
      <point x="508" y="864"/>
      <point x="447" y="926"/>
      <point x="342" y="926" type="curve" smooth="yes"/>
      <point x="237" y="926"/>
      <point x="176" y="864"/>
    </contour>
  </outline>
</glyph>
<glyph name="dotaccent" format="1">
  <advance width="300"/>
  <unicode hex="02D9"/>
  <outline>
    <contour>
      <point x="52" y="821" type="curve" smooth="yes"/>
      <point x="52" y="874.5"/>
      <point x="95.5" y="911"/>
      <point x="150" y="911" type="curve" smooth="yes"/>
      <point x="204.5" y="911"/>
      <point x="248" y="874.5"/>
      <point x="248" y="821" type="curve" smooth="yes"/>
      <point x="248" y="767.5"/>
      <point x="204.5" y="731"/>
      <point x="150" y="731" type="curve" smooth="yes"/>
      <point x="95.5" y="731"/>
      <point x="52" y="767.5"/>
    </contour>
  </outline>
</glyph>
<glyph name="tilde" format="1">
  <advance width="530"/>
  <unicode hex="02DC"/>
  <outline>
    <contour>
      <point x="68" y="642" type="line"/>
      <point x="78" y="691"/>
      <point x="122" y="740"/>
      <point x="192" y="740" type="curve" smooth="yes"/>
      <point x="258" y="740"/>
      <point x="275" y="686"/>
      <point x="332" y="686" type="curve" smooth="yes"/>
      <point x="360" y="686"/>
      <point x="380" y="708"/>
      <point x="400" y="740" type="curve"/>
      <point x="479" y="656" type="line"/>
      <point x="463" y="619"/>
      <point x="402" y="568"/>
      <point x="336" y="568" type="curve" smooth="yes"/>
      <point x="281" y="568"/>
      <point x="242" y="622"/>
      <point x="191" y="622" type="curve" smooth="yes"/>
      <point x="154" y="622"/>
      <point x="144" y="587"/>
      <point x="144" y="572" type="curve"/>
    </contour>
  </outline>
</glyph>
<glyph name="uni1E9E" format="1">
  <advance width="935"/>
  <unicode hex="1E9E"/>
  <outline>
    <contour>
      <point x="80" y="354.5" type="line"/>
      <point x="271" y="323.5" type="line"/>
      <point x="271" y="0" type="line"/>
      <point x="80" y="0" type="line"/>
    </contour>
    <contour>
      <point x="532.5" y="345" type="curve"/>
      <point x="532.5" y="419.5" type="line"/>
      <point x="607" y="419.5"/>
      <point x="650" y="447"/>
      <point x="650" y="497.5" type="curve" smooth="yes"/>
      <point x="650" y="540"/>
      <point x="607.5" y="566.5"/>
      <point x="507.5" y="566.5" type="curve" smooth="yes"/>
      <point x="382.5" y="566.5"/>
      <point x="271" y="496.5"/>
      <point x="271" y="323.5" type="curve"/>
      <point x="80" y="354.5" type="line"/>
      <point x="80" y="568"/>
      <point x="245.5" y="710"/>
      <point x="499" y="710" type="curve" smooth="yes"/>
      <point x="725" y="710"/>
      <point x="847" y="632.5"/>
      <point x="847" y="518.5" type="curve" smooth="yes"/>
      <point x="847" y="409.5"/>
      <point x="722.5" y="345"/>
    </contour>
    <contour>
      <point x="606" y="-18" type="curve" smooth="yes"/>
      <point x="398.5" y="-18"/>
      <point x="320" y="123"/>
      <point x="320" y="232" type="curve"/>
      <point x="484.5" y="232" type="line"/>
      <point x="484.5" y="174"/>
      <point x="524" y="132.5"/>
      <point x="586" y="132.5" type="curve" smooth="yes"/>
      <point x="650.5" y="132.5"/>
      <point x="678" y="158"/>
      <point x="678" y="210.5" type="curve" smooth="yes"/>
      <point x="678" y="273"/>
      <point x="622.5" y="301.5"/>
      <point x="532.5" y="301.5" type="curve"/>
      <point x="532.5" y="380" type="line"/>
      <point x="722.5" y="380"/>
      <point x="867" y="324"/>
      <point x="867" y="185" type="curve" smooth="yes"/>
      <point x="867" y="66"/>
      <point x="760" y="-18"/>
    </contour>
  </outline>
</glyph>
<glyph name="uni2010" format="1">
  <advance width="226"/>
  <unicode hex="2010"/>
  <outline>
    <contour>
      <point x="5" y="164" type="line"/>
      <point x="5" y="312" type="line"/>
      <point x="222" y="312" type="line"/>
      <point x="222" y="164" type="line"/>
    </contour>
  </outline>
</glyph>
<glyph name="quoteright" format="1">
  <advance width="348"/>
  <unicode hex="2019"/>
  <outline>
    <contour>
      <point x="102" y="700" type="line"/>
      <point x="278" y="700" type="line"/>
      <point x="174" y="438" type="line"/>
      <point x="50" y="438" type="line"/>
    </contour>
  </outline>
</glyph>
<glyph name="guilsinglleft" format="1">
  <advance width="350"/>
  <unicode hex="2039"/>
  <outline>
    <contour>
      <point x="134" y="235" type="line"/>
      <point x="24" y="255" type="line"/>
      <point x="198" y="514" type="line"/>
      <point x="304" y="445" type="line"/>
    </contour>
    <contour>
      <point x="24" y="255" type="line"/>
      <point x="134" y="285" type="line"/>
      <point x="304" y="65" type="line"/>
      <point x="198" y="-4" type="line"/>
    </contour>
  </outline>
</glyph>
<glyph name="uni2070" format="1">
  <advance width="396"/>
  <unicode hex="2070"/>
  <outline>
    <contour>
      <point x="130" y="490" type="curve" smooth="yes"/>
      <point x="130" y="416"/>
      <point x="158" y="371"/>
      <point x="198" y="371" type="curve" smooth="yes"/>
      <point x="238" y="371"/>
      <point x="266" y="416"/>
      <point x="266" y="490" type="curve" smooth="yes"/>
      <point x="266" y="564"/>
      <point x="238" y="609"/>
      <point x="198" y="609" type="curve" smooth="yes"/>
      <point x="158" y="609"/>
      <point x="130" y="564"/>
    </contour>
    <contour>
      <point x="18" y="490" type="curve" smooth="yes"/>
      <point x="18" y="630"/>
      <point x="92" y="708"/>
      <point x="198" y="708" type="curve" smooth="yes"/>
      <point x="310" y="708"/>
      <point x="378" y="630"/>
      <point x="378" y="490" type="curve" smooth="yes"/>
      <point x="378" y="350"/>
      <point x="310" y="272"/>
      <point x="198" y="272" type="curve" smooth="yes"/>
      <point x="92" y="272"/>
      <point x="18" y="350"/>
    </contour>
  </outline>
</glyph>
<glyph name="uni2084" format="1">
  <advance width="445"/>
  <unicode hex="2084"/>
  <outline>
    <contour>
      <point x="10" y="72" type="line"/>
      <point x="106" y="154" type="line"/>
      <point x="292" y="154" type="line" smooth="yes"/>
      <point x="302" y="170" type="line" smooth="yes"/>
      <point x="415" y="170" type="line"/>
      <point x="415" y="72" type="line"/>
    </contour>
    <contour>
      <point x="127" y="110" type="line"/>
      <point x="10" y="72" type="line"/>
      <point x="257" y="420" type="line"/>
      <point x="349" y="420" type="line"/>
      <point x="349" y="0" type="line"/>
      <point x="227" y="0" type="line"/>
      <point x="227" y="94" type="line" smooth="yes"/>
      <point x="242" y="100" type="line" smooth="yes"/>
      <point x="242" y="264" type="line"/>
    </contour>
  </outline>
</glyph>
<glyph name="uni2150" format="1">
  <advance width="972"/>
  <unicode hex="2150"/>
  <outline>
    <contour>
      <point x="617" y="700" type="line"/>
      <point x="754" y="700" type="line"/>
      <point x="234" y="0" type="line"/>
      <point x="97" y="0" type="line"/>
    </contour>
    <contour>
      <point x="22" y="560" type="line"/>
      <point x="22" y="660" type="line"/>
      <point x="242" y="702" type="line"/>
      <point x="242" y="274" type="line"/>
      <point x="130" y="274" type="line"/>
      <point x="130" y="586" type="line"/>
    </contour>
    <contour>
      <point x="596" y="311" type="line"/>
      <point x="596" y="420" type="line"/>
      <point x="952" y="420" type="line"/>
      <point x="750" y="0" type="line"/>
      <point x="623" y="0" type="line"/>
      <point x="782" y="311" type="line"/>
    </contour>
  </outline>
</glyph>
<glyph name="onethird" format="1">
  <advance width="909"/>
  <unicode hex="2153"/>
  <outline>
    <contour>
      <point x="608" y="700" type="line"/>
      <point x="746" y="700" type="line"/>
      <point x="226" y="0" type="line"/>
      <point x="88" y="0" type="line"/>
    </contour>
    <contour>
      <point x="22" y="560" type="line"/>
      <point x="22" y="660" type="line"/>
      <point x="242" y="702" type="line"/>
      <point x="242" y="274" type="line"/>
      <point x="130" y="274" type="line"/>
      <point x="130" y="586" type="line"/>
    </contour>
    <contour>
      <point x="683" y="202" type="curve"/>
      <point x="683" y="252" type="line"/>
      <point x="727" y="252"/>
      <point x="758" y="276"/>
      <point x="758" y="304" type="curve" smooth="yes"/>
      <point x="758" y="324"/>
      <point x="745" y="337"/>
      <point x="716" y="337" type="curve" smooth="yes"/>
      <point x="686" y="337"/>
      <point x="666" y="320"/>
      <point x="666" y="292" type="curve"/>
      <point x="558" y="292" type="line"/>
      <point x="558" y="369"/>
      <point x="620" y="428"/>
      <point x="716" y="428" type="curve" smooth="yes"/>
      <point x="817" y="428"/>
      <point x="874" y="377"/>
      <point x="874" y="311" type="curve" smooth="yes"/>
      <point x="874" y="235"/>
      <point x="789" y="202"/>
    </contour>
    <contour>
      <point x="710" y="-11" type="curve" smooth="yes"/>
      <point x="602" y="-11"/>
      <point x="540" y="63"/>
      <point x="540" y="140" type="curve"/>
      <point x="656" y="140" type="line"/>
      <point x="656" y="98"/>
      <point x="685" y="81"/>
      <point x="716" y="81" type="curve" smooth="yes"/>
      <point x="747" y="81"/>
      <point x="770" y="92"/>
      <point x="770" y="126" type="curve" smooth="yes"/>
      <point x="770" y="156"/>
      <point x="747" y="180"/>
      <point x="683" y="180" type="curve"/>
      <point x="683" y="237" type="line"/>
      <point x="803" y="237"/>
      <point x="886" y="202"/>
      <point x="886" y="116" type="curve" smooth="yes"/>
      <point x="886" y="42"/>
      <point x="822" y="-11"/>
    </contour>
  </outline>
</glyph>
<glyph name="twothirds" format="1">
  <advance width="1044"/>
  <unicode hex="2154"/>
  <outline>
    <contour>
      <point x="760" y="700" type="line"/>
      <point x="898" y="700" type="line"/>
      <point x="378" y="0" type="line"/>
      <point x="240" y="0" type="line"/>
    </contour>
    <contour>
      <point x="30" y="282" type="line"/>
      <point x="214" y="470" type="line" smooth="yes"/>
      <point x="250" y="508"/>
      <point x="272" y="532"/>
      <point x="272" y="566" type="curve" smooth="yes"/>
      <point x="272" y="590"/>
      <point x="256" y="612"/>
      <point x="222" y="612" type="curve" smooth="yes"/>
      <point x="188" y="612"/>
      <point x="164" y="584"/>
      <point x="164" y="544" type="curve"/>
      <point x="49" y="544" type="line"/>
      <point x="49" y="633"/>
      <point x="109" y="712"/>
      <point x="225" y="712" type="curve" smooth="yes"/>
      <point x="333" y="712"/>
      <point x="392" y="641"/>
      <point x="392" y="573" type="curve" smooth="yes"/>
      <point x="392" y="527"/>
      <point x="367" y="491"/>
      <point x="330" y="461" type="curve" smooth="yes"/>
      <point x="243" y="388" type="line"/>
      <point x="404" y="388" type="line"/>
      <point x="404" y="282" type="line"/>
    </contour>
    <contour>
      <point x="818" y="202" type="curve"/>
      <point x="818" y="252" type="line"/>
      <point x="862" y="252"/>
      <point x="894" y="276"/>
      <point x="894" y="304" type="curve" smooth="yes"/>
      <point x="894" y="324"/>
      <point x="879" y="337"/>
      <point x="850" y="337" type="curve" smooth="yes"/>
      <point x="820" y="337"/>
      <point x="801" y="320"/>
      <point x="801" y="292" type="curve"/>
      <point x="694" y="292" type="line"/>
      <point x="694" y="369"/>
      <point x="755" y="428"/>
      <point x="851" y="428" type="curve" smooth="yes"/>
      <point x="952" y="428"/>
      <point x="1008" y="377"/>
      <point x="1008" y="311" type="curve" smooth="yes"/>
      <point x="1008" y="235"/>
      <point x="924" y="202"/>
    </contour>
    <contour>
      <point x="846" y="-11" type="curve" smooth="yes"/>
      <point x="738" y="-11"/>
      <point x="676" y="63"/>
      <point x="676" y="140" type="curve"/>
      <point x="790" y="140" type="line"/>
      <point x="790" y="98"/>
      <point x="820" y="81"/>
      <point x="851" y="81" type="curve" smooth="yes"/>
      <point x="882" y="81"/>
      <point x="906" y="92"/>
      <point x="906" y="126" type="curve" smooth="yes"/>
      <point x="906" y="156"/>
      <point x="882" y="180"/>
      <point x="818" y="180" type="curve"/>
      <point x="818" y="237" type="line"/>
      <point x="938" y="237"/>
      <point x="1020" y="202"/>
      <point x="1020" y="116" type="curve" smooth="yes"/>
      <point x="1020" y="42"/>
      <point x="958" y="-11"/>
    </contour>
  </outline>
</glyph>
<glyph name="oneeighth" format="1">
  <advance width="930"/>
  <unicode hex="215B"/>
  <outline>
    <contour>
      <point x="633" y="700" type="line"/>
      <point x="772" y="700" type="line"/>
      <point x="252" y="0" type="line"/>
      <point x="113" y="0" type="line"/>
    </contour>
    <contour>
      <point x="22" y="560" type="line"/>
      <point x="22" y="660" type="line"/>
      <point x="242" y="702" type="line"/>
      <point x="242" y="274" type="line"/>
      <point x="130" y="274" type="line"/>
      <point x="130" y="586" type="line"/>
    </contour>
    <contour>
      <point x="584" y="319" type="curve" smooth="yes"/>
      <point x="584" y="393"/>
      <point x="655" y="431"/>
      <point x="735" y="431" type="curve" smooth="yes"/>
      <point x="815" y="431"/>
      <point x="885" y="393"/>
      <point x="885" y="319" type="curve" smooth="yes"/>
      <point x="885" y="239"/>
      <point x="804" y="204"/>
      <point x="735" y="204" type="curve" smooth="yes"/>
      <point x="666" y="204"/>
      <point x="584" y="239"/>
    </contour>
    <contour>
      <point x="694" y="308" type="curve" smooth="yes"/>
      <point x="694" y="282"/>
      <point x="711" y="266"/>
      <point x="735" y="266" type="curve" smooth="yes"/>
      <point x="759" y="266"/>
      <point x="775" y="282"/>
      <point x="775" y="308" type="curve" smooth="yes"/>
      <point x="775" y="334"/>
      <point x="759" y="349"/>
      <point x="735" y="349" type="curve" smooth="yes"/>
      <point x="711" y="349"/>
      <point x="694" y="334"/>
    </contour>
    <contour>
      <point x="570" y="114" type="curve" smooth="yes"/>
      <point x="570" y="206"/>
      <point x="666" y="239"/>
      <point x="735" y="239" type="curve" smooth="yes"/>
      <point x="804" y="239"/>
      <point x="900" y="206"/>
      <point x="900" y="114" type="curve" smooth="yes"/>
      <point x="900" y="34"/>
      <point x="819" y="-11"/>
      <point x="735" y="-11" type="curve" smooth="yes"/>
      <point x="651" y="-11"/>
      <point x="570" y="34"/>
    </contour>
    <contour>
      <point x="687" y="132" type="curve" smooth="yes"/>
      <point x="687" y="100"/>
      <point x="707" y="82"/>
      <point x="735" y="82" type="curve" smooth="yes"/>
      <point x="763" y="82"/>
      <point x="782" y="100"/>
      <point x="782" y="132" type="curve" smooth="yes"/>
      <point x="782" y="158"/>
      <point x="763" y="179"/>
      <point x="735" y="179" type="curve" smooth="yes"/>
      <point x="707" y="179"/>
      <point x="687" y="158"/>
    </contour>
  </outline>
</glyph>
<glyph name="uni2219" format="1">
  <advance width="329"/>
  <unicode hex="2219"/>
  <outline>
    <contour>
      <point x="58" y="452" type="curve" smooth="yes"/>
      <point x="58" y="508"/>
      <point x="102" y="556"/>
      <point x="164" y="556" type="curve" smooth="yes"/>
      <point x="226" y="556"/>
      <point x="271" y="508"/>
      <point x="271" y="452" type="curve" smooth="yes"/>
      <point x="271" y="396"/>
      <point x="226" y="348"/>
      <point x="164" y="348" type="curve" smooth="yes"/>
      <point x="102" y="348"/>
      <point x="58" y="396"/>
    </contour>
  </outline>
</glyph>
<glyph name="uniFF11" format="1">
  <advance width="645"/>
  <unicode hex="FF11"/>
  <outline>
    <contour>
      <point x="106" y="478" type="line"/>
      <point x="106" y="644" type="line"/>
      <point x="473" y="714" type="line"/>
      <point x="473" y="0" type="line"/>
      <point x="286" y="0" type="line"/>
      <point x="286" y="520" type="line"/>
    </contour>
  </outline>
</glyph>
<glyph name="uniFF13" format="1">
  <advance width="645"/>
  <unicode hex="FF13"/>
  <outline>
    <contour>
      <point x="274" y="336" type="curve"/>
      <point x="274" y="420" type="line"/>
      <point x="348" y="420"/>
      <point x="400" y="458"/>
      <point x="400" y="504" type="curve" smooth="yes"/>
      <point x="400" y="538"/>
      <point x="376" y="562"/>
      <point x="328" y="562" type="curve" smooth="yes"/>
      <point x="280" y="562"/>
      <point x="245" y="530"/>
      <point x="245" y="486" type="curve"/>
      <point x="66" y="486" type="line"/>
      <point x="66" y="615"/>
      <point x="170" y="714"/>
      <point x="330" y="714" type="curve" smooth="yes"/>
      <point x="499" y="714"/>
      <point x="592" y="629"/>
      <point x="592" y="518" type="curve" smooth="yes"/>
      <point x="592" y="390"/>
      <point x="450" y="336"/>
    </contour>
    <contour>
      <point x="320" y="-18" type="curve" smooth="yes"/>
      <point x="140" y="-18"/>
      <point x="36" y="105"/>
      <point x="36" y="234" type="curve"/>
      <point x="228" y="234" type="line"/>
      <point x="228" y="164"/>
      <point x="276" y="135"/>
      <point x="328" y="135" type="curve" smooth="yes"/>
      <point x="380" y="135"/>
      <point x="420" y="156"/>
      <point x="420" y="212" type="curve" smooth="yes"/>
      <point x="420" y="262"/>
      <point x="380" y="300"/>
      <point x="274" y="300" type="curve"/>
      <point x="274" y="396" type="line"/>
      <point x="474" y="396"/>
      <point x="612" y="337"/>
      <point x="612" y="194" type="curve" smooth="yes"/>
      <point x="612" y="71"/>
      <point x="506" y="-18"/>
    </contour>
  </outline>
</glyph>
